<svg width="30" height="24" viewBox="0 0 30 24" fill="none" xmlns="http://www.w3.org/2000/svg">
<path d="M19.25 14.8334V10.5834H23.5V7.75008L29.1666 12.7084L23.5 17.6667V14.8334H19.25ZM17.8333 5.90841V7.75008H0.833313V5.90841L9.33331 0.666748L17.8333 5.90841ZM7.91665 9.16675H10.75V16.2501H7.91665V9.16675ZM2.24998 9.16675H5.08331V16.2501H2.24998V9.16675ZM16.4166 9.16675V12.7084L13.5833 15.2584V9.16675H16.4166ZM10.8916 17.6667L10.0416 18.3751L12.45 20.5001H0.833313V17.6667H10.8916ZM22.0833 16.2501V20.5001H17.8333V23.3334L12.1666 18.3751L17.8333 13.4167V16.2501H22.0833Z" fill="#4911C3"/>
</svg>
