<svg width="28" height="28" viewBox="0 0 28 28" fill="none" xmlns="http://www.w3.org/2000/svg">
<path d="M0 25.9996H28V27.9996H0V25.9996ZM25 8.99957C25.2652 8.99957 25.5196 8.89422 25.7071 8.70668C25.8946 8.51915 26 8.26479 26 7.99957V4.99957C25.9999 4.79406 25.9365 4.59356 25.8184 4.42537C25.7003 4.25717 25.5333 4.12945 25.34 4.05957L14.34 0.0595746C14.1203 -0.0198582 13.8797 -0.0198582 13.66 0.0595746L2.66 4.05957C2.46673 4.12945 2.29968 4.25717 2.18159 4.42537C2.06349 4.59356 2.00009 4.79406 2 4.99957V7.99957C2 8.26479 2.10536 8.51915 2.29289 8.70668C2.48043 8.89422 2.73478 8.99957 3 8.99957H4V21.9996H2V23.9996H26V21.9996H24V8.99957H25ZM4 5.69957L14 2.05957L24 5.69957V6.99957H4V5.69957ZM16 21.9996H12V8.99957H16V21.9996ZM6 8.99957H10V21.9996H6V8.99957ZM22 21.9996H18V8.99957H22V21.9996Z" fill="#4911C3"/>
</svg>
