<svg width="30" height="22" viewBox="0 0 30 22" fill="none" xmlns="http://www.w3.org/2000/svg">
<path d="M28 4.99999H5.82L5 0.79999C4.95325 0.570714 4.82758 0.365092 4.64486 0.218918C4.46214 0.0727429 4.23395 -0.00472811 4 -1.0184e-05H0V1.99999H3.18L7 21.2C7.04675 21.4293 7.17242 21.6349 7.35514 21.7811C7.53786 21.9272 7.76605 22.0047 8 22H26V20H8.82L8 16H26C26.2312 16.0056 26.4571 15.931 26.6395 15.7888C26.8218 15.6466 26.9492 15.4456 27 15.22L29 6.21999C29.0335 6.07162 29.0327 5.91755 28.9977 5.76952C28.9627 5.62149 28.8944 5.4834 28.798 5.36576C28.7015 5.24812 28.5795 5.15402 28.4413 5.09064C28.303 5.02726 28.1521 4.99625 28 4.99999ZM25.2 14H7.62L6.22 6.99999H26.75L25.2 14Z" fill="#4911C3"/>
</svg>
