<svg width="24" height="24" viewBox="0 0 24 24" fill="none" xmlns="http://www.w3.org/2000/svg">
<path d="M6.16667 1.5H3.83333C3.21449 1.5 2.621 1.74583 2.18342 2.18342C1.74583 2.621 1.5 3.21449 1.5 3.83333V6.16667M17.8333 1.5H20.1667C20.7855 1.5 21.379 1.74583 21.8166 2.18342C22.2542 2.621 22.5 3.21449 22.5 3.83333V6.16667M16.6667 7.33333V9.66667M7.33333 7.33333V9.66667M8.5 16.6667C8.5 16.6667 9.66667 17.8333 12 17.8333C14.3333 17.8333 15.5 16.6667 15.5 16.6667M12 7.33333V13.1667H10.8333M6.16667 22.5H3.83333C3.21449 22.5 2.621 22.2542 2.18342 21.8166C1.74583 21.379 1.5 20.7855 1.5 20.1667V17.8333M17.8333 22.5H20.1667C20.7855 22.5 21.379 22.2542 21.8166 21.8166C22.2542 21.379 22.5 20.7855 22.5 20.1667V17.8333" stroke="#CCCCCC" stroke-width="1.5" stroke-linecap="round" stroke-linejoin="round"/>
</svg>
