<svg width="23" height="30" viewBox="0 0 23 30" fill="none" xmlns="http://www.w3.org/2000/svg">
<path d="M11.5 3.5C14.525 3.5 17 5.975 17 9C17 11.8875 14.1125 16.5625 11.5 19.8625C8.8875 16.425 6 11.8875 6 9C6 5.975 8.475 3.5 11.5 3.5ZM11.5 0.75C6.9625 0.75 3.25 4.4625 3.25 9C3.25 15.1875 11.5 24.125 11.5 24.125C11.5 24.125 19.75 15.05 19.75 9C19.75 4.4625 16.0375 0.75 11.5 0.75ZM11.5 6.25C9.9875 6.25 8.75 7.4875 8.75 9C8.75 10.5125 9.9875 11.75 11.5 11.75C13.0125 11.75 14.25 10.5125 14.25 9C14.25 7.4875 13.0125 6.25 11.5 6.25ZM22.5 24.125C22.5 27.15 17.55 29.625 11.5 29.625C5.45 29.625 0.5 27.15 0.5 24.125C0.5 22.3375 2.15 20.825 4.7625 19.725L5.5875 20.9625C4.2125 21.65 3.25 22.475 3.25 23.4375C3.25 25.3625 6.9625 26.875 11.5 26.875C16.0375 26.875 19.75 25.3625 19.75 23.4375C19.75 22.475 18.7875 21.65 17.275 20.9625L18.1 19.725C20.85 20.825 22.5 22.3375 22.5 24.125Z" fill="#4911C3"/>
</svg>
