<svg width="24" height="22" viewBox="0 0 24 22" fill="none" xmlns="http://www.w3.org/2000/svg">
<path d="M10.9091 22L7.44546 18.5167C6.13636 17.1926 5.01382 16.0111 4.07782 14.9722C3.14109 13.9333 2.36836 12.9556 1.75964 12.0389C1.15018 11.1222 0.704727 10.2361 0.423273 9.38056C0.141091 8.525 0 7.6287 0 6.69167C0 4.77685 0.572727 3.18267 1.71818 1.90911C2.86364 0.63637 4.29091 0 6 0C6.94545 0 7.84546 0.224074 8.7 0.672222C9.55455 1.12037 10.2909 1.75185 10.9091 2.56667C11.5273 1.75185 12.2636 1.12037 13.1182 0.672222C13.9727 0.224074 14.8727 0 15.8182 0C17.2909 0 18.5273 0.463222 19.5273 1.38967C20.5273 2.31693 21.2091 3.48333 21.5727 4.88889H19.2545C18.9273 4.07407 18.4455 3.46296 17.8091 3.05556C17.1727 2.64815 16.5091 2.44444 15.8182 2.44444C14.8909 2.44444 14.0909 2.72474 13.4182 3.28533C12.7455 3.84511 12.1182 4.58333 11.5364 5.5H10.2818C9.71818 4.58333 9.07746 3.84511 8.35964 3.28533C7.64109 2.72474 6.85455 2.44444 6 2.44444C4.96364 2.44444 4.068 2.84656 3.31309 3.65078C2.55891 4.45581 2.18182 5.46944 2.18182 6.69167C2.18182 7.36389 2.30909 8.0463 2.56364 8.73889C2.81818 9.43148 3.27273 10.2312 3.92727 11.1381C4.58182 12.0442 5.47273 13.103 6.6 14.3147C7.72727 15.5271 9.16364 16.9889 10.9091 18.7C11.3818 18.2315 11.9364 17.6917 12.5727 17.0806C13.2091 16.4694 13.7182 15.9602 14.1 15.5528L14.3455 15.8278L14.8767 16.4242L15.4091 17.0194L15.6545 17.2944C15.2545 17.7019 14.7455 18.2058 14.1273 18.8063C13.5091 19.4077 12.9636 19.9426 12.4909 20.4111L10.9091 22ZM18.5455 17.1111V13.4444H15.2727V11H18.5455V7.33333H20.7273V11H24V13.4444H20.7273V17.1111H18.5455Z" fill="#4911C3"/>
</svg>
