<svg width="33" height="33" viewBox="0 0 33 33" fill="none" xmlns="http://www.w3.org/2000/svg">
<path fill-rule="evenodd" clip-rule="evenodd" d="M4.56923 0H4.44231C3.861 0 3.36092 1.89116e-08 2.91923 0.104069C2.23546 0.267444 1.61027 0.616916 1.11294 1.11376C0.615605 1.61061 0.265542 2.23544 0.101538 2.91901C-9.45651e-08 3.36066 0 3.85816 0 4.44197V10.7876C0 11.3689 1.8913e-08 11.8689 0.104077 12.3106C0.267465 12.9943 0.616964 13.6194 1.11385 14.1167C1.61074 14.614 2.23561 14.9641 2.91923 15.1281C3.36092 15.2296 3.85846 15.2296 4.44231 15.2296H10.7885C11.3698 15.2296 11.8698 15.2296 12.3115 15.1255C12.9953 14.9622 13.6205 14.6127 14.1178 14.1158C14.6152 13.619 14.9652 12.9942 15.1292 12.3106C15.2308 11.8689 15.2308 11.3714 15.2308 10.7876V4.44197C15.2308 3.8607 15.2308 3.36066 15.1267 2.91901C14.9633 2.23529 14.6138 1.61015 14.1169 1.11285C13.62 0.615558 12.9952 0.265522 12.3115 0.101531C11.8698 -9.45578e-08 11.3723 0 10.7885 0H4.56923ZM3.51069 2.5738C3.61985 2.54842 3.78992 2.53827 4.56923 2.53827H10.6615C11.4434 2.53827 11.6109 2.54588 11.7201 2.5738C11.9481 2.62833 12.1566 2.74494 12.3224 2.91072C12.4882 3.07649 12.6048 3.28495 12.6593 3.51296C12.6847 3.61957 12.6923 3.78709 12.6923 4.56888V10.6607C12.6923 11.4425 12.6847 11.61 12.6568 11.7192C12.6022 11.9472 12.4856 12.1556 12.3198 12.3214C12.154 12.4872 11.9456 12.6038 11.7175 12.6583C11.6135 12.6812 11.4459 12.6913 10.6615 12.6913H4.56923C3.78738 12.6913 3.61985 12.6837 3.51069 12.6558C3.28266 12.6013 3.07419 12.4847 2.90841 12.3189C2.74262 12.1531 2.62599 11.9446 2.57146 11.7166C2.54862 11.6126 2.53846 11.445 2.53846 10.6607V4.56888C2.53846 3.78709 2.54608 3.61957 2.574 3.51042C2.62853 3.28241 2.74516 3.07396 2.91094 2.90818C3.07673 2.74241 3.2852 2.62579 3.51323 2.57126L3.51069 2.5738ZM22.3385 0H22.2115C21.6302 0 21.1302 1.89116e-08 20.6885 0.104069C20.0047 0.267444 19.3795 0.616916 18.8822 1.11376C18.3848 1.61061 18.0348 2.23544 17.8708 2.91901C17.7692 3.36066 17.7692 3.85816 17.7692 4.44197V10.7876C17.7692 11.3689 17.7692 11.8689 17.8733 12.3106C18.0367 12.9943 18.3862 13.6194 18.8831 14.1167C19.38 14.614 20.0048 14.9641 20.6885 15.1281C21.1302 15.2296 21.6277 15.2296 22.2115 15.2296H28.5577C29.139 15.2296 29.6391 15.2296 30.0808 15.1255C30.7645 14.9622 31.3897 14.6127 31.8871 14.1158C32.3844 13.619 32.7345 12.9942 32.8985 12.3106C33 11.8689 33 11.3714 33 10.7876V4.44197C33 3.8607 33 3.36066 32.8959 2.91901C32.7325 2.23529 32.383 1.61015 31.8861 1.11285C31.3893 0.615558 30.7644 0.265522 30.0808 0.101531C29.6391 -9.45578e-08 29.1415 0 28.5577 0H22.3385ZM21.2799 2.5738C21.3891 2.54842 21.5592 2.53827 22.3385 2.53827H28.4308C29.2126 2.53827 29.3802 2.54588 29.4893 2.5738C29.7173 2.62833 29.9258 2.74494 30.0916 2.91072C30.2574 3.07649 30.374 3.28495 30.4285 3.51296C30.4539 3.61957 30.4615 3.78709 30.4615 4.56888V10.6607C30.4615 11.4425 30.4514 11.61 30.426 11.7192C30.3715 11.9472 30.2548 12.1556 30.0891 12.3214C29.9233 12.4872 29.7148 12.6038 29.4868 12.6583C29.3802 12.6837 29.2126 12.6913 28.4308 12.6913H22.3385C21.5566 12.6913 21.3891 12.6837 21.2799 12.6558C21.0519 12.6013 20.8434 12.4847 20.6776 12.3189C20.5118 12.1531 20.3952 11.9446 20.3407 11.7166C20.3178 11.6126 20.3077 11.445 20.3077 10.6607V4.56888C20.3077 3.78709 20.3153 3.61957 20.3432 3.51042C20.3978 3.28241 20.5144 3.07396 20.6802 2.90818C20.846 2.74241 21.0544 2.62579 21.2825 2.57126L21.2799 2.5738ZM4.44231 17.7679H10.7885C11.3698 17.7679 11.8698 17.7679 12.3115 17.8719C12.9953 18.0353 13.6205 18.3848 14.1178 18.8816C14.6152 19.3785 14.9652 20.0033 15.1292 20.6869C15.2308 21.1285 15.2308 21.626 15.2308 22.2098V28.5555C15.2308 29.1368 15.2308 29.6368 15.1267 30.0785C14.9633 30.7622 14.6138 31.3873 14.1169 31.8846C13.62 32.3819 12.9952 32.7319 12.3115 32.8959C11.8698 32.9975 11.3723 32.9975 10.7885 32.9975H4.44231C3.861 32.9975 3.36092 32.9975 2.91923 32.8934C2.23546 32.73 1.61027 32.3805 1.11294 31.8837C0.615605 31.3868 0.265542 30.762 0.101538 30.0785C-9.45651e-08 29.6368 0 29.1393 0 28.5555V22.2098C0 21.6286 1.8913e-08 21.1285 0.104077 20.6869C0.267465 20.0032 0.616964 19.378 1.11385 18.8807C1.61074 18.3834 2.23561 18.0334 2.91923 17.8694C3.36092 17.7679 3.85846 17.7679 4.44231 17.7679ZM4.56923 20.3061C3.78738 20.3061 3.61985 20.3137 3.51069 20.3417C3.28266 20.3962 3.07419 20.5128 2.90841 20.6786C2.74262 20.8444 2.62599 21.0528 2.57146 21.2808C2.54862 21.3849 2.53846 21.5524 2.53846 22.3367V28.4286C2.53846 29.2104 2.54608 29.3779 2.574 29.487C2.62853 29.715 2.74516 29.9235 2.91094 30.0893C3.07673 30.2551 3.2852 30.3717 3.51323 30.4262C3.61985 30.4516 3.78738 30.4592 4.56923 30.4592H10.6615C11.4434 30.4592 11.6109 30.449 11.7201 30.4237C11.9481 30.3691 12.1566 30.2525 12.3224 30.0867C12.4882 29.921 12.6048 29.7125 12.6593 29.4845C12.6847 29.3779 12.6923 29.2104 12.6923 28.4286V22.3367C12.6923 21.555 12.6847 21.3874 12.6568 21.2783C12.6022 21.0503 12.4856 20.8418 12.3198 20.676C12.154 20.5103 11.9456 20.3937 11.7175 20.3391C11.6135 20.3163 11.4459 20.3061 10.6615 20.3061H4.56923ZM22.3385 17.7679H22.2115C21.6302 17.7679 21.1302 17.7679 20.6885 17.8719C20.0047 18.0353 19.3795 18.3848 18.8822 18.8816C18.3848 19.3785 18.0348 20.0033 17.8708 20.6869C17.7692 21.1285 17.7692 21.626 17.7692 22.2098V28.5555C17.7692 29.1368 17.7692 29.6368 17.8733 30.0785C18.0367 30.7622 18.3862 31.3873 18.8831 31.8846C19.38 32.3819 20.0048 32.7319 20.6885 32.8959C21.1302 33 21.6302 33 22.2115 33H28.5577C29.139 33 29.6391 33 30.0808 32.8959C30.7641 32.7321 31.3887 32.3825 31.8856 31.8857C32.3824 31.3888 32.7321 30.7642 32.8959 30.081C33 29.6393 33 29.1393 33 28.558V22.2098C33 21.6286 33 21.1285 32.8959 20.6869C32.7325 20.0032 32.383 19.378 31.8861 18.8807C31.3893 18.3834 30.7644 18.0334 30.0808 17.8694C29.6391 17.7679 29.1415 17.7679 28.5577 17.7679H22.3385ZM21.2799 20.3417C21.3891 20.3163 21.5592 20.3061 22.3385 20.3061H28.4308C29.2126 20.3061 29.3802 20.3137 29.4893 20.3417C29.7173 20.3962 29.9258 20.5128 30.0916 20.6786C30.2574 20.8444 30.374 21.0528 30.4285 21.2808C30.4539 21.3874 30.4615 21.555 30.4615 22.3367V28.4286C30.4615 29.2104 30.4514 29.3779 30.426 29.487C30.3715 29.715 30.2548 29.9235 30.0891 30.0893C29.9233 30.2551 29.7148 30.3717 29.4868 30.4262C29.3802 30.4516 29.2126 30.4592 28.4308 30.4592H22.3385C21.5566 30.4592 21.3891 30.449 21.2799 30.4237C21.0519 30.3691 20.8434 30.2525 20.6776 30.0867C20.5118 29.921 20.3952 29.7125 20.3407 29.4845C20.3178 29.3804 20.3077 29.2129 20.3077 28.4286V22.3367C20.3077 21.555 20.3153 21.3874 20.3432 21.2783C20.3978 21.0503 20.5144 20.8418 20.6802 20.676C20.846 20.5103 21.0544 20.3937 21.2825 20.3391L21.2799 20.3417Z" fill="#666666"/>
</svg>
