<svg width="31" height="31" viewBox="0 0 31 31" fill="none" xmlns="http://www.w3.org/2000/svg">
<path d="M15.5 0.916656C13.5848 0.916656 11.6885 1.29387 9.91916 2.02675C8.14983 2.75963 6.54217 3.83383 5.18799 5.18802C2.45308 7.92292 0.916626 11.6322 0.916626 15.5C0.916626 19.3677 2.45308 23.0771 5.18799 25.812C6.54217 27.1661 8.14983 28.2404 9.91916 28.9732C11.6885 29.7061 13.5848 30.0833 15.5 30.0833C19.3677 30.0833 23.077 28.5469 25.8119 25.812C28.5468 23.0771 30.0833 19.3677 30.0833 15.5C30.0833 13.5849 29.7061 11.6885 28.9732 9.91919C28.2403 8.14986 27.1661 6.5422 25.8119 5.18802C24.4577 3.83383 22.8501 2.75963 21.0808 2.02675C19.3114 1.29387 17.4151 0.916656 15.5 0.916656ZM8.31038 24.6583C8.93746 23.3458 12.7583 22.0625 15.5 22.0625C18.2416 22.0625 22.0625 23.3458 22.6895 24.6583C20.647 26.2859 18.1117 27.1704 15.5 27.1667C12.7875 27.1667 10.2937 26.2333 8.31038 24.6583ZM24.775 22.5437C22.6895 20.0062 17.6291 19.1458 15.5 19.1458C13.3708 19.1458 8.31038 20.0062 6.22496 22.5437C4.67356 20.5234 3.8328 18.0473 3.83329 15.5C3.83329 9.06874 9.06871 3.83332 15.5 3.83332C21.9312 3.83332 27.1666 9.06874 27.1666 15.5C27.1666 18.1542 26.2625 20.6042 24.775 22.5437ZM15.5 6.74999C12.6708 6.74999 10.3958 9.02499 10.3958 11.8542C10.3958 14.6833 12.6708 16.9583 15.5 16.9583C18.3291 16.9583 20.6041 14.6833 20.6041 11.8542C20.6041 9.02499 18.3291 6.74999 15.5 6.74999ZM15.5 14.0417C14.9198 14.0417 14.3634 13.8112 13.9532 13.401C13.5429 12.9907 13.3125 12.4343 13.3125 11.8542C13.3125 11.274 13.5429 10.7176 13.9532 10.3074C14.3634 9.89712 14.9198 9.66666 15.5 9.66666C16.0801 9.66666 16.6365 9.89712 17.0468 10.3074C17.457 10.7176 17.6875 11.274 17.6875 11.8542C17.6875 12.4343 17.457 12.9907 17.0468 13.401C16.6365 13.8112 16.0801 14.0417 15.5 14.0417Z" fill="#4911C3"/>
</svg>
