<svg width="26" height="26" viewBox="0 0 26 26" fill="none" xmlns="http://www.w3.org/2000/svg">
<path d="M9.875 6.125V9.875H6.125V6.125H9.875ZM11.75 4.25H4.25V11.75H11.75V4.25ZM9.875 16.125V19.875H6.125V16.125H9.875ZM11.75 14.25H4.25V21.75H11.75V14.25ZM19.875 6.125V9.875H16.125V6.125H19.875ZM21.75 4.25H14.25V11.75H21.75V4.25ZM14.25 14.25H16.125V16.125H14.25V14.25ZM16.125 16.125H18V18H16.125V16.125ZM18 14.25H19.875V16.125H18V14.25ZM14.25 18H16.125V19.875H14.25V18ZM16.125 19.875H18V21.75H16.125V19.875ZM18 18H19.875V19.875H18V18ZM19.875 16.125H21.75V18H19.875V16.125ZM19.875 19.875H21.75V21.75H19.875V19.875ZM25.5 6.75H23V3H19.25V0.5H25.5V6.75ZM25.5 25.5V19.25H23V23H19.25V25.5H25.5ZM0.5 25.5H6.75V23H3V19.25H0.5V25.5ZM0.5 0.5V6.75H3V3H6.75V0.5H0.5Z" fill="#4911C3"/>
</svg>
