<svg width="192" height="192" viewBox="0 0 192 192" fill="none" xmlns="http://www.w3.org/2000/svg">
<path d="M72 43.2V72H43.2V43.2H72ZM86.4 28.8H28.8V86.4H86.4V28.8ZM72 120V148.8H43.2V120H72ZM86.4 105.6H28.8V163.2H86.4V105.6ZM148.8 43.2V72H120V43.2H148.8ZM163.2 28.8H105.6V86.4H163.2V28.8ZM105.6 105.6H120V120H105.6V105.6ZM120 120H134.4V134.4H120V120ZM134.4 105.6H148.8V120H134.4V105.6ZM105.6 134.4H120V148.8H105.6V134.4ZM120 148.8H134.4V163.2H120V148.8ZM134.4 134.4H148.8V148.8H134.4V134.4ZM148.8 120H163.2V134.4H148.8V120ZM148.8 148.8H163.2V163.2H148.8V148.8ZM192 48H172.8V19.2H144V0H192V48ZM192 192V144H172.8V172.8H144V192H192ZM0 192H48V172.8H19.2V144H0V192ZM0 0V48H19.2V19.2H48V0H0Z" fill="#629BF1"/>
</svg>
