<svg width="20" height="26" viewBox="0 0 20 26" fill="none" xmlns="http://www.w3.org/2000/svg">
<path d="M3.33333 0C1.49479 0 0 1.45742 0 3.25V22.75C0 24.5426 1.49479 26 3.33333 26H16.6667C18.5052 26 20 24.5426 20 22.75V8.125H13.3333C12.4115 8.125 11.6667 7.39883 11.6667 6.5V0H3.33333ZM13.3333 0V6.5H20L13.3333 0ZM3.33333 4.0625C3.33333 3.61563 3.70833 3.25 4.16667 3.25H7.5C7.95833 3.25 8.33333 3.61563 8.33333 4.0625C8.33333 4.50938 7.95833 4.875 7.5 4.875H4.16667C3.70833 4.875 3.33333 4.50938 3.33333 4.0625ZM3.33333 7.3125C3.33333 6.86562 3.70833 6.5 4.16667 6.5H7.5C7.95833 6.5 8.33333 6.86562 8.33333 7.3125C8.33333 7.75938 7.95833 8.125 7.5 8.125H4.16667C3.70833 8.125 3.33333 7.75938 3.33333 7.3125ZM10 10.9688C10.4583 10.9688 10.8333 11.3344 10.8333 11.7812V12.6598C11.276 12.7207 11.7031 12.8172 12.0885 12.9187C12.5313 13.0355 12.7969 13.4773 12.6771 13.9141C12.5573 14.3508 12.1042 14.6047 11.6563 14.4879C11.0781 14.3355 10.5104 14.2238 9.98438 14.2188C9.54688 14.2137 9.07813 14.3102 8.75521 14.498C8.45833 14.6707 8.33333 14.8688 8.33333 15.148C8.33333 15.3359 8.40104 15.4781 8.71354 15.6609C9.07292 15.8691 9.57812 16.0215 10.2344 16.2145L10.2604 16.2195C10.849 16.3922 11.5781 16.6055 12.151 16.9609C12.7813 17.3469 13.3177 17.9613 13.3333 18.9008C13.349 19.8809 12.8333 20.5918 12.1406 21.0133C11.7396 21.257 11.2865 21.3992 10.8333 21.4754V22.3438C10.8333 22.7906 10.4583 23.1562 10 23.1562C9.54167 23.1562 9.16667 22.7906 9.16667 22.3438V21.4398C8.58333 21.3332 8.03646 21.1504 7.55729 20.9879C7.44792 20.9523 7.33854 20.9168 7.23438 20.8813C6.79688 20.7391 6.5625 20.277 6.70833 19.8555C6.85417 19.434 7.32813 19.2004 7.76042 19.3426C7.89063 19.3832 8.01042 19.4238 8.13021 19.4645C8.83854 19.698 9.41146 19.891 10.0208 19.9062C10.4948 19.9215 10.9531 19.8199 11.2552 19.6371C11.5208 19.4746 11.6667 19.2664 11.6615 18.9262C11.6562 18.6926 11.5677 18.5301 11.2604 18.3371C10.9062 18.1187 10.401 17.9613 9.75 17.7684L9.66667 17.743C9.09375 17.5754 8.40104 17.3723 7.85417 17.0473C7.22917 16.6816 6.67708 16.0875 6.67188 15.1531C6.66667 14.168 7.23438 13.4875 7.91146 13.0965C8.30208 12.873 8.73438 12.7309 9.16667 12.6547V11.7812C9.16667 11.3344 9.54167 10.9688 10 10.9688Z" fill="#4911C3"/>
</svg>
