<svg width="22" height="28" viewBox="0 0 22 28" fill="none" xmlns="http://www.w3.org/2000/svg">
<path d="M20 0H2C1.46973 0.000529477 0.961329 0.211413 0.586371 0.586371C0.211413 0.961329 0.000529477 1.46973 0 2V27C0 27.2652 0.105357 27.5196 0.292893 27.7071C0.48043 27.8946 0.734784 28 1 28H2C2.15526 28.0001 2.3084 27.964 2.44727 27.8945C2.58613 27.8251 2.70691 27.7243 2.8 27.6L5 24.667L7.2 27.6C7.29709 27.7183 7.41919 27.8136 7.55753 27.879C7.69586 27.9444 7.84698 27.9783 8 27.9783C8.15302 27.9783 8.30414 27.9444 8.44247 27.879C8.58081 27.8136 8.70291 27.7183 8.8 27.6L11 24.667L13.2 27.6C13.2971 27.7183 13.4192 27.8136 13.5575 27.879C13.6959 27.9444 13.847 27.9783 14 27.9783C14.153 27.9783 14.3041 27.9444 14.4425 27.879C14.5808 27.8136 14.7029 27.7183 14.8 27.6L17 24.667L19.2 27.6C19.2931 27.7242 19.4139 27.825 19.5528 27.8944C19.6916 27.9639 19.8448 28 20 28H21C21.2652 28 21.5196 27.8946 21.7071 27.7071C21.8946 27.5196 22 27.2652 22 27V2C21.9995 1.46973 21.7886 0.961329 21.4136 0.586371C21.0387 0.211413 20.5303 0.000529477 20 0ZM20 25.333L17.8 22.4C17.7029 22.2817 17.5808 22.1864 17.4425 22.121C17.3041 22.0556 17.153 22.0217 17 22.0217C16.847 22.0217 16.6959 22.0556 16.5575 22.121C16.4192 22.1864 16.2971 22.2817 16.2 22.4L14 25.333L11.8 22.4C11.7029 22.2817 11.5808 22.1864 11.4425 22.121C11.3041 22.0556 11.153 22.0217 11 22.0217C10.847 22.0217 10.6959 22.0556 10.5575 22.121C10.4192 22.1864 10.2971 22.2817 10.2 22.4L8 25.333L5.8 22.4C5.70291 22.2817 5.58081 22.1864 5.44247 22.121C5.30414 22.0556 5.15302 22.0217 5 22.0217C4.84698 22.0217 4.69586 22.0556 4.55753 22.121C4.41919 22.1864 4.29709 22.2817 4.2 22.4L2 25.333V2H20V25.333Z" fill="#4911C3"/>
</svg>
