<svg width="32" height="27" viewBox="0 0 32 27" fill="none" xmlns="http://www.w3.org/2000/svg">
<path d="M30 8.68L28 2.68C27.9304 2.47302 27.795 2.2945 27.6144 2.17172C27.4339 2.04893 27.2181 1.98862 27 2H5C4.78194 1.98862 4.56614 2.04893 4.38557 2.17172C4.205 2.2945 4.06958 2.47302 4 2.68L2 8.68C1.98559 8.78618 1.98559 8.89382 2 9V15C2 15.2652 2.10536 15.5196 2.2929 15.7071C2.48043 15.8946 2.73479 16 3 16H4V26H6V16H12V26H28V16H29C29.2652 16 29.5196 15.8946 29.7071 15.7071C29.8946 15.5196 30 15.2652 30 15V9C30.0144 8.89382 30.0144 8.78618 30 8.68ZM26 24H14V16H26V24ZM28 14H24V10H22V14H17V10H15V14H10V10H8V14H4V9.16L5.72 4H26.28L28 9.16V14Z" fill="#4911C3"/>
<path d="M30.4955 8.61278L30.4892 8.56634L30.4743 8.52189L28.4743 2.52189L28.4739 2.52068C28.3696 2.21021 28.1665 1.94244 27.8956 1.75825C27.6287 1.57676 27.3105 1.48627 26.9883 1.5H5.01173C4.68951 1.48627 4.37131 1.57676 4.10441 1.75825C3.83356 1.94243 3.63043 2.21021 3.52606 2.52068L3.52566 2.52189L1.52566 8.52189L1.51084 8.56634L1.50454 8.61278C1.48573 8.75144 1.48421 8.89186 1.5 9.0308V15C1.5 15.3978 1.65804 15.7794 1.93934 16.0607C2.22065 16.342 2.60218 16.5 3 16.5H3.5V26V26.5H4H6H6.5V26V16.5H11.5V26V26.5H12H28H28.5V26V16.5H29C29.3978 16.5 29.7794 16.342 30.0607 16.0607C30.342 15.7794 30.5 15.3978 30.5 15V9.0308C30.5158 8.89186 30.5143 8.75144 30.4955 8.61278ZM27.5 13.5H24.5V10V9.5H24H22H21.5V10V13.5H17.5V10V9.5H17H15H14.5V10V13.5H10.5V10V9.5H10H8H7.5V10V13.5H4.5V9.24114L6.08038 4.5H25.9196L27.5 9.24114V13.5ZM25.5 23.5H14.5V16.5H25.5V23.5Z" stroke="#1BCED8" stroke-opacity="0.1"/>
</svg>
