<?xml version="1.0" standalone="no"?>
<!DOCTYPE svg PUBLIC "-//W3C//DTD SVG 1.1//EN" "http://www.w3.org/Graphics/SVG/1.1/DTD/svg11.dtd" >
<svg>
<metadata>
Created by FontForge 20090622 at Mon May  8 15:10:10 2017
 By deploy user
Copyright &#194;&#169; 2013 by Type Dynamic. All rights reserved.
</metadata>
<defs>
<font id="Elysio-Light" horiz-adv-x="474" >
  <font-face 
    font-family="Elysio Light"
    font-weight="300"
    font-stretch="normal"
    units-per-em="1000"
    panose-1="0 0 4 0 0 0 0 0 0 0"
    ascent="753"
    descent="-247"
    x-height="506"
    cap-height="748"
    bbox="-128 -268 1024 1033"
    underline-thickness="50"
    underline-position="-50"
    unicode-range="U+000D-U+FB02"
  />
<missing-glyph horiz-adv-x="687" 
d="M598 748v-748h-510v748h510zM524 707h-360l180 -295zM132 675v-603l186 302zM555 672l-184 -298l184 -298v596zM344 336l-179 -295h359z" />
    <glyph glyph-name="fi" unicode="fi" horiz-adv-x="478" 
d="M232 773q25 0 49 -7l-4 -50q-20 7 -40 7q-80 0 -80 -93v-124h107v-48h-107v-458h-56v458h-85v48h85v122q0 71 34.5 108t96.5 37zM377 653q-17 0 -28 11t-11 27q0 26 24.5 36.5t41.5 -8.5q19 -19 9 -42.5t-36 -23.5zM404 506v-506h-56v506h56z" />
    <glyph glyph-name="f_j" unicode="fj" horiz-adv-x="478" 
d="M232 773q25 0 49 -7l-4 -50q-20 7 -40 7q-80 0 -80 -93v-124h107v-48h-107v-458h-56v458h-85v48h85v122q0 71 34.5 108t96.5 37zM377 653q-17 0 -28 11t-11 27q0 26 24.5 36.5t41.5 -8.5q19 -19 9 -42.5t-36 -23.5zM349 506h56v-616q0 -71 -34.5 -107.5t-96.5 -36.5
q-19 0 -57 8l9 50q22 -8 43 -8q80 0 80 92v618z" />
    <glyph glyph-name=".notdef" horiz-adv-x="687" 
d="M598 748v-748h-510v748h510zM524 707h-360l180 -295zM132 675v-603l186 302zM555 672l-184 -298l184 -298v596zM344 336l-179 -295h359z" />
    <glyph glyph-name=".null" horiz-adv-x="0" 
 />
    <glyph glyph-name="nonmarkingreturn" horiz-adv-x="333" 
 />
    <glyph glyph-name="CR" unicode="&#xd;" horiz-adv-x="600" 
 />
    <glyph glyph-name="space" unicode=" " horiz-adv-x="191" 
 />
    <glyph glyph-name="exclam" unicode="!" horiz-adv-x="231" 
d="M146 748v-559h-62v559h62zM86 61q16 20 39.5 11.5t29.5 -30t-11 -39.5q-12 -12 -29 -12t-29 12t-12 29t12 29z" />
    <glyph glyph-name="quotedbl" unicode="&#x22;" horiz-adv-x="288" 
d="M112 736l-8 -204h-49l-8 204h65zM240 736l-8 -204h-49l-8 204h65z" />
    <glyph glyph-name="numbersign" unicode="#" horiz-adv-x="497" 
d="M412 748l-31 -217h101l-5 -46h-101l-32 -222h101l-5 -46h-101l-30 -217h-47l30 217h-129l-31 -217h-47l31 217h-101l5 46h101l31 222h-100l6 46h100l30 217h47l-30 -217h129l31 217h47zM329 485h-130l-31 -222h130z" />
    <glyph glyph-name="dollar" unicode="$" horiz-adv-x="525" 
d="M462 202q0 -86 -47 -141.5t-127 -66.5v-112h-47v109q-114 3 -194 61l9 60q83 -64 190 -64q72 0 114 41t42 112q0 78 -45 109q-27 19 -46 26q-18 8 -65 24l-23.5 8l-22.5 8t-15 6q-22 10 -49 25q-38 24 -54.5 57t-19.5 92q0 87 47.5 140.5t131.5 59.5v109h47v-109
q70 -4 138 -45l-8 -58q-71 48 -154 48q-68 0 -105 -39t-37 -106q0 -68 42 -97q34 -23 99 -45l16 -5q27 -9 62 -23q19 -7 49 -26q37 -24 52.5 -58.5t19.5 -99.5z" />
    <glyph glyph-name="percent" unicode="%" horiz-adv-x="753" 
d="M309 624v-107q0 -61 -33.5 -97t-92.5 -36t-93 36t-34 97v107q0 61 34 97t93 36t92.5 -36t33.5 -97zM580 748l-355 -748h-52l355 748h52zM183 714q-39 0 -60.5 -25.5t-21.5 -68.5v-99q0 -43 22 -68.5t60 -25.5q38 1 59.5 26t21.5 68v99q0 43 -21.5 68.5t-59.5 25.5z
M696 232v-108q0 -61 -33.5 -97t-92.5 -36t-93 36.5t-34 96.5v108q0 60 34 96t93 36t92.5 -35.5t33.5 -96.5zM570 321q-39 0 -60.5 -25.5t-21.5 -68.5v-99q0 -43 21.5 -68.5t60.5 -25.5q38 0 59.5 25.5t21.5 68.5v99q0 43 -21.5 68.5t-59.5 25.5z" />
    <glyph glyph-name="ampersand" unicode="&#x26;" horiz-adv-x="544" 
d="M247 757q32 0 62 -6l-8 -53q-24 6 -50 6q-108 0 -108 -124v-28q0 -58 31.5 -89.5t82.5 -31.5h85v205h54v-205h122v-53h-122v-272q0 -28 17 -44t47 -16t54 10l6 -53q-35 -11 -67 -11q-81 0 -98 63q-16 -29 -49.5 -46.5t-77.5 -17.5q-77 0 -122 51t-45 145v33q0 75 32 123
t86 64q-95 35 -95 148v28q0 174 163 174zM342 129v249h-96q-56 0 -91 -41.5t-35 -114.5v-30q0 -70 33 -108t86 -38q43 0 73 24.5t30 58.5z" />
    <glyph glyph-name="quotesingle" unicode="'" horiz-adv-x="160" 
d="M113 736l-9 -204h-48l-9 204h66z" />
    <glyph glyph-name="parenleft" unicode="(" horiz-adv-x="234" 
d="M163 724l49 -18q-114 -171 -114 -386q0 -214 114 -385l-49 -19q-121 181 -121 404q0 226 121 404z" />
    <glyph glyph-name="parenright" unicode=")" horiz-adv-x="234" 
d="M22 706l48 18q122 -178 122 -404q0 -225 -122 -404l-48 19q114 171 114 385q0 215 -114 386z" />
    <glyph glyph-name="asterisk" unicode="*" horiz-adv-x="295" 
d="M164 753l-1 -113l106 35l11 -31l-106 -35l66 -88l-27 -20l-66 88l-65 -89l-28 21l67 88l-106 35l11 31l106 -35l-1 113h33z" />
    <glyph glyph-name="plus" unicode="+" horiz-adv-x="546" 
d="M300 604v-209h183v-51h-183v-216h-54v216h-184v51h184v209h54z" />
    <glyph glyph-name="comma" unicode="," horiz-adv-x="186" 
d="M94 78q41 0 41 -51q0 -112 -92 -169v27q51 40 54 107h-2q-17 0 -29.5 12.5t-12.5 30.5t11.5 30.5t29.5 12.5z" />
    <glyph glyph-name="hyphen" unicode="-" horiz-adv-x="300" 
d="M266 288v-53h-233v53h233z" />
    <glyph glyph-name="period" unicode="." horiz-adv-x="190" 
d="M94 79q19 0 32 -12.5t13 -31.5t-13 -31.5t-32 -12.5q-18 0 -30.5 12.5t-12.5 31.5t12.5 31.5t30.5 12.5z" />
    <glyph glyph-name="slash" unicode="/" horiz-adv-x="337" 
d="M325 748l-254 -815h-59l256 815h57z" />
    <glyph glyph-name="zero" unicode="0" horiz-adv-x="544" 
d="M485 503v-258q0 -119 -56.5 -186.5t-157.5 -67.5q-100 0 -156.5 67.5t-56.5 186.5v258q0 120 55.5 187t157.5 67t158 -67t56 -187zM271 702q-74 0 -113.5 -51.5t-39.5 -147.5v-258q0 -94 40 -146.5t113 -52.5q74 0 114 52.5t40 146.5v258q0 96 -39.5 147.5t-114.5 51.5z
" />
    <glyph glyph-name="one" unicode="1" horiz-adv-x="333" 
d="M256 748v-748h-59v674l-169 -137v67l177 144h51z" />
    <glyph glyph-name="two" unicode="2" horiz-adv-x="519" 
d="M250 757q92 0 145.5 -54t53.5 -145q0 -76 -28 -132q-29 -57 -93 -137l-182 -235h314v-54h-385v47l210 275q58 75 81 122q24 50 24 111q0 69 -38 107.5t-107 38.5q-79 0 -153 -48l-7 57q79 47 165 47z" />
    <glyph glyph-name="three" unicode="3" horiz-adv-x="489" 
d="M233 757q81 0 134 -50t53 -135v-22q0 -53 -27 -96t-70 -62q51 -14 81.5 -60t30.5 -112v-29q0 -92 -56 -146t-148 -54q-100 0 -173 59l9 58q68 -62 161 -62q67 0 107 39.5t40 108.5v28q0 66 -34.5 104t-92.5 38h-89v52h89q46 0 79 38q34 37 34 93v21q0 62 -36.5 97.5
t-95.5 35.5q-91 0 -153 -60l-10 58q67 58 167 58z" />
    <glyph glyph-name="four" unicode="4" horiz-adv-x="503" 
d="M358 748v-497h113v-54h-113v-197h-58v197h-267v49l267 502h58zM300 629l-205 -378h205v378z" />
    <glyph glyph-name="five" unicode="5" 
d="M404 748v-54h-271v-269h89q93 0 147.5 -55t54.5 -148v-36q0 -92 -53.5 -143.5t-144.5 -51.5q-101 0 -174 59l13 58q65 -62 157 -62q66 0 104.5 36.5t38.5 105.5v28q0 74 -42.5 114.5t-118.5 40.5h-130v377h330z" />
    <glyph glyph-name="six" unicode="6" horiz-adv-x="509" 
d="M266 454q80 0 133 -56t53 -147v-51q0 -94 -52 -152q-52 -57 -141 -57q-93 0 -142 60q-58 70 -58 195v275q0 103 56 170q57 66 147 66q94 0 165 -56l-10 -58q-62 58 -152 58q-65 0 -106 -48.5t-41 -126.5v-132q60 60 148 60zM392 199v50q0 67 -38 108.5t-96 41.5
q-47 0 -77.5 -18t-62.5 -57v-95q0 -87 37 -137q37 -46 104 -46q60 0 96.5 42t36.5 111z" />
    <glyph glyph-name="seven" unicode="7" horiz-adv-x="421" 
d="M395 748v-48l-260 -700h-62l260 696h-306v52h368z" />
    <glyph glyph-name="eight" unicode="8" horiz-adv-x="531" 
d="M453 573v-20q0 -55 -25.5 -97t-66.5 -60q45 -19 74.5 -67t29.5 -110v-24q0 -92 -52.5 -148t-146.5 -56t-147 56t-53 148v24q0 62 29 110t75 67q-42 17 -67 59t-25 98v20q0 82 51 133t137 51t136.5 -50.5t50.5 -133.5zM265 702q-58 0 -93 -36.5t-35 -95.5v-17
q0 -59 33.5 -96t94.5 -37t95 37t34 96v17q0 60 -35 96t-94 36zM125 217v-20q0 -69 37 -110t104 -41q66 0 103 41.5t37 109.5v20q0 68 -38 108.5t-102 40.5t-102.5 -40.5t-38.5 -108.5z" />
    <glyph glyph-name="nine" unicode="9" horiz-adv-x="509" 
d="M390 697q58 -70 58 -195v-275q0 -104 -57 -170q-55 -66 -146 -66q-94 0 -165 56l10 58q62 -58 152 -58q65 0 106 48.5t41 126.5v132q-60 -60 -148 -60q-81 0 -133 55q-53 56 -53 148v51q0 95 52 151q52 58 141 58q92 0 142 -60zM249 349q47 0 77.5 18t62.5 57v95
q0 87 -37 137q-37 46 -104 46q-60 0 -96.5 -42t-36.5 -111v-50q0 -67 38 -108.5t96 -41.5z" />
    <glyph glyph-name="colon" unicode=":" horiz-adv-x="190" 
d="M94 515q19 0 32 -13t13 -32q0 -18 -13 -31t-32 -13q-17 0 -30 13t-13 31q0 19 13 32t30 13zM94 79q28 2 40 -21t0 -46t-40 -21q-18 0 -30.5 12.5t-12.5 31.5t12.5 31.5t30.5 12.5z" />
    <glyph glyph-name="semicolon" unicode=";" horiz-adv-x="190" 
d="M94 426q-17 0 -30 13t-13 31q0 19 13 32t30 13q19 0 32 -13t13 -32q0 -18 -13 -31t-32 -13zM94 78q41 0 41 -51q0 -112 -92 -169v27q51 41 53 107h-1q-17 0 -30 12.5t-13 30.5t12 30.5t30 12.5z" />
    <glyph glyph-name="less" unicode="&#x3c;" horiz-adv-x="508" 
d="M473 583l2 -62l-336 -152l336 -152l-2 -62l-446 214z" />
    <glyph glyph-name="equal" unicode="=" horiz-adv-x="546" 
d="M511 512v-53h-478v53h478zM511 275v-53h-478v53h478z" />
    <glyph glyph-name="greater" unicode="&#x3e;" horiz-adv-x="508" 
d="M35 583l446 -214l-446 -214l-2 62l336 152l-336 152z" />
    <glyph glyph-name="question" unicode="?" horiz-adv-x="376" 
d="M172 758q80 0 128 -48t48 -131q0 -51 -13.5 -88t-43.5 -79l-16 -20l-30 -42q-11 -17 -22 -49q-9 -26 -9 -64v-48h-60v50q-2 27 18 95q3 8 14 26l14 20q0 1 16 22l16 20q55 73 55 155q0 61 -32.5 94.5t-89.5 33.5q-63 0 -131 -41l-7 55q67 39 145 39zM154 61
q16 20 39.5 11.5t29.5 -30t-11 -39.5q-12 -12 -29 -12t-29 12t-12 29t12 29z" />
    <glyph glyph-name="at" unicode="@" horiz-adv-x="760" 
d="M373 597q144 0 237 -98q94 -97 94 -254q0 -93 -38.5 -144t-101.5 -51q-33 0 -56.5 12.5t-29.5 33.5q-52 -52 -116 -52q-61 0 -97.5 40t-36.5 106v120q0 66 36.5 106t97.5 40q65 0 107 -47v40h44v-311q0 -21 15.5 -34t41.5 -13q43 0 67 39t24 115q0 141 -81 226
q-80 86 -207 86q-121 0 -198 -86q-76 -85 -76 -226q0 -142 76 -225q77 -84 198 -84q104 0 186 52l12 -40q-87 -54 -198 -54q-138 0 -228 97q-89 98 -89 254q0 157 88 254q89 98 229 98zM371 414q-45 0 -70.5 -28.5t-25.5 -77.5v-116q0 -49 25.5 -77.5t70.5 -28.5q52 0 95 49
v230q-25 26 -45.5 37.5t-49.5 11.5z" />
    <glyph glyph-name="A" unicode="A" horiz-adv-x="546" 
d="M307 748l217 -748h-61l-64 221h-253l-64 -221h-61l217 748h69zM273 661l-112 -385h224z" />
    <glyph glyph-name="B" unicode="B" horiz-adv-x="548" 
d="M78 0v748h200q92 0 146.5 -46.5t54.5 -130.5v-31q0 -57 -29.5 -96.5t-73.5 -53.5q54 -15 88 -59t34 -108v-37q0 -89 -60 -137.5t-165 -48.5h-195zM268 693h-131v-281h132q71 0 110.5 32t39.5 96v23q0 64 -40 97t-111 33zM270 359h-133v-304h130q82 0 126.5 34t44.5 102
v30q0 138 -168 138z" />
    <glyph glyph-name="C" unicode="C" horiz-adv-x="520" 
d="M468 700l-13 -53q-62 55 -158 55q-81 0 -130 -54.5t-49 -146.5v-250q0 -95 50 -150t133 -55q99 0 164 58l12 -55q-76 -58 -184 -58q-104 0 -170 69q-65 71 -65 193v246q0 119 65 189q65 69 169 69t176 -57z" />
    <glyph glyph-name="D" unicode="D" horiz-adv-x="585" 
d="M78 0v748h189q119 0 189 -73q71 -73 71 -201v-199q0 -129 -71 -203q-70 -72 -189 -72h-189zM264 693h-127v-638h127q96 0 149.5 58.5t53.5 163.5v196q0 104 -54 162t-149 58z" />
    <glyph glyph-name="E" unicode="E" horiz-adv-x="476" 
d="M430 748v-55h-293v-279h279v-55h-279v-304h293v-55h-352v748h352z" />
    <glyph glyph-name="F" unicode="F" horiz-adv-x="440" 
d="M419 748v-55h-282v-287h264v-55h-264v-351h-59v748h341z" />
    <glyph glyph-name="G" unicode="G" horiz-adv-x="572" 
d="M294 757q104 0 186 -59l-13 -51q-73 55 -167 55q-81 0 -132 -55q-50 -55 -50 -146v-250q0 -96 46.5 -150.5t127.5 -54.5q84 0 151 57v207h-131v55h189v-296q-49 -41 -97.5 -59.5t-112.5 -18.5q-103 0 -168 69q-65 71 -65 193v246q0 120 66 189q67 69 170 69z" />
    <glyph glyph-name="H" unicode="H" horiz-adv-x="572" 
d="M495 748v-748h-60v363h-298v-363h-59v748h59v-330h298v330h60z" />
    <glyph glyph-name="I" unicode="I" horiz-adv-x="214" 
d="M137 748v-748h-59v748h59z" />
    <glyph glyph-name="J" unicode="J" horiz-adv-x="388" 
d="M255 748h59v-548q0 -99 -48.5 -154t-133.5 -55q-67 0 -116 31l14 56q41 -32 99 -32q59 0 92.5 40t33.5 113v549z" />
    <glyph glyph-name="K" unicode="K" horiz-adv-x="505" 
d="M466 748l-210 -372l231 -376h-65l-216 346h-69v-346h-59v748h59v-347h67l199 347h63z" />
    <glyph glyph-name="L" unicode="L" horiz-adv-x="429" 
d="M137 748v-693h274v-55h-333v748h59z" />
    <glyph glyph-name="M" unicode="M" horiz-adv-x="767" 
d="M690 748v-748h-59v589l-228 -589h-40l-226 589v-589h-59v748h59l247 -642l247 642h59z" />
    <glyph glyph-name="N" unicode="N" horiz-adv-x="572" 
d="M495 748v-748h-56l-302 611v-611h-59v748h55l302 -612v612h60z" />
    <glyph glyph-name="O" unicode="O" horiz-adv-x="598" 
d="M299 757q114 0 177 -74q64 -73 64 -198v-222q0 -127 -64 -199.5t-177 -72.5t-177 72.5t-64 199.5v222q0 127 63.5 199.5t177.5 72.5zM298 702q-86 0 -133 -57.5t-47 -161.5v-218q0 -103 47.5 -161t132.5 -58q86 0 134 58t48 161v218q0 103 -47.5 161t-134.5 58z" />
    <glyph glyph-name="P" unicode="P" horiz-adv-x="510" 
d="M78 0v748h174q108 0 169 -50.5t61 -148.5v-28q0 -97 -61 -147.5t-169 -50.5h-115v-323h-59zM249 693h-112v-315h112q83 0 128.5 36t45.5 109v26q0 73 -45.5 108.5t-128.5 35.5z" />
    <glyph glyph-name="Q" unicode="Q" horiz-adv-x="598" 
d="M559 -90l-46 -38l-111 138q-47 -19 -103 -19q-114 0 -177.5 72.5t-63.5 199.5v222q0 127 63.5 199.5t177.5 72.5t177 -74q64 -73 64 -198v-222q0 -149 -87 -222zM298 46q86 0 134 58t48 161v218q0 103 -47.5 161t-134.5 58q-86 0 -133 -57.5t-47 -161.5v-218
q0 -103 47.5 -161t132.5 -58z" />
    <glyph glyph-name="R" unicode="R" horiz-adv-x="529" 
d="M501 0h-63l-160 330q-34 -2 -39 -2h-102v-328h-59v748h161q108 0 169 -49.5t61 -146.5v-28q0 -145 -133 -184zM137 693v-310h99q83 0 128 36t45 107v24q0 143 -173 143h-99z" />
    <glyph glyph-name="S" unicode="S" horiz-adv-x="511" 
d="M261 757q86 0 165 -46l-8 -58q-71 48 -154 48q-68 0 -105 -39t-37 -106q0 -68 42 -97q34 -23 99 -45l16 -5q27 -9 62 -23q19 -7 49 -26q37 -24 52.5 -58.5t19.5 -99.5q0 -98 -59 -155q-59 -56 -153 -56q-118 0 -203 61l9 60q83 -64 190 -64q72 0 114 41t42 112
q0 78 -45 109q-27 19 -46 26q-18 8 -65 24l-23.5 8l-22.5 8t-15 6q-22 10 -49 25q-38 24 -54.5 57t-19.5 92q0 93 53 147t146 54z" />
    <glyph glyph-name="T" unicode="T" horiz-adv-x="491" 
d="M477 748v-55h-203v-693h-59v693h-202v55h464z" />
    <glyph glyph-name="U" unicode="U" horiz-adv-x="569" 
d="M436 748h59v-533q0 -108 -55.5 -166t-155.5 -58q-99 0 -155 58t-56 166v533h59v-530q0 -84 40 -128t112 -44t112 44t40 128v530z" />
    <glyph glyph-name="V" unicode="V" horiz-adv-x="516" 
d="M508 748l-217 -748h-66l-217 748h61l189 -652l189 652h61z" />
    <glyph glyph-name="W" unicode="W" horiz-adv-x="843" 
d="M831 748l-185 -748h-66l-159 621l-161 -621h-62l-185 748h61l157 -635l163 635h53l164 -635l158 635h62z" />
    <glyph glyph-name="X" unicode="X" horiz-adv-x="511" 
d="M487 748l-189 -371l193 -377h-64l-171 331l-170 -331h-66l193 377l-189 371h65l167 -325l167 325h64z" />
    <glyph glyph-name="Y" unicode="Y" horiz-adv-x="489" 
d="M484 748l-210 -447v-301h-59v301l-210 447h63l176 -377l177 377h63z" />
    <glyph glyph-name="Z" unicode="Z" 
d="M427 748v-47l-322 -646h333v-55h-401v47l322 646h-316v55h384z" />
    <glyph glyph-name="bracketleft" unicode="[" horiz-adv-x="243" 
d="M220 718v-47h-103v-701h103v-47h-159v795h159z" />
    <glyph glyph-name="backslash" unicode="\" horiz-adv-x="337" 
d="M70 748l255 -815h-59l-254 815h58z" />
    <glyph glyph-name="bracketright" unicode="]" horiz-adv-x="243" 
d="M183 718v-795h-160v47h104v701h-104v47h160z" />
    <glyph glyph-name="asciicircum" unicode="^" horiz-adv-x="534" 
d="M267 760l234 -386h-63l-171 296l-172 -296h-63z" />
    <glyph glyph-name="underscore" unicode="_" horiz-adv-x="556" 
d="M522 0v-53h-489v53h489z" />
    <glyph glyph-name="grave" unicode="`" horiz-adv-x="195" 
d="M86 750l90 -157h-46l-108 157h64z" />
    <glyph glyph-name="a" unicode="a" horiz-adv-x="487" 
d="M358 455v51h54v-506h-53v53q-57 -62 -136 -62q-77 0 -122 51t-45 135v151q0 85 45 136t122 51t135 -60zM234 465q-57 0 -89.5 -37t-32.5 -100v-151q0 -63 32.5 -99.5t89.5 -36.5q62 0 122 64v295q-60 65 -122 65z" />
    <glyph glyph-name="b" unicode="b" horiz-adv-x="487" 
d="M75 765h56v-308q58 58 134 58t121 -51t45 -136v-151q0 -84 -45 -135t-121 -51q-80 0 -137 62v-53h-53v765zM254 465q-35 0 -62.5 -15.5t-60.5 -49.5v-295q34 -34 60.5 -49t62.5 -15q57 0 89 36.5t32 99.5v151q0 63 -32 100t-89 37z" />
    <glyph glyph-name="c" unicode="c" horiz-adv-x="388" 
d="M229 515q71 0 126 -39l-10 -49q-52 38 -109 38q-55 0 -89.5 -39.5t-34.5 -101.5v-142q0 -62 35.5 -101.5t90.5 -39.5q64 0 114 38l9 -49q-55 -39 -130 -39q-77 0 -126 52t-49 136v150q0 81 48 134q49 52 125 52z" />
    <glyph glyph-name="d" unicode="d" horiz-adv-x="487" 
d="M412 765v-765h-53v53q-57 -62 -136 -62q-77 0 -122 51t-45 135v151q0 85 45 136t122 51q75 0 133 -58v308h56zM234 465q-57 0 -89.5 -37t-32.5 -100v-151q0 -63 32.5 -99.5t89.5 -36.5q62 0 122 64v295q-60 65 -122 65z" />
    <glyph glyph-name="e" unicode="e" horiz-adv-x="452" 
d="M395 240h-283v-59q0 -63 36.5 -101.5t98.5 -38.5q75 0 134 43l12 -49q-70 -44 -153 -44t-134 51q-50 53 -50 137v149q0 87 45.5 137t125.5 50q82 0 125 -50t43 -140v-85zM227 465q-54 0 -84.5 -35.5t-30.5 -98.5v-43h231v43q0 134 -116 134z" />
    <glyph glyph-name="f" unicode="f" horiz-adv-x="271" 
d="M232 773q26 0 57 -9l-8 -50q-24 8 -44 8q-80 0 -80 -92v-124h107v-50h-107v-456h-56v456h-85v50h85v122q0 71 34.5 108t96.5 37z" />
    <glyph glyph-name="g" unicode="g" horiz-adv-x="487" 
d="M359 454v52h53v-578q0 -82 -51 -132q-52 -50 -132 -50q-93 0 -160 45l15 51q62 -47 139 -47q60 0 96.5 36.5t36.5 99.5v117q-58 -57 -133 -57q-77 0 -122 51t-45 135v151q0 85 45 136t122 51q78 0 136 -61zM234 465q-57 0 -89.5 -37t-32.5 -100v-151q0 -63 32.5 -99.5
t89.5 -36.5q62 0 122 64v295q-60 65 -122 65z" />
    <glyph glyph-name="h" unicode="h" 
d="M75 765h56v-310q54 60 130 60q68 0 105.5 -44t37.5 -122v-349h-56v341q0 120 -99 120q-64 0 -118 -66v-395h-56v765z" />
    <glyph glyph-name="i" unicode="i" horiz-adv-x="204" 
d="M74 719q12 12 28 12t27 -12q12 -12 12 -28t-12 -27q-11 -11 -27 -11t-28 11q-11 11 -11 27t11 28zM130 506v-506h-56v506h56z" />
    <glyph glyph-name="j" unicode="j" horiz-adv-x="204" 
d="M74 719q12 12 28 12t27 -12q12 -12 12 -28t-12 -27q-11 -11 -27 -11t-28 11q-11 11 -11 27t11 28zM75 506h56v-616q0 -71 -34.5 -107.5t-96.5 -36.5q-19 0 -57 8l8 50q22 -8 43 -8q81 0 81 92v618z" />
    <glyph glyph-name="k" unicode="k" horiz-adv-x="416" 
d="M131 765v-485h44l155 226h61l-166 -247l180 -259h-63l-165 230h-46v-230h-56v765h56z" />
    <glyph glyph-name="l" unicode="l" horiz-adv-x="206" 
d="M131 765v-765h-56v765h56z" />
    <glyph glyph-name="m" unicode="m" horiz-adv-x="744" 
d="M528 515q69 0 107 -44t38 -122v-349h-56v341q0 120 -98 120q-65 0 -119 -69q3 -21 3 -43v-349h-56v341q0 120 -99 120q-63 0 -117 -66v-395h-56v506h53v-52q57 61 131 61q88 0 124 -72q63 72 145 72z" />
    <glyph glyph-name="n" unicode="n" 
d="M259 515q68 0 106.5 -45t38.5 -121v-349h-56v342q0 57 -25.5 88t-73.5 31q-63 0 -118 -66v-395h-56v506h53v-53q59 62 131 62z" />
    <glyph glyph-name="o" unicode="o" horiz-adv-x="470" 
d="M413 328v-151q0 -84 -48.5 -135t-129.5 -51q-83 0 -131 50.5t-48 135.5v151q0 85 48 136t131 51t130.5 -51t47.5 -136zM112 327v-148q0 -64 33 -101.5t90 -37.5t90 37.5t33 101.5v148q0 63 -33 100.5t-90 37.5t-90 -37.5t-33 -100.5z" />
    <glyph glyph-name="p" unicode="p" horiz-adv-x="487" 
d="M265 515q76 0 121 -51t45 -136v-151q0 -84 -45 -135t-121 -51q-75 0 -134 57v-293h-56v751h53v-53q59 62 137 62zM254 465q-36 0 -63.5 -15.5t-59.5 -49.5v-294q32 -34 59.5 -49.5t63.5 -15.5q57 0 89 36.5t32 100.5v150q0 64 -32 100.5t-89 36.5z" />
    <glyph glyph-name="q" unicode="q" horiz-adv-x="487" 
d="M223 515q77 0 136 -62v53h53v-751h-56v293q-58 -57 -133 -57q-77 0 -122 51t-45 135v151q0 85 45 136t122 51zM234 465q-57 0 -89.5 -37t-32.5 -100v-150q0 -63 32.5 -100t89.5 -37q37 0 64 15.5t58 49.5v294q-31 34 -58 49.5t-64 15.5z" />
    <glyph glyph-name="r" unicode="r" horiz-adv-x="287" 
d="M261 509v-54q-68 -1 -130 -63v-392h-56v506h53v-59q56 59 133 62z" />
    <glyph glyph-name="s" unicode="s" horiz-adv-x="405" 
d="M209 515q66 0 125 -32l-8 -50q-58 33 -114 33q-47 0 -73.5 -25t-26.5 -67q1 -47 32 -66q25 -10 27 -11q3 -1 6.5 -2t5.5 -2l2 -1l35 -9q74 -21 106 -50t32 -95q0 -68 -43 -107.5t-113 -39.5q-90 0 -155 45l8 51q68 -47 143 -47q49 0 77.5 25.5t28.5 72.5q0 45 -23 65
q-22 19 -83 36q-72 20 -106 46q-34 27 -34 89q0 64 40 102.5t111 38.5z" />
    <glyph glyph-name="t" unicode="t" horiz-adv-x="291" 
d="M268 458h-115l-2 -331q0 -45 15.5 -64.5t48.5 -19.5q28 0 52 10v-50q-35 -11 -66 -11q-106 0 -106 120l1 346h-79v48h79l1 179h57l-1 -179h115v-48z" />
    <glyph glyph-name="u" unicode="u" 
d="M398 506v-506h-52v53q-59 -62 -131 -62q-68 0 -106 45t-38 121v349h55v-342q0 -58 25.5 -89t73.5 -31q63 0 118 67v395h55z" />
    <glyph glyph-name="v" unicode="v" horiz-adv-x="423" 
d="M402 506l-160 -506h-61l-160 506h60l130 -427l131 427h60z" />
    <glyph glyph-name="w" unicode="w" horiz-adv-x="727" 
d="M706 506l-154 -506h-57l-131 415l-132 -415h-57l-154 506h59l125 -418l132 418h53l132 -418l125 418h59z" />
    <glyph glyph-name="x" unicode="x" horiz-adv-x="438" 
d="M398 506l-137 -247l143 -259h-62l-122 217l-122 -217h-62l143 259l-136 247h61l116 -208l116 208h62z" />
    <glyph glyph-name="y" unicode="y" 
d="M343 506h55v-577q0 -83 -51 -133q-50 -50 -125 -50q-84 0 -149 41l14 50q63 -42 131 -42q54 0 89.5 38t35.5 98v119q-57 -59 -128 -59q-68 0 -106 45t-38 121v349h55v-342q0 -58 25.5 -89t73.5 -31q63 0 118 67v395z" />
    <glyph glyph-name="z" unicode="z" horiz-adv-x="355" 
d="M321 506v-41l-227 -415h234v-50h-297v40l225 415h-223v51h288z" />
    <glyph glyph-name="braceleft" unicode="{" horiz-adv-x="225" 
d="M201 717v-47h-6q-105 0 -69 -178q14 -75 11 -110q-1 -51 -47 -62q46 -11 47 -62q3 -34 -11 -110q-36 -178 69 -178h6v-47h-6q-81 0 -114.5 58.5t-9.5 163.5q16 72 13 107q-1 45 -54 45h-8v47h8q53 0 54 43q3 36 -13 109q-24 105 9.5 163t114.5 58h6z" />
    <glyph glyph-name="bar" unicode="|" horiz-adv-x="236" 
d="M145 748v-815h-55v815h55z" />
    <glyph glyph-name="braceright" unicode="}" horiz-adv-x="225" 
d="M23 670v47h6q82 0 115 -58t9 -163q-14 -64 -15 -92q0 -60 56 -60h8v-47h-8q-51 0 -55 -44q-1 -42 14 -108q24 -106 -9 -164t-115 -58h-6v47h6q104 0 70 178q-17 60 -12 111q6 50 47 61q-41 11 -47 61q-5 51 12 111q34 178 -70 178h-6z" />
    <glyph glyph-name="asciitilde" unicode="~" horiz-adv-x="532" 
d="M479 427l26 -36q-33 -43 -65.5 -61.5t-79.5 -18.5q-52 0 -105 32q-53 33 -85 33q-37 0 -62 -13.5t-55 -47.5l-27 37q34 42 65 59.5t74 17.5q39 0 92 -33q53 -32 98 -32q40 0 66.5 14.5t57.5 48.5z" />
    <glyph glyph-name="exclamdown" unicode="&#xa1;" horiz-adv-x="231" 
d="M145 438q-12 -12 -29 -12t-29 12q-12 13 -12 30t12 29t29 12t29 -12t12 -29t-12 -30zM85 -248v559h62v-559h-62z" />
    <glyph glyph-name="cent" unicode="&#xa2;" horiz-adv-x="386" 
d="M351 79l10 -49q-50 -35 -113 -39v-107h-47v109q-65 10 -105 60.5t-40 125.5v150q0 74 39.5 124t105.5 60v116h47v-115q58 -3 107 -38l-11 -49q-52 38 -109 38q-54 0 -88.5 -39.5t-34.5 -101.5v-142q0 -62 35.5 -101.5t90.5 -39.5q63 0 113 38z" />
    <glyph glyph-name="sterling" unicode="&#xa3;" horiz-adv-x="458" 
d="M111 53h317v-53h-386v49q45 32 62.5 71.5t13.5 102.5l-8 116h-79v47h76l-12 170q-7 97 33 149t126 52q73 0 113 -44.5t41 -120.5h-59q0 51 -25.5 82t-70.5 31q-112 0 -102 -148l11 -171h139v-47h-135l7 -111q5 -61 -9.5 -101.5t-52.5 -73.5z" />
    <glyph glyph-name="currency" unicode="&#xa4;" horiz-adv-x="581" 
d="M465 266v-27q0 -70 -31 -114l118 -119l-36 -35l-117 117q-43 -30 -109 -30q-65 0 -107 30l-118 -117l-36 35l119 119q-31 44 -31 114v27q0 71 31 115l-119 119l36 35l119 -118q42 30 106 30q66 0 108 -30l118 118l36 -35l-118 -119q31 -44 31 -115zM164 268v-30
q0 -66 33.5 -102.5t93.5 -36.5t93.5 36.5t33.5 102.5v30q0 66 -33.5 102t-93.5 36t-93.5 -36t-33.5 -102z" />
    <glyph glyph-name="yen" unicode="&#xa5;" horiz-adv-x="489" 
d="M485 748l-196 -416h126v-37h-141v-103h141v-37h-141v-155h-59v155h-142v37h142v103h-142v37h127l-195 416h64l176 -377l176 377h64z" />
    <glyph glyph-name="brokenbar" unicode="&#xa6;" horiz-adv-x="236" 
d="M145 748v-319h-55v319h55zM145 252v-319h-55v319h55z" />
    <glyph glyph-name="section" unicode="&#xa7;" horiz-adv-x="439" 
d="M325 243q65 -35 65 -122q0 -68 -47 -108.5t-123 -40.5q-102 0 -169 45l7 51q69 -48 157 -48q54 0 86.5 27t32.5 74q0 51 -27 74t-94 39l-47 12l-38 13q-24 9 -36 17q-53 42 -47 100q0 80 74 121q-55 34 -55 117q0 65 41 104t113 39q69 0 128 -32l-6 -50q-56 33 -117 33
q-48 0 -75.5 -26t-27.5 -68q0 -55 31 -77q24 -17 74 -32l56 -15q15 -4 44 -17q28 -13 38 -25q31 -31 31 -86q0 -78 -69 -119zM98 382q0 -49 29 -69q26 -17 94 -35l14 -3q33 -9 45 -13q61 28 61 94q0 23 -7 39q-13 27 -33 37q-18 10 -34 14l-19 6q-4 2 -22 6.5l-22 5.5
q-6 2 -24 7.5t-20 5.5q-62 -29 -62 -95z" />
    <glyph glyph-name="dieresis" unicode="&#xa8;" horiz-adv-x="225" 
d="M90 676q0 -21 -18 -29.5t-36 0t-18 29.5q0 22 18 31t36 0t18 -31zM207 676q2 -21 -16.5 -29.5t-37.5 0t-18 29.5q-1 28 27 34t41 -14q5 -8 4 -20z" />
    <glyph glyph-name="copyright" unicode="&#xa9;" horiz-adv-x="576" 
d="M289 758q108 0 181 -73q74 -72 74 -178q0 -105 -74 -179q-74 -72 -181 -72q-109 0 -183 72q-74 74 -74 179q0 107 74 179t183 72zM452 669q-66 66 -164 66t-165 -66q-66 -65 -66 -162t66 -163q68 -65 165 -65t164 65q67 66 67 163q0 98 -67 162zM288 663q55 0 88 -31
t35 -81h-34q-3 36 -26.5 59.5t-62.5 23.5q-44 0 -72 -32.5t-28 -83.5v-23q0 -51 27.5 -83t72.5 -32q40 0 63.5 23t26.5 58h33q-2 -49 -34.5 -79.5t-88.5 -30.5q-60 0 -97 40t-37 104v23q0 64 37 104.5t97 40.5z" />
    <glyph glyph-name="ordfeminine" unicode="&#xaa;" horiz-adv-x="393" 
d="M185 755q64 0 108 -47v40h45v-405h-45v41q-45 -47 -108 -47q-61 0 -97.5 40.5t-36.5 108.5v120q0 68 36.5 108.5t97.5 40.5zM99 606v-120q0 -49 25.5 -77.5t70.5 -28.5q50 0 96 49v235q-49 48 -96 48q-45 0 -70.5 -28.5t-25.5 -77.5z" />
    <glyph glyph-name="guillemotleft" unicode="&#xab;" horiz-adv-x="404" 
d="M150 462l52 -21l-122 -189l122 -190l-52 -21l-135 211zM329 462l52 -21l-123 -189l123 -190l-52 -21l-135 211z" />
    <glyph glyph-name="logicalnot" unicode="&#xac;" horiz-adv-x="532" 
d="M484 396v-221h-45v176h-398v45h443z" />
    <glyph glyph-name="registered" unicode="&#xae;" horiz-adv-x="576" 
d="M289 758q108 0 181 -73q74 -72 74 -178q0 -105 -74 -179q-74 -72 -181 -72q-109 0 -183 72q-74 74 -74 179q0 107 74 179t183 72zM123 344q68 -65 165 -65t164 65q67 66 67 163q0 98 -67 162q-66 66 -164 66t-165 -66q-66 -65 -66 -162t66 -163zM398 575v-10
q0 -59 -54 -78l70 -134h-36l-66 127l-17 -1h-75v-126h-33v306h108q48 0 75.5 -21.5t27.5 -62.5zM220 631v-124h73q33 0 52.5 15.5t19.5 42.5v9q0 27 -19.5 42t-52.5 15h-73z" />
    <glyph glyph-name="overscore" unicode="&#xaf;" horiz-adv-x="240" 
d="M225 687v-44h-210v44h210z" />
    <glyph glyph-name="degree" unicode="&#xb0;" horiz-adv-x="289" 
d="M144 756q54 0 85 -33.5t31 -93.5v-36q0 -60 -31 -93.5t-85 -33.5t-85 33.5t-31 93.5v36q0 60 31 93.5t85 33.5zM143 720q-35 0 -55 -24t-20 -67v-35q0 -44 20 -68t55 -24q36 0 57 24.5t21 67.5v35q0 43 -21 67t-57 24z" />
    <glyph glyph-name="plusminus" unicode="&#xb1;" horiz-adv-x="546" 
d="M300 699v-209h211v-52h-211v-215h-55v215h-212v52h212v209h55zM511 154v-53h-478v53h478z" />
    <glyph glyph-name="acute" unicode="&#xb4;" horiz-adv-x="195" 
d="M173 750l-108 -157h-46l90 157h64z" />
    <glyph glyph-name="paragraph" unicode="&#xb6;" horiz-adv-x="576" 
d="M553 748v-43h-68v-772h-45v772h-114v-772h-45v451h-11q-104 0 -162.5 43.5t-58.5 125.5v27q0 81 59 124.5t162 43.5h283z" />
    <glyph glyph-name="middot" unicode="&#xb7;" horiz-adv-x="190" 
d="M94 325q19 0 32 -12.5t13 -31.5t-13 -31.5t-32 -12.5q-18 0 -30.5 12.5t-12.5 31.5t12.5 31.5t30.5 12.5z" />
    <glyph glyph-name="cedilla" unicode="&#xb8;" horiz-adv-x="274" 
d="M112 6h31l-14 -68q43 -1 70.5 -23t27.5 -61q0 -36 -28.5 -59t-69.5 -23q-49 0 -83 25l12 32q26 -23 66 -23q26 0 42.5 13.5t16.5 36.5q0 26 -20 40t-53 14q-3 0 -21 -2z" />
    <glyph glyph-name="ordmasculine" unicode="&#xba;" horiz-adv-x="390" 
d="M194 755q67 0 106 -40.5t39 -108.5v-120q0 -69 -39 -109t-106 -40q-66 0 -104.5 40.5t-38.5 108.5v120q0 68 38.5 108.5t104.5 40.5zM195 714q-45 0 -70.5 -29.5t-25.5 -80.5v-117q0 -50 25.5 -79.5t70.5 -29.5q46 0 71.5 29t25.5 80v117q0 51 -26 80.5t-71 29.5z" />
    <glyph glyph-name="guillemotright" unicode="&#xbb;" horiz-adv-x="404" 
d="M74 462l135 -210l-135 -211l-52 21l122 190l-122 189zM253 462l135 -210l-135 -211l-52 21l122 190l-122 189z" />
    <glyph glyph-name="onequarter" unicode="&#xbc;" horiz-adv-x="594" 
d="M512 411v-270h59v-40h-59v-101h-43v101h-146v36l146 274h43zM469 333l-103 -192h103v192zM154 733v-411h-43v357l-90 -69v48l95 75h38zM486 748l-355 -748h-58l355 748h58z" />
    <glyph glyph-name="onehalf" unicode="&#xbd;" horiz-adv-x="651" 
d="M497 416q52 0 83 -30t31 -81q0 -41 -15 -71t-51 -75l-93 -119h164v-40h-218v34l115 147q55 69 55 121q0 34 -19.5 54t-54.5 20q-43 0 -84 -26l-5 43q41 23 92 23zM154 733v-411h-43v357l-90 -69v48l95 75h38zM486 748l-355 -748h-58l355 748h58z" />
    <glyph glyph-name="threequarters" unicode="&#xbe;" horiz-adv-x="675" 
d="M134 738q49 0 78.5 -28.5t29.5 -76.5v-11q0 -29 -14 -52t-35 -33q26 -9 42 -33.5t16 -58.5v-15q0 -52 -32 -82.5t-85 -30.5q-54 0 -97 30l6 43q41 -33 88 -33q35 0 56 20t21 55v14q0 33 -17.5 51.5t-47.5 18.5h-49v39h49q22 0 39 19t17 46v11q0 30 -18.5 48.5t-48.5 18.5
q-49 0 -84 -32l-6 43q44 29 92 29zM592 411v-270h59v-40h-59v-101h-43v101h-146v36l146 274h43zM549 333l-103 -192h103v192zM567 748l-355 -748h-58l355 748h58z" />
    <glyph glyph-name="questiondown" unicode="&#xbf;" horiz-adv-x="376" 
d="M222 444q-12 -12 -29 -12t-30 12q-12 12 -12 29t12 29q17 20 40 11.5t29 -30t-10 -39.5zM204 -252q-80 0 -128 48t-48 131q0 87 57 167l15 20q18 23 30 41q32 51 32 113v49h60v-51q0 -46 -19 -95q-2 -6 -27 -46l-17 -22q-13 -16 -15 -20q-55 -71 -55 -155
q0 -60 32.5 -93.5t89.5 -33.5q64 0 131 40l7 -55q-71 -38 -145 -38z" />
    <glyph glyph-name="Agrave" unicode="&#xc0;" horiz-adv-x="546" 
d="M160 910l139 -115h-56l-163 115h80zM307 748l217 -748h-61l-64 221h-253l-64 -221h-61l217 748h69zM273 661l-112 -385h225z" />
    <glyph glyph-name="Aacute" unicode="&#xc1;" horiz-adv-x="546" 
d="M463 910l-164 -115h-55l139 115h80zM307 748l217 -748h-61l-64 221h-253l-64 -221h-61l217 748h69zM273 661l-112 -385h225z" />
    <glyph glyph-name="Acircumflex" unicode="&#xc2;" horiz-adv-x="546" 
d="M299 930l110 -128h-50l-87 91l-86 -91h-50l111 128h52zM307 748l217 -748h-61l-64 221h-253l-64 -221h-61l217 748h69zM273 661l-112 -385h225z" />
    <glyph glyph-name="Atilde" unicode="&#xc3;" horiz-adv-x="546" 
d="M322 861q38 0 39 43h34q2 -36 -17 -61.5t-50 -25.5t-58 24q-25 24 -47 24q-38 0 -39 -43h-33q-2 36 16.5 61t49.5 25t57 -24q28 -23 48 -23zM307 748l217 -748h-61l-64 221h-253l-64 -221h-61l217 748h69zM273 661l-112 -385h225z" />
    <glyph glyph-name="Adieresis" unicode="&#xc4;" horiz-adv-x="546" 
d="M251 861q0 -21 -18 -30t-36 0t-18 30q0 14 10.5 24.5t25.5 10.5t25.5 -10.5t10.5 -24.5zM368 861q2 -21 -16.5 -30t-37.5 0t-18 30q0 14 11 24.5t26 10.5t25 -10.5t10 -24.5zM307 748l217 -748h-61l-64 221h-253l-64 -221h-61l217 748h69zM273 661l-112 -385h225z" />
    <glyph glyph-name="Aring" unicode="&#xc5;" horiz-adv-x="546" 
d="M273 956q33 0 56 -21.5t23 -54.5t-23 -54.5t-56 -21.5q-34 0 -57.5 21.5t-23.5 54.5t23.5 54.5t57.5 21.5zM274 922q-28 3 -39.5 -19.5t0 -45t39.5 -19.5q18 0 30 11.5t12 30.5t-12 30.5t-30 11.5zM307 748l217 -748h-61l-64 221h-253l-64 -221h-61l217 748h69zM273 661
l-112 -385h225z" />
    <glyph glyph-name="AE" unicode="&#xc6;" horiz-adv-x="791" 
d="M745 693h-293v-279h279v-55h-279v-304h293v-55h-352v221h-205l-104 -221h-64l342 748h383v-55zM208 276h185v408z" />
    <glyph glyph-name="Ccedilla" unicode="&#xc7;" horiz-adv-x="520" 
d="M299 -9l-12 -58q43 -1 70.5 -23t27.5 -61q0 -36 -28.5 -59t-69.5 -23q-49 0 -83 25l12 32q26 -23 66 -23q26 0 42.5 13.5t16.5 36.5q0 26 -20 40t-53 14q-3 0 -21 -2l21 89q-95 8 -152.5 78t-57.5 183v246q0 119 65 189q65 69 168 69q104 0 176 -57l-13 -53
q-61 55 -157 55q-81 0 -130 -54t-49 -147v-250q0 -95 50 -150t133 -55q97 0 164 58l12 -55q-74 -56 -178 -58z" />
    <glyph glyph-name="Egrave" unicode="&#xc8;" horiz-adv-x="476" 
d="M143 910l139 -115h-56l-163 115h80zM430 748v-55h-293v-279h280v-55h-280v-304h293v-55h-352v748h352z" />
    <glyph glyph-name="Eacute" unicode="&#xc9;" horiz-adv-x="476" 
d="M446 910l-164 -115h-55l139 115h80zM430 748v-55h-293v-279h280v-55h-280v-304h293v-55h-352v748h352z" />
    <glyph glyph-name="Ecircumflex" unicode="&#xca;" horiz-adv-x="476" 
d="M283 930l110 -128h-50l-87 91l-86 -91h-50l111 128h52zM430 748v-55h-293v-279h280v-55h-280v-304h293v-55h-352v748h352z" />
    <glyph glyph-name="Edieresis" unicode="&#xcb;" horiz-adv-x="476" 
d="M235 861q0 -21 -18 -30t-36 0t-18 30q0 14 10.5 24.5t25.5 10.5t25.5 -10.5t10.5 -24.5zM352 861q2 -21 -16.5 -30t-37.5 0t-18 30q0 14 11 24.5t26 10.5t25 -10.5t10 -24.5zM430 748v-55h-293v-279h280v-55h-280v-304h293v-55h-352v748h352z" />
    <glyph glyph-name="Igrave" unicode="&#xcc;" horiz-adv-x="214" 
d="M-5 910l139 -115h-56l-163 115h80zM137 748v-748h-59v748h59z" />
    <glyph glyph-name="Iacute" unicode="&#xcd;" horiz-adv-x="214" 
d="M137 748v-748h-59v748h59zM298 910l-164 -115h-55l139 115h80z" />
    <glyph glyph-name="Icircumflex" unicode="&#xce;" horiz-adv-x="214" 
d="M135 930l110 -128h-50l-87 91l-86 -91h-50l111 128h52zM137 748v-748h-59v748h59z" />
    <glyph glyph-name="Idieresis" unicode="&#xcf;" horiz-adv-x="214" 
d="M87 861q0 -21 -18 -30t-36 0t-18 30q0 14 10.5 24.5t25.5 10.5t25.5 -10.5t10.5 -24.5zM204 861q2 -21 -16.5 -30t-37.5 0t-18 30q0 14 11 24.5t26 10.5t25 -10.5t10 -24.5zM137 748v-748h-59v748h59z" />
    <glyph glyph-name="Eth" unicode="&#xd0;" horiz-adv-x="585" 
d="M78 397v351h189q119 0 189 -73q71 -73 71 -201v-199q0 -129 -71 -203q-70 -72 -189 -72h-189v351h-84v46h84zM466 277v196q0 104 -54 162t-148 58h-127v-296h164v-46h-164v-296h127q95 0 148.5 58.5t53.5 163.5z" />
    <glyph glyph-name="Ntilde" unicode="&#xd1;" horiz-adv-x="572" 
d="M344 861q38 0 39 43h34q2 -36 -17 -61.5t-50 -25.5t-58 24q-26 24 -47 24q-38 0 -39 -43h-33q-2 36 16.5 61t49.5 25t57 -24q28 -23 48 -23zM495 748v-748h-56l-302 611v-611h-59v748h56l302 -612v612h59z" />
    <glyph glyph-name="Ograve" unicode="&#xd2;" horiz-adv-x="598" 
d="M186 910l139 -115h-56l-163 115h80zM299 757q114 0 177 -74q64 -73 64 -198v-222q0 -126 -64 -199t-177 -73q-114 0 -177.5 72.5t-63.5 199.5v222q0 127 63.5 199.5t177.5 72.5zM298 702q-86 0 -133 -57.5t-47 -161.5v-218q0 -103 47.5 -161t132.5 -58q86 0 134 58
t48 161v218q0 103 -47.5 161t-134.5 58z" />
    <glyph glyph-name="Oacute" unicode="&#xd3;" horiz-adv-x="598" 
d="M489 910l-164 -115h-55l139 115h80zM299 757q114 0 177 -74q64 -73 64 -198v-222q0 -126 -64 -199t-177 -73q-114 0 -177.5 72.5t-63.5 199.5v222q0 127 63.5 199.5t177.5 72.5zM298 702q-86 0 -133 -57.5t-47 -161.5v-218q0 -103 47.5 -161t132.5 -58q86 0 134 58
t48 161v218q0 103 -47.5 161t-134.5 58z" />
    <glyph glyph-name="Ocircumflex" unicode="&#xd4;" horiz-adv-x="598" 
d="M325 930l110 -128h-50l-87 91l-86 -91h-50l111 128h52zM299 757q114 0 177 -74q64 -73 64 -198v-222q0 -126 -64 -199t-177 -73q-114 0 -177.5 72.5t-63.5 199.5v222q0 127 63.5 199.5t177.5 72.5zM298 702q-86 0 -133 -57.5t-47 -161.5v-218q0 -103 47.5 -161t132.5 -58
q86 0 134 58t48 161v218q0 103 -47.5 161t-134.5 58z" />
    <glyph glyph-name="Otilde" unicode="&#xd5;" horiz-adv-x="598" 
d="M348 861q38 0 39 43h34q2 -36 -17 -61.5t-50 -25.5t-58 24q-25 24 -47 24q-38 0 -39 -43h-33q-2 36 16.5 61t49.5 25t57 -24q28 -23 48 -23zM299 757q114 0 177 -74q64 -73 64 -198v-222q0 -126 -64 -199t-177 -73q-114 0 -177.5 72.5t-63.5 199.5v222q0 127 63.5 199.5
t177.5 72.5zM298 702q-86 0 -133 -57.5t-47 -161.5v-218q0 -103 47.5 -161t132.5 -58q86 0 134 58t48 161v218q0 103 -47.5 161t-134.5 58z" />
    <glyph glyph-name="Odieresis" unicode="&#xd6;" horiz-adv-x="598" 
d="M277 861q0 -21 -18 -30t-36 0t-18 30q0 14 10.5 24.5t25.5 10.5t25.5 -10.5t10.5 -24.5zM394 861q2 -21 -16.5 -30t-37.5 0t-18 30q0 14 11 24.5t26 10.5t25 -10.5t10 -24.5zM299 757q114 0 177 -74q64 -73 64 -198v-222q0 -126 -64 -199t-177 -73q-114 0 -177.5 72.5
t-63.5 199.5v222q0 127 63.5 199.5t177.5 72.5zM298 702q-86 0 -133 -57.5t-47 -161.5v-218q0 -103 47.5 -161t132.5 -58q86 0 134 58t48 161v218q0 103 -47.5 161t-134.5 58z" />
    <glyph glyph-name="multiply" unicode="&#xd7;" horiz-adv-x="511" 
d="M417 566l37 -38l-160 -159l163 -164l-37 -37l-164 163l-165 -164l-37 37l165 165l-163 164l37 37l163 -165z" />
    <glyph glyph-name="Oslash" unicode="&#xd8;" horiz-adv-x="598" 
d="M529 783l38 -27l-66 -106q39 -66 39 -165v-222q0 -126 -64 -199t-177 -73q-103 0 -168 62l-56 -91l-37 27l63 102q-43 68 -43 172v222q0 127 63.5 199.5t177.5 72.5q108 0 172 -67zM118 483v-218q0 -65 20 -114l301 486q-48 65 -141 65q-86 0 -133 -57.5t-47 -161.5z
M480 265v218q0 58 -17 106l-299 -483q48 -60 134 -60t134 58t48 161z" />
    <glyph glyph-name="Ugrave" unicode="&#xd9;" horiz-adv-x="569" 
d="M436 748h59v-533q0 -108 -55.5 -166t-155.5 -58q-99 0 -155 58t-56 166v533h59v-530q0 -84 40 -128t112 -44t112 44t40 128v530zM171 910l139 -115h-56l-163 115h80z" />
    <glyph glyph-name="Uacute" unicode="&#xda;" horiz-adv-x="569" 
d="M436 748h59v-533q0 -108 -55.5 -166t-155.5 -58q-99 0 -155 58t-56 166v533h59v-530q0 -84 40 -128t112 -44t112 44t40 128v530zM474 910l-164 -115h-55l139 115h80z" />
    <glyph glyph-name="Ucircumflex" unicode="&#xdb;" horiz-adv-x="569" 
d="M436 748h59v-533q0 -108 -55.5 -166t-155.5 -58q-99 0 -155 58t-56 166v533h59v-530q0 -84 40 -128t112 -44t112 44t40 128v530zM311 930l110 -128h-50l-87 91l-86 -91h-50l111 128h52z" />
    <glyph glyph-name="Udieresis" unicode="&#xdc;" horiz-adv-x="569" 
d="M436 748h59v-533q0 -108 -55.5 -166t-155.5 -58q-99 0 -155 58t-56 166v533h59v-530q0 -84 40 -128t112 -44t112 44t40 128v530zM263 861q0 -21 -18 -30t-36 0t-18 30q0 14 10.5 24.5t25.5 10.5t25.5 -10.5t10.5 -24.5zM380 861q2 -21 -16.5 -30t-37.5 0t-18 30
q0 14 11 24.5t26 10.5t25 -10.5t10 -24.5z" />
    <glyph glyph-name="Yacute" unicode="&#xdd;" horiz-adv-x="489" 
d="M435 910l-164 -115h-55l139 115h80zM485 748l-211 -447v-301h-59v301l-210 447h64l176 -377l176 377h64z" />
    <glyph glyph-name="Thorn" unicode="&#xde;" horiz-adv-x="515" 
d="M137 748v-131h128q104 0 163.5 -49t59.5 -143v-27q0 -93 -59.5 -142t-163.5 -49h-128v-207h-59v748h59zM263 562h-126v-301h126q78 0 121.5 35.5t43.5 103.5v24q0 68 -43.5 103t-121.5 35z" />
    <glyph glyph-name="germandbls" unicode="&#xdf;" horiz-adv-x="459" 
d="M220 775q66 0 105.5 -39t39.5 -102v-11q0 -44 -34 -96q-33 -53 -33 -88v-3q0 -48 56 -104q24 -22 40.5 -59.5t16.5 -80.5v-19q0 -83 -53 -128.5t-144 -45.5v51q64 0 102.5 33t38.5 93v19q0 70 -56 124t-56 116v3q0 45 32 98q33 52 33 83v8q0 44 -24.5 70.5t-64.5 26.5
q-42 0 -67.5 -27t-25.5 -73v-624h-55v626q0 69 40.5 109t108.5 40z" />
    <glyph glyph-name="agrave" unicode="&#xe0;" horiz-adv-x="487" 
d="M173 750l90 -157h-46l-108 157h64zM358 455v51h54v-506h-53v53q-57 -62 -137 -62q-76 0 -121 51t-45 135v151q0 85 45 136t121 51t136 -60zM234 465q-57 0 -89.5 -37t-32.5 -100v-151q0 -63 32.5 -99.5t89.5 -36.5q35 0 61.5 15t60.5 49v295q-33 34 -60 49.5t-62 15.5z
" />
    <glyph glyph-name="aacute" unicode="&#xe1;" horiz-adv-x="487" 
d="M371 750l-108 -157h-46l90 157h64zM358 455v51h54v-506h-53v53q-57 -62 -137 -62q-76 0 -121 51t-45 135v151q0 85 45 136t121 51t136 -60zM234 465q-57 0 -89.5 -37t-32.5 -100v-151q0 -63 32.5 -99.5t89.5 -36.5q35 0 61.5 15t60.5 49v295q-33 34 -60 49.5t-62 15.5z
" />
    <glyph glyph-name="acircumflex" unicode="&#xe2;" horiz-adv-x="487" 
d="M267 753l112 -151h-49l-89 110l-88 -110h-49l111 151h52zM358 455v51h54v-506h-53v53q-57 -62 -137 -62q-76 0 -121 51t-45 135v151q0 85 45 136t121 51t136 -60zM234 465q-57 0 -89.5 -37t-32.5 -100v-151q0 -63 32.5 -99.5t89.5 -36.5q35 0 61.5 15t60.5 49v295
q-33 34 -60 49.5t-62 15.5z" />
    <glyph glyph-name="atilde" unicode="&#xe3;" horiz-adv-x="487" 
d="M291 666q38 0 39 43h34q2 -36 -17 -61t-50 -25t-58 24q-26 24 -47 24q-38 0 -39 -43h-33q-2 36 16.5 61t49.5 25q32 0 57 -24q27 -24 48 -24zM358 455v51h54v-506h-53v53q-57 -62 -137 -62q-76 0 -121 51t-45 135v151q0 85 45 136t121 51t136 -60zM234 465
q-57 0 -89.5 -37t-32.5 -100v-151q0 -63 32.5 -99.5t89.5 -36.5q35 0 61.5 15t60.5 49v295q-33 34 -60 49.5t-62 15.5z" />
    <glyph glyph-name="adieresis" unicode="&#xe4;" horiz-adv-x="487" 
d="M216 676q0 -21 -18 -29.5t-36 0t-18 29.5q0 22 18 31t36 0t18 -31zM333 676q2 -21 -16.5 -29.5t-37.5 0t-18 29.5q-1 28 27 34t41 -14q5 -8 4 -20zM358 455v51h54v-506h-53v53q-57 -62 -137 -62q-76 0 -121 51t-45 135v151q0 85 45 136t121 51t136 -60zM234 465
q-57 0 -89.5 -37t-32.5 -100v-151q0 -63 32.5 -99.5t89.5 -36.5q35 0 61.5 15t60.5 49v295q-33 34 -60 49.5t-62 15.5z" />
    <glyph glyph-name="aring" unicode="&#xe5;" horiz-adv-x="487" 
d="M241 601q-40 0 -66.5 24t-26.5 62t26.5 62t66.5 24q39 0 65.5 -24t26.5 -62t-26.5 -62t-65.5 -24zM242 737q-24 0 -39.5 -14t-15.5 -36t15.5 -36.5t39.5 -14.5q32 -2 45.5 24.5t0 53t-45.5 23.5zM358 455v51h54v-506h-53v53q-57 -62 -137 -62q-76 0 -121 51t-45 135v151
q0 85 45 136t121 51t136 -60zM234 465q-57 0 -89.5 -37t-32.5 -100v-151q0 -63 32.5 -99.5t89.5 -36.5q35 0 61.5 15t60.5 49v295q-33 34 -60 49.5t-62 15.5z" />
    <glyph glyph-name="ae" unicode="&#xe6;" horiz-adv-x="713" 
d="M657 240h-284v-59q0 -63 36.5 -101.5t98.5 -38.5q76 0 134 43l12 -49q-70 -44 -152 -44q-111 0 -159 86q-54 -86 -153 -86q-64 0 -101.5 35t-37.5 97q0 130 164 153l102 14v49q0 57 -30 91.5t-83 34.5q-54 0 -122 -42l-11 51q71 41 142 41q95 0 135 -70q45 70 140 70
q82 0 125.5 -50t43.5 -140v-85zM488 465q-54 0 -84.5 -35.5t-30.5 -98.5v-43h231v43q0 134 -116 134zM317 156v87l-87 -12q-63 -9 -93 -32.5t-30 -69.5q0 -41 25.5 -65t66.5 -24q49 0 84 35q34 34 34 81z" />
    <glyph glyph-name="ccedilla" unicode="&#xe7;" horiz-adv-x="388" 
d="M233 -9l-12 -57q43 -1 70.5 -23t27.5 -61q0 -36 -28.5 -59t-69.5 -23q-49 0 -83 25l12 32q26 -23 66 -23q26 0 42.5 13.5t16.5 36.5q0 26 -20 40t-53 14q-3 0 -21 -2l21 89q-66 10 -106 60.5t-40 125.5v150q0 81 48 134q49 52 125 52q71 0 126 -39l-11 -49
q-52 38 -109 38q-54 0 -88.5 -39.5t-34.5 -101.5v-142q0 -62 35.5 -101.5t90.5 -39.5q63 0 113 38l10 -49q-55 -39 -128 -39z" />
    <glyph glyph-name="egrave" unicode="&#xe8;" horiz-adv-x="452" 
d="M251 593h-46l-108 157h64zM395 240h-283v-59q0 -63 36.5 -101.5t98.5 -38.5q75 0 134 43l11 -49q-70 -44 -152 -44q-83 0 -134 51q-50 53 -50 137v149q0 87 45.5 137t125.5 50q82 0 125 -50t43 -140v-85zM227 465q-54 0 -84.5 -35.5t-30.5 -98.5v-43h231v43
q0 134 -116 134z" />
    <glyph glyph-name="eacute" unicode="&#xe9;" horiz-adv-x="452" 
d="M359 750l-108 -157h-46l90 157h64zM395 240h-283v-59q0 -63 36.5 -101.5t98.5 -38.5q75 0 134 43l11 -49q-70 -44 -152 -44q-83 0 -134 51q-50 53 -50 137v149q0 87 45.5 137t125.5 50q82 0 125 -50t43 -140v-85zM227 465q-54 0 -84.5 -35.5t-30.5 -98.5v-43h231v43
q0 134 -116 134z" />
    <glyph glyph-name="ecircumflex" unicode="&#xea;" horiz-adv-x="452" 
d="M229 712l-88 -110h-49l111 151h52l112 -151h-49zM395 240h-283v-59q0 -63 36.5 -101.5t98.5 -38.5q75 0 134 43l11 -49q-70 -44 -152 -44q-83 0 -134 51q-50 53 -50 137v149q0 87 45.5 137t125.5 50q82 0 125 -50t43 -140v-85zM227 465q-54 0 -84.5 -35.5t-30.5 -98.5
v-43h231v43q0 134 -116 134z" />
    <glyph glyph-name="edieresis" unicode="&#xeb;" horiz-adv-x="452" 
d="M132 676q0 22 18 31t36 0t18 -31q0 -21 -18 -29.5t-36 0t-18 29.5zM321 676q2 -21 -16.5 -29.5t-37.5 0t-18 29.5q-1 28 27 34t41 -14q5 -8 4 -20zM395 240h-283v-59q0 -63 36.5 -101.5t98.5 -38.5q75 0 134 43l11 -49q-70 -44 -152 -44q-83 0 -134 51q-50 53 -50 137
v149q0 87 45.5 137t125.5 50q82 0 125 -50t43 -140v-85zM227 465q-54 0 -84.5 -35.5t-30.5 -98.5v-43h231v43q0 134 -116 134z" />
    <glyph glyph-name="igrave" unicode="&#xec;" horiz-adv-x="206" 
d="M131 506v-506h-56v506h56zM34 750l90 -157h-46l-108 157h64z" />
    <glyph glyph-name="iacute" unicode="&#xed;" horiz-adv-x="206" 
d="M131 506v-506h-56v506h56zM232 750l-108 -157h-46l90 157h64z" />
    <glyph glyph-name="icircumflex" unicode="&#xee;" horiz-adv-x="206" 
d="M128 753l112 -151h-49l-89 110l-88 -110h-49l111 151h52zM131 506v-506h-56v506h56z" />
    <glyph glyph-name="idieresis" unicode="&#xef;" horiz-adv-x="206" 
d="M77 676q0 -21 -18 -29.5t-36 0t-18 29.5q0 22 18 31t36 0t18 -31zM194 676q2 -21 -16.5 -29.5t-37.5 0t-18 29.5q-1 28 27 34t41 -14q5 -8 4 -20zM131 506v-506h-56v506h56z" />
    <glyph glyph-name="eth" unicode="&#xf0;" horiz-adv-x="468" 
d="M412 294v-1v-116q0 -87 -48 -136.5t-129 -49.5q-82 0 -130.5 49.5t-48.5 136.5v116q0 87 47.5 136.5t127.5 49.5q78 0 120 -53q-13 140 -79 218l-86 -66l-23 29l83 63q-64 54 -163 54v43q122 0 200 -69l88 67l24 -28l-86 -66q103 -121 103 -377zM356 179v112
q0 65 -33 102t-88 37q-57 0 -90 -36.5t-33 -102.5v-112q0 -65 33 -102t90 -37q55 0 88 37.5t33 101.5z" />
    <glyph glyph-name="ntilde" unicode="&#xf1;" 
d="M290 666q38 0 39 43h34q2 -36 -17 -61t-50 -25t-58 24q-26 24 -47 24q-38 0 -39 -43h-33q-2 36 16.5 61t49.5 25t57 -24q27 -24 48 -24zM259 515q68 0 106 -45t38 -121v-349h-56v342q0 119 -98 119q-63 0 -118 -66v-395h-56v506h53v-53q56 62 131 62z" />
    <glyph glyph-name="ograve" unicode="&#xf2;" horiz-adv-x="470" 
d="M413 328v-151q0 -84 -48.5 -135t-129.5 -51q-83 0 -131 50.5t-48 135.5v151q0 85 48 136t131 51t130.5 -51t47.5 -136zM112 327v-148q0 -64 33 -101.5t90 -37.5t90 37.5t33 101.5v148q0 63 -33 100.5t-90 37.5t-90 -37.5t-33 -100.5zM166 750l90 -157h-46l-108 157h64z
" />
    <glyph glyph-name="oacute" unicode="&#xf3;" horiz-adv-x="470" 
d="M413 328v-151q0 -84 -48.5 -135t-129.5 -51q-83 0 -131 50.5t-48 135.5v151q0 85 48 136t131 51t130.5 -51t47.5 -136zM112 327v-148q0 -64 33 -101.5t90 -37.5t90 37.5t33 101.5v148q0 63 -33 100.5t-90 37.5t-90 -37.5t-33 -100.5zM364 750l-108 -157h-46l90 157h64z
" />
    <glyph glyph-name="ocircumflex" unicode="&#xf4;" horiz-adv-x="470" 
d="M260 753l112 -151h-49l-89 110l-88 -110h-49l111 151h52zM413 328v-151q0 -84 -48.5 -135t-129.5 -51q-83 0 -131 50.5t-48 135.5v151q0 85 48 136t131 51t130.5 -51t47.5 -136zM112 327v-148q0 -64 33 -101.5t90 -37.5t90 37.5t33 101.5v148q0 63 -33 100.5t-90 37.5
t-90 -37.5t-33 -100.5z" />
    <glyph glyph-name="otilde" unicode="&#xf5;" horiz-adv-x="470" 
d="M413 328v-151q0 -84 -48.5 -135t-129.5 -51q-83 0 -131 50.5t-48 135.5v151q0 85 48 136t131 51t130.5 -51t47.5 -136zM112 327v-148q0 -64 33 -101.5t90 -37.5t90 37.5t33 101.5v148q0 63 -33 100.5t-90 37.5t-90 -37.5t-33 -100.5zM284 666q38 0 39 43h34
q2 -36 -17 -61t-50 -25t-58 24q-26 24 -47 24q-38 0 -39 -43h-33q-2 36 16.5 61t49.5 25t57 -24q27 -24 48 -24z" />
    <glyph glyph-name="odieresis" unicode="&#xf6;" horiz-adv-x="470" 
d="M413 328v-151q0 -84 -48.5 -135t-129.5 -51q-83 0 -131 50.5t-48 135.5v151q0 85 48 136t131 51t130.5 -51t47.5 -136zM112 327v-148q0 -64 33 -101.5t90 -37.5t90 37.5t33 101.5v148q0 63 -33 100.5t-90 37.5t-90 -37.5t-33 -100.5zM209 676q0 -21 -18 -29.5t-36 0
t-18 29.5q0 22 18 31t36 0t18 -31zM326 676q2 -21 -16.5 -29.5t-37.5 0t-18 29.5q-1 28 27 34t41 -14q5 -8 4 -20z" />
    <glyph glyph-name="divide" unicode="&#xf7;" horiz-adv-x="546" 
d="M272 612q19 0 32.5 -13t13.5 -31q0 -19 -13 -31.5t-33 -12.5q-18 0 -30.5 13t-12.5 31t13 31t30 13zM511 396v-52h-478v52h478zM272 216q20 0 33 -13t13 -32q0 -17 -13.5 -30t-32.5 -13q-17 0 -30 13t-13 30q0 19 12.5 32t30.5 13z" />
    <glyph glyph-name="oslash" unicode="&#xf8;" horiz-adv-x="468" 
d="M393 546l32 -24l-46 -74q34 -49 34 -120v-151q0 -84 -48.5 -135t-129.5 -51q-71 0 -115 37l-41 -66l-33 22l45 73q-35 50 -35 120v151q0 85 48 136t131 51q70 0 116 -37zM112 327v-148q0 -38 12 -68l198 320q-31 34 -87 34q-57 0 -90 -37.5t-33 -100.5zM358 179v148
q0 39 -12 67l-198 -320q31 -34 87 -34q57 0 90 37.5t33 101.5z" />
    <glyph glyph-name="ugrave" unicode="&#xf9;" 
d="M172 750l90 -157h-46l-108 157h64zM399 506v-506h-53v53q-56 -62 -131 -62q-68 0 -106 45t-38 121v349h56v-342q0 -120 98 -120q63 0 118 67v395h56z" />
    <glyph glyph-name="uacute" unicode="&#xfa;" 
d="M370 750l-108 -157h-46l90 157h64zM399 506v-506h-53v53q-56 -62 -131 -62q-68 0 -106 45t-38 121v349h56v-342q0 -120 98 -120q63 0 118 67v395h56z" />
    <glyph glyph-name="ucircumflex" unicode="&#xfb;" 
d="M266 753l112 -151h-49l-89 110l-88 -110h-49l111 151h52zM399 506v-506h-53v53q-56 -62 -131 -62q-68 0 -106 45t-38 121v349h56v-342q0 -120 98 -120q63 0 118 67v395h56z" />
    <glyph glyph-name="udieresis" unicode="&#xfc;" 
d="M215 676q0 -21 -18 -29.5t-36 0t-18 29.5q0 22 18 31t36 0t18 -31zM332 676q2 -21 -16.5 -29.5t-37.5 0t-18 29.5q-1 28 27 34t41 -14q5 -8 4 -20zM399 506v-506h-53v53q-56 -62 -131 -62q-68 0 -106 45t-38 121v349h56v-342q0 -120 98 -120q63 0 118 67v395h56z" />
    <glyph glyph-name="yacute" unicode="&#xfd;" 
d="M366 750l-108 -157h-46l90 157h64zM343 506h56v-577q0 -83 -51 -133q-50 -50 -125 -50q-85 0 -150 41l15 50q63 -42 131 -42q54 0 89 37.5t35 98.5v119q-56 -59 -128 -59q-68 0 -106 45t-38 121v349h56v-342q0 -120 98 -120q63 0 118 67v395z" />
    <glyph glyph-name="thorn" unicode="&#xfe;" horiz-adv-x="487" 
d="M75 765h56v-309q57 59 134 59q76 0 121 -51t45 -136v-151q0 -84 -45 -135t-121 -51q-75 0 -134 57v-293h-56v1010zM254 465q-36 0 -63.5 -15.5t-59.5 -49.5v-294q32 -34 59.5 -49.5t63.5 -15.5q57 0 89 36.5t32 100.5v150q0 64 -32 100.5t-89 36.5z" />
    <glyph glyph-name="ydieresis" unicode="&#xff;" 
d="M211 676q0 -21 -18 -29.5t-36 0t-18 29.5q0 22 18 31t36 0t18 -31zM328 676q2 -21 -16.5 -29.5t-37.5 0t-18 29.5q-1 28 27 34t41 -14q5 -8 4 -20zM343 506h56v-577q0 -83 -51 -133q-50 -50 -125 -50q-85 0 -150 41l15 50q63 -42 131 -42q54 0 89 37.5t35 98.5v119
q-56 -59 -128 -59q-68 0 -106 45t-38 121v349h56v-342q0 -120 98 -120q63 0 118 67v395z" />
    <glyph glyph-name="Amacron" unicode="&#x100;" horiz-adv-x="546" 
d="M377 888v-44h-210v44h210zM307 748l217 -748h-61l-64 221h-253l-64 -221h-61l217 748h69zM273 661l-112 -385h225z" />
    <glyph glyph-name="amacron" unicode="&#x101;" horiz-adv-x="487" 
d="M346 687v-44h-210v44h210zM358 455v51h54v-506h-53v53q-57 -62 -137 -62q-76 0 -121 51t-45 135v151q0 85 45 136t121 51t136 -60zM234 465q-57 0 -89.5 -37t-32.5 -100v-151q0 -63 32.5 -99.5t89.5 -36.5q35 0 61.5 15t60.5 49v295q-33 34 -60 49.5t-62 15.5z" />
    <glyph glyph-name="Abreve" unicode="&#x102;" horiz-adv-x="546" 
d="M343 912h47q0 -48 -31.5 -75.5t-85.5 -27.5t-86 27.5t-32 75.5h47q0 -29 19 -46t52 -17q32 0 51 17t19 46zM307 748l217 -748h-61l-64 221h-253l-64 -221h-61l217 748h69zM273 661l-112 -385h225z" />
    <glyph glyph-name="abreve" unicode="&#x103;" horiz-adv-x="487" 
d="M312 712h47q0 -48 -31.5 -75.5t-85.5 -27.5t-86 27.5t-32 75.5h47q0 -29 19 -45.5t52 -16.5q32 0 51 17t19 45zM358 455v51h54v-506h-53v53q-57 -62 -137 -62q-76 0 -121 51t-45 135v151q0 85 45 136t121 51t136 -60zM234 465q-57 0 -89.5 -37t-32.5 -100v-151
q0 -63 32.5 -99.5t89.5 -36.5q35 0 61.5 15t60.5 49v295q-33 34 -60 49.5t-62 15.5z" />
    <glyph glyph-name="Aogonek" unicode="&#x104;" horiz-adv-x="546" 
d="M463 -143q27 0 52 12l7 -33q-34 -14 -66 -14q-36 0 -59 21t-23 56q0 63 87 107l-62 215h-253l-64 -221h-61l217 748h69l217 -748h-21q-86 -45 -86 -95q0 -48 46 -48zM161 276h225l-113 385z" />
    <glyph glyph-name="aogonek" unicode="&#x105;" horiz-adv-x="487" 
d="M412 -130l7 -33q-34 -14 -66 -14q-36 0 -59 21t-23 56q0 66 88 108v45q-57 -62 -137 -62q-76 0 -121 51t-45 135v151q0 85 45 136t121 51t136 -60v51h54v-506h-14q-44 -24 -64 -45.5t-20 -48.5q0 -48 46 -48q26 0 52 12zM356 105v295q-33 34 -60 49.5t-62 15.5
q-57 0 -89.5 -37t-32.5 -100v-151q0 -63 32.5 -99.5t89.5 -36.5q35 0 61.5 15t60.5 49z" />
    <glyph glyph-name="Cacute" unicode="&#x106;" horiz-adv-x="520" 
d="M477 910l-164 -115h-55l139 115h80zM291 757q104 0 176 -57l-13 -53q-61 55 -157 55q-81 0 -130 -54t-49 -147v-250q0 -95 50 -150t133 -55q97 0 164 58l12 -55q-76 -58 -184 -58q-104 0 -170 69q-65 71 -65 193v246q0 119 65 189q65 69 168 69z" />
    <glyph glyph-name="cacute" unicode="&#x107;" horiz-adv-x="388" 
d="M356 756l-108 -157h-46l90 157h64zM229 515q71 0 126 -39l-11 -49q-52 38 -109 38q-54 0 -88.5 -39.5t-34.5 -101.5v-142q0 -62 35.5 -101.5t90.5 -39.5q63 0 113 38l10 -49q-55 -39 -131 -39t-125 52t-49 136v150q0 81 48 134q49 52 125 52z" />
    <glyph glyph-name="Ccircumflex" unicode="&#x108;" horiz-adv-x="520" 
d="M314 930l110 -128h-50l-87 91l-86 -91h-50l111 128h52zM291 757q104 0 176 -57l-13 -53q-61 55 -157 55q-81 0 -130 -54t-49 -147v-250q0 -95 50 -150t133 -55q97 0 164 58l12 -55q-76 -58 -184 -58q-104 0 -170 69q-65 71 -65 193v246q0 119 65 189q65 69 168 69z" />
    <glyph glyph-name="ccircumflex" unicode="&#x109;" horiz-adv-x="388" 
d="M253 759l112 -151h-49l-89 110l-88 -110h-49l111 151h52zM229 515q71 0 126 -39l-11 -49q-52 38 -109 38q-54 0 -88.5 -39.5t-34.5 -101.5v-142q0 -62 35.5 -101.5t90.5 -39.5q63 0 113 38l10 -49q-55 -39 -131 -39t-125 52t-49 136v150q0 81 48 134q49 52 125 52z" />
    <glyph glyph-name="Cdotaccent" unicode="&#x10a;" horiz-adv-x="520" 
d="M329 856q0 -16 -12.5 -28t-29.5 -12t-29 11.5t-12 28.5t12 29.5t29 12.5t29.5 -12.5t12.5 -29.5zM291 757q104 0 176 -57l-13 -53q-61 55 -157 55q-81 0 -130 -54t-49 -147v-250q0 -95 50 -150t133 -55q97 0 164 58l12 -55q-76 -58 -184 -58q-104 0 -170 69
q-65 71 -65 193v246q0 119 65 189q65 69 168 69z" />
    <glyph glyph-name="cdotaccent" unicode="&#x10b;" horiz-adv-x="388" 
d="M198 715q16 20 39.5 11.5t29.5 -30t-11 -39.5q-12 -11 -29 -11t-29 11q-12 12 -12 29t12 29zM229 515q71 0 126 -39l-11 -49q-52 38 -109 38q-54 0 -88.5 -39.5t-34.5 -101.5v-142q0 -62 35.5 -101.5t90.5 -39.5q63 0 113 38l10 -49q-55 -39 -131 -39t-125 52t-49 136
v150q0 81 48 134q49 52 125 52z" />
    <glyph glyph-name="Ccaron" unicode="&#x10c;" horiz-adv-x="520" 
d="M424 922l-110 -127h-52l-111 127h50l86 -90l87 90h50zM291 757q104 0 176 -57l-13 -53q-61 55 -157 55q-81 0 -130 -54t-49 -147v-250q0 -95 50 -150t133 -55q97 0 164 58l12 -55q-76 -58 -184 -58q-104 0 -170 69q-65 71 -65 193v246q0 119 65 189q65 69 168 69z" />
    <glyph glyph-name="ccaron" unicode="&#x10d;" horiz-adv-x="388" 
d="M365 756l-112 -151h-52l-111 151h49l88 -111l89 111h49zM229 515q71 0 126 -39l-11 -49q-52 38 -109 38q-54 0 -88.5 -39.5t-34.5 -101.5v-142q0 -62 35.5 -101.5t90.5 -39.5q63 0 113 38l10 -49q-55 -39 -131 -39t-125 52t-49 136v150q0 81 48 134q49 52 125 52z" />
    <glyph glyph-name="Dcaron" unicode="&#x10e;" horiz-adv-x="585" 
d="M402 922l-110 -127h-52l-111 127h50l86 -90l87 90h50zM78 0v748h189q119 0 189 -73q71 -73 71 -201v-199q0 -129 -71 -203q-70 -72 -189 -72h-189zM264 693h-127v-638h127q95 0 148.5 58.5t53.5 163.5v196q0 104 -54 162t-148 58z" />
    <glyph glyph-name="dcaron" unicode="&#x10f;" horiz-adv-x="603" 
d="M356 457v308h56v-765h-53v53q-57 -62 -137 -62q-76 0 -121 51t-45 135v151q0 85 45 136t121 51t134 -58zM539 736q41 0 41 -51q0 -112 -92 -169v27q51 40 54 107h-2q-17 0 -29.5 12.5t-12.5 30.5t11.5 30.5t29.5 12.5zM356 105v295q-33 34 -60 49.5t-62 15.5
q-57 0 -89.5 -37t-32.5 -100v-151q0 -63 32.5 -99.5t89.5 -36.5q35 0 61.5 15t60.5 49z" />
    <glyph glyph-name="Dcroat" unicode="&#x110;" horiz-adv-x="585" 
d="M78 397v351h189q119 0 189 -73q71 -73 71 -201v-199q0 -129 -71 -203q-70 -72 -189 -72h-189v351h-84v46h84zM466 277v196q0 104 -54 162t-148 58h-127v-296h164v-46h-164v-296h127q95 0 148.5 58.5t53.5 163.5z" />
    <glyph glyph-name="dslash" unicode="&#x111;" horiz-adv-x="487" 
d="M485 664v-44h-73v-620h-53v53q-57 -62 -137 -62q-76 0 -121 51t-45 135v151q0 85 45 136t121 51t134 -58v163h-82v44h82v101h56v-101h73zM356 105v295q-33 34 -60 49.5t-62 15.5q-57 0 -89.5 -37t-32.5 -100v-151q0 -63 32.5 -99.5t89.5 -36.5q35 0 61.5 15t60.5 49z" />
    <glyph glyph-name="Emacron" unicode="&#x112;" horiz-adv-x="476" 
d="M361 888v-44h-210v44h210zM430 748v-55h-293v-279h280v-55h-280v-304h293v-55h-352v748h352z" />
    <glyph glyph-name="emacron" unicode="&#x113;" horiz-adv-x="452" 
d="M334 687v-44h-210v44h210zM395 240h-283v-59q0 -63 36.5 -101.5t98.5 -38.5q75 0 134 43l11 -49q-70 -44 -152 -44q-83 0 -134 51q-50 53 -50 137v149q0 87 45.5 137t125.5 50q82 0 125 -50t43 -140v-85zM227 465q-54 0 -84.5 -35.5t-30.5 -98.5v-43h231v43
q0 134 -116 134z" />
    <glyph glyph-name="Ebreve" unicode="&#x114;" horiz-adv-x="476" 
d="M327 912h47q0 -48 -31.5 -75.5t-85.5 -27.5t-86 27.5t-32 75.5h47q0 -29 19 -46t52 -17q32 0 51 17t19 46zM430 748v-55h-293v-279h280v-55h-280v-304h293v-55h-352v748h352z" />
    <glyph glyph-name="ebreve" unicode="&#x115;" horiz-adv-x="452" 
d="M230 609q-54 0 -86 27.5t-32 75.5h47q0 -29 19 -45.5t52 -16.5q32 0 51 17t19 45h47q0 -48 -31.5 -75.5t-85.5 -27.5zM395 240h-283v-59q0 -63 36.5 -101.5t98.5 -38.5q75 0 134 43l11 -49q-70 -44 -152 -44q-83 0 -134 51q-50 53 -50 137v149q0 87 45.5 137t125.5 50
q82 0 125 -50t43 -140v-85zM227 465q-54 0 -84.5 -35.5t-30.5 -98.5v-43h231v43q0 134 -116 134z" />
    <glyph glyph-name="Edotaccent" unicode="&#x116;" horiz-adv-x="476" 
d="M299 856q0 -16 -12.5 -28t-29.5 -12t-29 11.5t-12 28.5t12 29.5t29 12.5t29.5 -12.5t12.5 -29.5zM430 748v-55h-293v-279h280v-55h-280v-304h293v-55h-352v748h352z" />
    <glyph glyph-name="edotaccent" unicode="&#x117;" horiz-adv-x="452" 
d="M258 651q-12 -11 -29 -11t-29 11q-12 12 -12 29t12 29q16 20 39.5 11.5t29.5 -30t-11 -39.5zM395 240h-283v-59q0 -63 36.5 -101.5t98.5 -38.5q75 0 134 43l11 -49q-70 -44 -152 -44q-83 0 -134 51q-50 53 -50 137v149q0 87 45.5 137t125.5 50q82 0 125 -50t43 -140v-85z
M227 465q-54 0 -84.5 -35.5t-30.5 -98.5v-43h231v43q0 134 -116 134z" />
    <glyph glyph-name="Eogonek" unicode="&#x118;" horiz-adv-x="476" 
d="M435 -131l7 -33q-34 -14 -66 -14q-36 0 -59 21t-23 56q0 61 75 101h-291v748h352v-55h-293v-279h280v-55h-280v-304h293v-55h-7q-86 -45 -86 -95q0 -48 46 -48q27 0 52 12z" />
    <glyph glyph-name="eogonek" unicode="&#x119;" horiz-adv-x="452" 
d="M395 240h-283v-59q0 -63 36.5 -101.5t98.5 -38.5q75 0 134 43l11 -49q-51 -33 -109 -41q-43 -24 -62 -45t-19 -48q0 -48 46 -48q26 0 52 12l7 -33q-34 -14 -66 -14q-36 0 -59 21t-23 56q0 57 67 96q-77 5 -123.5 56t-46.5 132v149q0 87 45.5 137t125.5 50q82 0 125 -50
t43 -140v-85zM227 465q-54 0 -84.5 -35.5t-30.5 -98.5v-43h231v43q0 134 -116 134z" />
    <glyph glyph-name="Ecaron" unicode="&#x11a;" horiz-adv-x="476" 
d="M393 922l-110 -127h-52l-111 127h50l86 -90l87 90h50zM430 748v-55h-293v-279h280v-55h-280v-304h293v-55h-352v748h352z" />
    <glyph glyph-name="ecaron" unicode="&#x11b;" horiz-adv-x="452" 
d="M255 599h-52l-111 151h49l88 -111l89 111h49zM395 240h-283v-59q0 -63 36.5 -101.5t98.5 -38.5q75 0 134 43l11 -49q-70 -44 -152 -44q-83 0 -134 51q-50 53 -50 137v149q0 87 45.5 137t125.5 50q82 0 125 -50t43 -140v-85zM227 465q-54 0 -84.5 -35.5t-30.5 -98.5v-43
h231v43q0 134 -116 134z" />
    <glyph glyph-name="Gcircumflex" unicode="&#x11c;" horiz-adv-x="572" 
d="M320 930l110 -128h-50l-87 91l-86 -91h-50l111 128h52zM480 698l-13 -51q-73 55 -167 55q-81 0 -132 -55q-50 -55 -50 -146v-250q0 -95 47 -150t126 -55q85 0 152 57v207h-131v55h189v-296q-49 -41 -97.5 -59.5t-112.5 -18.5q-103 0 -168 69q-65 71 -65 193v246
q0 120 66 189q67 69 170 69t186 -59z" />
    <glyph glyph-name="gcircumflex" unicode="&#x11d;" horiz-adv-x="487" 
d="M263 753l112 -151h-49l-89 110l-88 -110h-49l111 151h52zM359 454v52h53v-578q0 -82 -51 -132q-52 -50 -132 -50q-93 0 -160 45l15 51q62 -47 139 -47q60 0 96.5 37t36.5 99v117q-58 -57 -134 -57t-121 51t-45 135v151q0 85 45 136t121 51t137 -61zM234 465
q-57 0 -89.5 -37t-32.5 -100v-151q0 -63 32.5 -99.5t89.5 -36.5q35 0 61.5 15t60.5 49v295q-33 34 -60 49.5t-62 15.5z" />
    <glyph glyph-name="Gbreve" unicode="&#x11e;" horiz-adv-x="572" 
d="M364 912h47q0 -48 -31.5 -75.5t-85.5 -27.5t-86 27.5t-32 75.5h47q0 -29 19 -46t52 -17q32 0 51 17t19 46zM480 698l-13 -51q-73 55 -167 55q-81 0 -132 -55q-50 -55 -50 -146v-250q0 -95 47 -150t126 -55q85 0 152 57v207h-131v55h189v-296q-49 -41 -97.5 -59.5
t-112.5 -18.5q-103 0 -168 69q-65 71 -65 193v246q0 120 66 189q67 69 170 69t186 -59z" />
    <glyph glyph-name="gbreve" unicode="&#x11f;" horiz-adv-x="487" 
d="M308 712h47q0 -48 -31.5 -75.5t-85.5 -27.5t-86 27.5t-32 75.5h47q0 -29 19 -45.5t52 -16.5q32 0 51 17t19 45zM359 454v52h53v-578q0 -82 -51 -132q-52 -50 -132 -50q-93 0 -160 45l15 51q62 -47 139 -47q60 0 96.5 37t36.5 99v117q-58 -57 -134 -57t-121 51t-45 135
v151q0 85 45 136t121 51t137 -61zM234 465q-57 0 -89.5 -37t-32.5 -100v-151q0 -63 32.5 -99.5t89.5 -36.5q35 0 61.5 15t60.5 49v295q-33 34 -60 49.5t-62 15.5z" />
    <glyph glyph-name="Gdotaccent" unicode="&#x120;" horiz-adv-x="572" 
d="M335 856q0 -16 -12.5 -28t-29.5 -12t-29 11.5t-12 28.5t12 29.5t29 12.5t29.5 -12.5t12.5 -29.5zM480 698l-13 -51q-73 55 -167 55q-81 0 -132 -55q-50 -55 -50 -146v-250q0 -95 47 -150t126 -55q85 0 152 57v207h-131v55h189v-296q-49 -41 -97.5 -59.5t-112.5 -18.5
q-103 0 -168 69q-65 71 -65 193v246q0 120 66 189q67 69 170 69t186 -59z" />
    <glyph glyph-name="gdotaccent" unicode="&#x121;" horiz-adv-x="487" 
d="M209 709q16 20 39.5 11.5t29.5 -30t-11 -39.5q-12 -11 -29 -11t-29 11q-12 12 -12 29t12 29zM359 454v52h53v-578q0 -82 -51 -132q-52 -50 -132 -50q-93 0 -160 45l15 51q62 -47 139 -47q60 0 96.5 37t36.5 99v117q-58 -57 -134 -57t-121 51t-45 135v151q0 85 45 136
t121 51t137 -61zM234 465q-57 0 -89.5 -37t-32.5 -100v-151q0 -63 32.5 -99.5t89.5 -36.5q35 0 61.5 15t60.5 49v295q-33 34 -60 49.5t-62 15.5z" />
    <glyph glyph-name="Gcommaaccent" unicode="&#x122;" horiz-adv-x="572" 
d="M312 365h189v-296q-49 -41 -97.5 -59.5t-112.5 -18.5q-103 0 -168 69q-65 71 -65 193v246q0 120 66 189q67 69 170 69t186 -59l-13 -51q-73 55 -167 55q-81 0 -132 -55q-50 -55 -50 -146v-250q0 -95 47 -150t126 -55q85 0 152 57v207h-131v55zM294 -40q41 0 41 -51
q0 -112 -92 -169v27q51 40 54 107h-2q-17 0 -29.5 12.5t-12.5 30.5t11.5 30.5t29.5 12.5z" />
    <glyph glyph-name="gcommaaccent" unicode="&#x123;" horiz-adv-x="487" 
d="M274 756q0 -112 -92 -169v27q51 40 54 107h-2q-17 0 -29.5 12.5t-12.5 30.5t11.5 30.5t29.5 12.5q41 0 41 -51zM359 506h53v-578q0 -82 -51 -132q-52 -50 -132 -50q-93 0 -160 45l15 51q62 -47 139 -47q60 0 96.5 37t36.5 99v117q-58 -57 -134 -57t-121 51t-45 135v151
q0 85 45 136t121 51t137 -61v52zM356 105v295q-33 34 -60 49.5t-62 15.5q-57 0 -89.5 -37t-32.5 -100v-151q0 -63 32.5 -99.5t89.5 -36.5q35 0 61.5 15t60.5 49z" />
    <glyph glyph-name="Hcircumflex" unicode="&#x124;" horiz-adv-x="572" 
d="M316 930l110 -128h-50l-87 91l-86 -91h-50l111 128h52zM495 748v-748h-59v363h-299v-363h-59v748h59v-330h299v330h59z" />
    <glyph glyph-name="hcircumflex" unicode="&#x125;" 
d="M130 931l110 -128h-50l-86 91l-87 -91h-50l111 128h52zM75 765h56v-310q54 60 129 60q68 0 105.5 -44t37.5 -122v-349h-56v341q0 120 -98 120q-65 0 -118 -66v-395h-56v765z" />
    <glyph glyph-name="Hbar" unicode="&#x126;" horiz-adv-x="572" 
d="M581 602v-46h-86v-556h-59v363h-299v-363h-59v556h-84v46h84v146h59v-146h299v146h59v-146h86zM436 418v138h-299v-138h299z" />
    <glyph glyph-name="hbar" unicode="&#x127;" 
d="M260 515q68 0 105.5 -44t37.5 -122v-349h-56v341q0 120 -98 120q-65 0 -118 -66v-395h-56v620h-71v44h71v101h56v-101h84v-44h-84v-165q54 60 129 60z" />
    <glyph glyph-name="Itilde" unicode="&#x128;" horiz-adv-x="214" 
d="M159 861q38 0 39 43h34q2 -36 -17 -61.5t-50 -25.5t-58 24q-26 24 -47 24q-38 0 -39 -43h-33q-2 36 16.5 61t49.5 25q32 0 57 -24q28 -23 48 -23zM139 748v-748h-59v748h59z" />
    <glyph glyph-name="itilde" unicode="&#x129;" horiz-adv-x="206" 
d="M153 666q38 0 39 43h34q2 -36 -17 -61t-50 -25t-58 24q-25 24 -47 24q-38 0 -39 -43h-33q-2 36 16.5 61t49.5 25q32 0 57 -24q27 -24 48 -24zM133 506v-506h-56v506h56z" />
    <glyph glyph-name="Imacron" unicode="&#x12a;" horiz-adv-x="214" 
d="M137 748v-748h-59v748h59zM213 888v-44h-210v44h210z" />
    <glyph glyph-name="imacron" unicode="&#x12b;" horiz-adv-x="206" 
d="M131 506v-506h-56v506h56zM207 687v-44h-210v44h210z" />
    <glyph glyph-name="Ibreve" unicode="&#x12c;" horiz-adv-x="214" 
d="M179 912h47q0 -48 -31.5 -75.5t-85.5 -27.5t-86 27.5t-32 75.5h47q0 -29 19 -46t52 -17q32 0 51 17t19 46zM137 748v-748h-59v748h59z" />
    <glyph glyph-name="ibreve" unicode="&#x12d;" horiz-adv-x="206" 
d="M173 712h47q0 -48 -31.5 -75.5t-85.5 -27.5t-86 27.5t-32 75.5h47q0 -29 19 -45.5t52 -16.5q32 0 51 17t19 45zM131 506v-506h-56v506h56z" />
    <glyph glyph-name="Iogonek" unicode="&#x12e;" horiz-adv-x="214" 
d="M137 748v-748h-26q-44 -24 -64 -45.5t-20 -48.5q0 -48 46 -48q27 0 52 12l7 -33q-34 -14 -66 -14q-36 0 -59 21t-23 56q0 68 94 110v738h59z" />
    <glyph glyph-name="iogonek" unicode="&#x12f;" horiz-adv-x="206" 
d="M74 709q16 20 39.5 11.5t29.5 -30t-11 -39.5q-12 -11 -29 -11t-29 11q-12 12 -12 29t12 29zM75 16v490h56v-506h-36q-44 -24 -64 -45.5t-20 -48.5q0 -48 46 -48q27 0 52 12l7 -33q-34 -14 -66 -14q-36 0 -59 21t-23 56q0 72 107 116z" />
    <glyph glyph-name="Idot" unicode="&#x130;" horiz-adv-x="214" 
d="M150 856q0 -16 -12.5 -28t-29.5 -12t-29 11.5t-12 28.5t12 29.5t29 12.5t29.5 -12.5t12.5 -29.5zM137 748v-748h-59v748h59z" />
    <glyph glyph-name="dotlessi" unicode="&#x131;" horiz-adv-x="206" 
d="M131 506v-506h-56v506h56z" />
    <glyph glyph-name="Jcircumflex" unicode="&#x134;" horiz-adv-x="388" 
d="M313 930l110 -128h-50l-87 91l-86 -91h-50l111 128h52zM256 748h59v-548q0 -99 -48.5 -154t-133.5 -55q-67 0 -117 31l14 56q41 -32 99 -32q60 0 93.5 40.5t33.5 112.5v549z" />
    <glyph glyph-name="jcircumflex" unicode="&#x135;" horiz-adv-x="205" 
d="M128 753l112 -151h-49l-89 110l-88 -110h-49l111 151h52zM75 506h56v-618q0 -71 -34.5 -108t-96.5 -37q-27 0 -57 8l9 50q21 -8 42 -8q81 0 81 92v621z" />
    <glyph glyph-name="Kcommaaccent" unicode="&#x136;" horiz-adv-x="505" 
d="M257 376l230 -376h-65l-216 346h-69v-346h-59v748h59v-347h68l198 347h64zM278 -40q41 0 41 -51q0 -112 -92 -169v27q51 40 54 107h-2q-17 0 -29.5 12.5t-12.5 30.5t11.5 30.5t29.5 12.5z" />
    <glyph glyph-name="kcommaaccent" unicode="&#x137;" horiz-adv-x="416" 
d="M225 259l180 -259h-63l-166 230h-45v-230h-56v765h56v-485h44l155 226h60zM234 -40q41 0 41 -51q0 -112 -92 -169v27q51 40 54 107h-2q-17 0 -29.5 12.5t-12.5 30.5t11.5 30.5t29.5 12.5z" />
    <glyph glyph-name="Lacute" unicode="&#x139;" horiz-adv-x="429" 
d="M137 748v-693h274v-55h-333v748h59zM299 910l-164 -115h-55l139 115h80z" />
    <glyph glyph-name="lacute" unicode="&#x13a;" horiz-adv-x="206" 
d="M131 765v-765h-56v765h56zM295 922l-164 -115h-55l139 115h80z" />
    <glyph glyph-name="Lcommaaccent" unicode="&#x13b;" horiz-adv-x="429" 
d="M137 55h274v-55h-333v748h59v-693zM245 -40q41 0 41 -51q0 -112 -92 -169v27q51 40 54 107h-2q-17 0 -29.5 12.5t-12.5 30.5t11.5 30.5t29.5 12.5z" />
    <glyph glyph-name="lcommaaccent" unicode="&#x13c;" horiz-adv-x="206" 
d="M103 -40q41 0 41 -51q0 -112 -92 -169v27q51 40 54 107h-2q-17 0 -29.5 12.5t-12.5 30.5t11.5 30.5t29.5 12.5zM131 765v-765h-56v765h56z" />
    <glyph glyph-name="Lcaron" unicode="&#x13d;" horiz-adv-x="429" 
d="M137 748v-693h274v-55h-333v748h59zM427 685q0 -112 -92 -169v27q51 40 54 107h-2q-17 0 -29.5 12.5t-12.5 30.5t11.5 30.5t29.5 12.5q41 0 41 -51z" />
    <glyph glyph-name="lcaron" unicode="&#x13e;" horiz-adv-x="337" 
d="M75 0v765h56v-765h-56zM273 736q41 0 41 -51q0 -112 -92 -169v27q51 40 54 107h-2q-17 0 -29.5 12.5t-12.5 30.5t11.5 30.5t29.5 12.5z" />
    <glyph glyph-name="Ldot" unicode="&#x13f;" horiz-adv-x="429" 
d="M137 748v-693h274v-55h-333v748h59zM369 415q19 0 32 -12.5t13 -31.5t-13 -31.5t-32 -12.5q-17 0 -30 12.5t-13 31.5t13 31.5t30 12.5z" />
    <glyph glyph-name="ldot" unicode="&#x140;" horiz-adv-x="318" 
d="M131 765v-765h-56v765h56zM251 325q19 0 32 -12.5t13 -31.5t-13 -31.5t-32 -12.5q-17 0 -30 12.5t-13 31.5t13 31.5t30 12.5z" />
    <glyph glyph-name="Lslash" unicode="&#x141;" horiz-adv-x="429" 
d="M137 55h274v-55h-333v255l-81 -33l-11 45l92 38v443h59v-419l144 59l12 -45l-156 -64v-224z" />
    <glyph glyph-name="lslash" unicode="&#x142;" horiz-adv-x="206" 
d="M231 323l-100 -41v-282h-56v259l-88 -36l-11 44l99 41v457h56v-434l88 37z" />
    <glyph glyph-name="Nacute" unicode="&#x143;" horiz-adv-x="572" 
d="M485 910l-164 -115h-55l139 115h80zM495 748v-748h-56l-302 611v-611h-59v748h56l302 -612v612h59z" />
    <glyph glyph-name="nacute" unicode="&#x144;" 
d="M371 750l-108 -157h-46l90 157h64zM259 515q68 0 106 -45t38 -121v-349h-56v342q0 119 -98 119q-63 0 -118 -66v-395h-56v506h53v-53q56 62 131 62z" />
    <glyph glyph-name="Ncommaaccent" unicode="&#x145;" horiz-adv-x="572" 
d="M436 748h59v-748h-56l-302 611v-611h-59v748h56l302 -612v612zM294 -40q41 0 41 -51q0 -112 -92 -169v27q51 40 54 107h-2q-17 0 -29.5 12.5t-12.5 30.5t11.5 30.5t29.5 12.5z" />
    <glyph glyph-name="ncommaaccent" unicode="&#x146;" 
d="M259 515q68 0 106 -45t38 -121v-349h-56v342q0 119 -98 119q-63 0 -118 -66v-395h-56v506h53v-53q56 62 131 62zM247 -40q41 0 41 -51q0 -112 -92 -169v27q51 40 54 107h-2q-17 0 -29.5 12.5t-12.5 30.5t11.5 30.5t29.5 12.5z" />
    <glyph glyph-name="Ncaron" unicode="&#x147;" horiz-adv-x="572" 
d="M432 922l-110 -127h-52l-111 127h50l86 -90l87 90h50zM495 748v-748h-56l-302 611v-611h-59v748h56l302 -612v612h59z" />
    <glyph glyph-name="ncaron" unicode="&#x148;" 
d="M379 750l-112 -151h-52l-111 151h49l88 -111l89 111h49zM259 515q68 0 106 -45t38 -121v-349h-56v342q0 119 -98 119q-63 0 -118 -66v-395h-56v506h53v-53q56 62 131 62z" />
    <glyph glyph-name="Eng" unicode="&#x14a;" horiz-adv-x="572" 
d="M436 748h59v-784q0 -102 -58.5 -160.5t-160.5 -58.5v52q75 0 117 44.5t42 124.5v42l-298 603v-611h-59v748h56l301 -610v364h1v246z" />
    <glyph glyph-name="eng" unicode="&#x14b;" 
d="M403 231h1v-341q0 -71 -35.5 -107.5t-100.5 -36.5v50q81 0 81 92v112h-2v342q0 119 -98 119q-63 0 -118 -66v-395h-56v506h53v-53q56 62 131 62q68 0 106 -45t38 -121v-118z" />
    <glyph glyph-name="Omacron" unicode="&#x14c;" horiz-adv-x="598" 
d="M403 888v-44h-210v44h210zM299 757q114 0 177 -74q64 -73 64 -198v-222q0 -126 -64 -199t-177 -73q-114 0 -177.5 72.5t-63.5 199.5v222q0 127 63.5 199.5t177.5 72.5zM298 702q-86 0 -133 -57.5t-47 -161.5v-218q0 -103 47.5 -161t132.5 -58q86 0 134 58t48 161v218
q0 103 -47.5 161t-134.5 58z" />
    <glyph glyph-name="omacron" unicode="&#x14d;" horiz-adv-x="470" 
d="M413 328v-151q0 -84 -48.5 -135t-129.5 -51q-83 0 -131 50.5t-48 135.5v151q0 85 48 136t131 51t130.5 -51t47.5 -136zM112 327v-148q0 -64 33 -101.5t90 -37.5t90 37.5t33 101.5v148q0 63 -33 100.5t-90 37.5t-90 -37.5t-33 -100.5zM339 687v-44h-210v44h210z" />
    <glyph glyph-name="Obreve" unicode="&#x14e;" horiz-adv-x="598" 
d="M369 912h47q0 -48 -31.5 -75.5t-85.5 -27.5t-86 27.5t-32 75.5h47q0 -29 19 -46t52 -17q32 0 51 17t19 46zM299 757q114 0 177 -74q64 -73 64 -198v-222q0 -126 -64 -199t-177 -73q-114 0 -177.5 72.5t-63.5 199.5v222q0 127 63.5 199.5t177.5 72.5zM298 702
q-86 0 -133 -57.5t-47 -161.5v-218q0 -103 47.5 -161t132.5 -58q86 0 134 58t48 161v218q0 103 -47.5 161t-134.5 58z" />
    <glyph glyph-name="obreve" unicode="&#x14f;" horiz-adv-x="470" 
d="M413 328v-151q0 -84 -48.5 -135t-129.5 -51q-83 0 -131 50.5t-48 135.5v151q0 85 48 136t131 51t130.5 -51t47.5 -136zM112 327v-148q0 -64 33 -101.5t90 -37.5t90 37.5t33 101.5v148q0 63 -33 100.5t-90 37.5t-90 -37.5t-33 -100.5zM305 712h47q0 -48 -31.5 -75.5
t-85.5 -27.5t-86 27.5t-32 75.5h47q0 -29 19 -45.5t52 -16.5q32 0 51 17t19 45z" />
    <glyph glyph-name="Ohungarumlaut" unicode="&#x150;" horiz-adv-x="598" 
d="M314 926l-65 -128h-46l60 128h51zM451 926l-68 -128h-46l60 128h54zM299 757q114 0 177 -74q64 -73 64 -198v-222q0 -126 -64 -199t-177 -73q-114 0 -177.5 72.5t-63.5 199.5v222q0 127 63.5 199.5t177.5 72.5zM298 702q-86 0 -133 -57.5t-47 -161.5v-218
q0 -103 47.5 -161t132.5 -58q86 0 134 58t48 161v218q0 103 -47.5 161t-134.5 58z" />
    <glyph glyph-name="ohungarumlaut" unicode="&#x151;" horiz-adv-x="470" 
d="M254 753l-68 -137h-46l63 137h51zM391 753l-71 -137h-46l63 137h54zM413 328v-151q0 -84 -48.5 -135t-129.5 -51q-83 0 -131 50.5t-48 135.5v151q0 85 48 136t131 51t130.5 -51t47.5 -136zM112 327v-148q0 -64 33 -101.5t90 -37.5t90 37.5t33 101.5v148q0 63 -33 100.5
t-90 37.5t-90 -37.5t-33 -100.5z" />
    <glyph glyph-name="OE" unicode="&#x152;" horiz-adv-x="801" 
d="M754 693h-293v-279h280v-55h-280v-304h293v-55h-445q-120 0 -185.5 72t-65.5 201v203q0 127 65.5 199.5t185.5 72.5h445v-55zM309 54h93v640h-93q-93 0 -142 -58t-49 -161v-202q0 -105 49.5 -162t141.5 -57z" />
    <glyph glyph-name="oe" unicode="&#x153;" horiz-adv-x="756" 
d="M697 240h-284v-59q0 -63 36.5 -101.5t98.5 -38.5q76 0 134 43l12 -49q-70 -44 -152 -44q-106 0 -155 79q-48 -79 -152 -79q-83 0 -131 50.5t-48 135.5v151q0 85 48 136t131 51q103 0 149 -76q43 76 144 76q82 0 125.5 -50t43.5 -140v-85zM358 179v148q0 63 -33 100.5
t-90 37.5t-90 -37.5t-33 -100.5v-148q0 -64 33 -101.5t90 -37.5t90 37.5t33 101.5zM413 331v-43h231v43q0 134 -116 134q-54 0 -84.5 -35.5t-30.5 -98.5z" />
    <glyph glyph-name="Racute" unicode="&#x154;" horiz-adv-x="529" 
d="M444 910l-164 -115h-55l139 115h80zM501 0h-62l-161 330q-34 -2 -39 -2h-102v-328h-59v748h161q108 0 169 -49.5t61 -146.5v-28q0 -144 -132 -183zM137 693v-310h100q82 0 127 36t45 107v24q0 143 -172 143h-100z" />
    <glyph glyph-name="racute" unicode="&#x155;" horiz-adv-x="287" 
d="M289 750l-108 -157h-46l90 157h64zM261 509v-54q-72 -3 -130 -63v-392h-56v506h53v-59q56 59 133 62z" />
    <glyph glyph-name="Rcommaaccent" unicode="&#x156;" horiz-adv-x="529" 
d="M337 341l164 -341h-62l-161 330q-34 -2 -39 -2h-102v-328h-59v748h161q108 0 169 -49.5t61 -146.5v-28q0 -144 -132 -183zM137 693v-310h100q82 0 127 36t45 107v24q0 143 -172 143h-100zM289 -40q41 0 41 -51q0 -112 -92 -169v27q51 40 54 107h-2q-17 0 -29.5 12.5
t-12.5 30.5t11.5 30.5t29.5 12.5z" />
    <glyph glyph-name="rcommaaccent" unicode="&#x157;" horiz-adv-x="287" 
d="M75 506h53v-59q56 59 133 62v-54q-72 -3 -130 -63v-392h-56v506zM104 -40q41 0 41 -51q0 -112 -92 -169v27q51 40 54 107h-2q-17 0 -29.5 12.5t-12.5 30.5t11.5 30.5t29.5 12.5z" />
    <glyph glyph-name="Rcaron" unicode="&#x158;" horiz-adv-x="529" 
d="M281 795h-52l-111 127h50l86 -90l87 90h50zM501 0h-62l-161 330q-34 -2 -39 -2h-102v-328h-59v748h161q108 0 169 -49.5t61 -146.5v-28q0 -144 -132 -183zM137 693v-310h100q82 0 127 36t45 107v24q0 143 -172 143h-100z" />
    <glyph glyph-name="rcaron" unicode="&#x159;" horiz-adv-x="287" 
d="M297 750l-112 -151h-52l-111 151h49l88 -111l89 111h49zM261 509v-54q-72 -3 -130 -63v-392h-56v506h53v-59q56 59 133 62z" />
    <glyph glyph-name="Sacute" unicode="&#x15a;" horiz-adv-x="511" 
d="M261 757q86 0 165 -46l-8 -58q-71 48 -154 48q-68 0 -105 -39t-37 -106q0 -68 42 -97q34 -23 99 -45l16 -5q27 -9 62 -23q19 -7 49 -26q37 -24 52.5 -58.5t19.5 -99.5q0 -98 -59 -155q-59 -56 -153 -56q-118 0 -203 61l9 60q83 -64 190 -64q72 0 114 41t42 112
q0 78 -45 109q-27 19 -46 26q-18 8 -65 24l-23.5 8l-22.5 8t-15 6q-22 10 -49 25q-38 24 -54.5 57t-19.5 92q0 93 53 147t146 54zM439 910l-164 -115h-55l139 115h80z" />
    <glyph glyph-name="sacute" unicode="&#x15b;" horiz-adv-x="405" 
d="M209 515q66 0 125 -32l-8 -50q-58 33 -114 33q-47 0 -73.5 -25t-26.5 -67q1 -47 32 -66q25 -10 27 -11q3 -1 6.5 -2t5.5 -2l2 -1l35 -9q74 -21 106 -50t32 -95q0 -68 -43 -107.5t-113 -39.5q-90 0 -155 45l8 51q68 -47 143 -47q49 0 77.5 25.5t28.5 72.5q0 45 -23 65
q-22 19 -83 36q-72 20 -106 46q-34 27 -34 89q0 64 40 102.5t111 38.5zM336 750l-108 -157h-46l90 157h64z" />
    <glyph glyph-name="Scircumflex" unicode="&#x15c;" horiz-adv-x="511" 
d="M261 757q86 0 165 -46l-8 -58q-71 48 -154 48q-68 0 -105 -39t-37 -106q0 -68 42 -97q34 -23 99 -45l16 -5q27 -9 62 -23q19 -7 49 -26q37 -24 52.5 -58.5t19.5 -99.5q0 -98 -59 -155q-59 -56 -153 -56q-118 0 -203 61l9 60q83 -64 190 -64q72 0 114 41t42 112
q0 78 -45 109q-27 19 -46 26q-18 8 -65 24l-23.5 8l-22.5 8t-15 6q-22 10 -49 25q-38 24 -54.5 57t-19.5 92q0 93 53 147t146 54zM276 930l110 -128h-50l-87 91l-86 -91h-50l111 128h52z" />
    <glyph glyph-name="scircumflex" unicode="&#x15d;" horiz-adv-x="405" 
d="M209 515q66 0 125 -32l-8 -50q-58 33 -114 33q-47 0 -73.5 -25t-26.5 -67q1 -47 32 -66q25 -10 27 -11q3 -1 6.5 -2t5.5 -2l2 -1l35 -9q74 -21 106 -50t32 -95q0 -68 -43 -107.5t-113 -39.5q-90 0 -155 45l8 51q68 -47 143 -47q49 0 77.5 25.5t28.5 72.5q0 45 -23 65
q-22 19 -83 36q-72 20 -106 46q-34 27 -34 89q0 64 40 102.5t111 38.5zM232 753l112 -151h-49l-89 110l-88 -110h-49l111 151h52z" />
    <glyph glyph-name="Scedilla" unicode="&#x15e;" horiz-adv-x="511" 
d="M462 202q0 -92 -53 -148.5t-141 -61.5l-12 -59q43 -1 70.5 -23t27.5 -61q0 -36 -28.5 -59t-69.5 -23q-49 0 -83 25l12 32q26 -23 66 -23q26 0 42.5 13.5t16.5 36.5q0 26 -20 40t-53 14q-3 0 -21 -2l21 88q-108 3 -190 61l9 60q83 -64 190 -64q72 0 114 41t42 112
q0 78 -45 109q-27 19 -46 26q-18 8 -65 24l-23.5 8l-22.5 8t-15 6q-22 10 -49 25q-38 24 -54.5 57t-19.5 92q0 93 53 147t146 54q86 0 165 -46l-8 -58q-71 48 -154 48q-68 0 -105 -39t-37 -106q0 -68 42 -97q34 -23 99 -45l16 -5q27 -9 62 -23q19 -7 49 -26
q37 -24 52.5 -58.5t19.5 -99.5z" />
    <glyph glyph-name="scedilla" unicode="&#x15f;" horiz-adv-x="405" 
d="M358 138q0 -65 -38.5 -104t-104.5 -43l-12 -58q43 -1 70.5 -23t27.5 -61q0 -36 -28.5 -59t-69.5 -23q-49 0 -83 25l12 32q26 -23 66 -23q26 0 42.5 13.5t16.5 36.5q0 26 -20 40t-53 14q-3 0 -21 -2l21 88q-82 5 -137 45l8 51q68 -47 143 -47q49 0 77.5 25.5t28.5 72.5
q0 45 -23 65q-22 19 -83 36q-72 20 -106 46q-34 27 -34 89q0 64 40 102.5t111 38.5q66 0 125 -32l-8 -50q-58 33 -114 33q-47 0 -73.5 -25t-26.5 -67q1 -47 32 -66q25 -10 27 -11q3 -1 6.5 -2t5.5 -2l2 -1l35 -9q74 -21 106 -50t32 -95z" />
    <glyph glyph-name="Scaron" unicode="&#x160;" horiz-adv-x="511" 
d="M261 757q86 0 165 -46l-8 -58q-71 48 -154 48q-68 0 -105 -39t-37 -106q0 -68 42 -97q34 -23 99 -45l16 -5q27 -9 62 -23q19 -7 49 -26q37 -24 52.5 -58.5t19.5 -99.5q0 -98 -59 -155q-59 -56 -153 -56q-118 0 -203 61l9 60q83 -64 190 -64q72 0 114 41t42 112
q0 78 -45 109q-27 19 -46 26q-18 8 -65 24l-23.5 8l-22.5 8t-15 6q-22 10 -49 25q-38 24 -54.5 57t-19.5 92q0 93 53 147t146 54zM386 922l-110 -127h-52l-111 127h50l86 -90l87 90h50z" />
    <glyph glyph-name="scaron" unicode="&#x161;" horiz-adv-x="405" 
d="M209 515q66 0 125 -32l-8 -50q-58 33 -114 33q-47 0 -73.5 -25t-26.5 -67q1 -47 32 -66q25 -10 27 -11q3 -1 6.5 -2t5.5 -2l2 -1l35 -9q74 -21 106 -50t32 -95q0 -68 -43 -107.5t-113 -39.5q-90 0 -155 45l8 51q68 -47 143 -47q49 0 77.5 25.5t28.5 72.5q0 45 -23 65
q-22 19 -83 36q-72 20 -106 46q-34 27 -34 89q0 64 40 102.5t111 38.5zM344 750l-112 -151h-52l-111 151h49l88 -111l89 111h49z" />
    <glyph glyph-name="Tcaron" unicode="&#x164;" horiz-adv-x="491" 
d="M383 922l-110 -127h-52l-111 127h50l86 -90l87 90h50zM477 748v-55h-202v-693h-59v693h-203v55h464z" />
    <glyph glyph-name="tcaron" unicode="&#x165;" horiz-adv-x="450" 
d="M386 736q41 0 41 -51q0 -112 -92 -169v27q51 40 54 107h-2q-17 0 -29.5 12.5t-12.5 30.5t11.5 30.5t29.5 12.5zM267 458h-114l-2 -331q0 -45 15.5 -64.5t48.5 -19.5q26 0 53 10v-50q-35 -11 -67 -11q-106 0 -106 120l1 346h-79v48h79l1 179h57l-1 -179h114v-48z" />
    <glyph glyph-name="Tbar" unicode="&#x166;" horiz-adv-x="491" 
d="M477 693h-202v-289h128v-45h-128v-359h-59v359h-129v45h129v289h-203v55h464v-55z" />
    <glyph glyph-name="tbar" unicode="&#x167;" horiz-adv-x="317" 
d="M215 43q26 0 53 10v-50q-35 -11 -67 -11q-106 0 -106 120v140h-78v41h79v165h-79v48h79l1 179h57l-1 -179h114v-48h-114l-1 -165h115v-41h-115l-1 -125q0 -45 15.5 -64.5t48.5 -19.5z" />
    <glyph glyph-name="Utilde" unicode="&#x168;" horiz-adv-x="569" 
d="M333 861q38 0 39 43h34q2 -36 -17 -61.5t-50 -25.5t-58 24q-26 24 -47 24q-38 0 -39 -43h-33q-2 36 16.5 61t49.5 25q32 0 57 -24q28 -23 48 -23zM436 748h59v-533q0 -108 -55.5 -166t-155.5 -58q-99 0 -155 58t-56 166v533h59v-530q0 -84 40 -128t112 -44t112 44t40 128
v530z" />
    <glyph glyph-name="utilde" unicode="&#x169;" 
d="M289 666q38 0 39 43h34q2 -36 -17 -61t-50 -25t-58 24q-25 24 -47 24q-38 0 -39 -43h-33q-2 36 16.5 61t49.5 25q32 0 57 -24q27 -24 48 -24zM399 506v-506h-53v53q-56 -62 -131 -62q-68 0 -106 45t-38 121v349h56v-342q0 -120 98 -120q63 0 118 67v395h56z" />
    <glyph glyph-name="Umacron" unicode="&#x16a;" horiz-adv-x="569" 
d="M436 748h59v-533q0 -108 -55.5 -166t-155.5 -58q-99 0 -155 58t-56 166v533h59v-530q0 -84 40 -128t112 -44t112 44t40 128v530zM389 888v-44h-210v44h210z" />
    <glyph glyph-name="umacron" unicode="&#x16b;" 
d="M345 687v-44h-210v44h210zM399 506v-506h-53v53q-56 -62 -131 -62q-68 0 -106 45t-38 121v349h56v-342q0 -120 98 -120q63 0 118 67v395h56z" />
    <glyph glyph-name="Ubreve" unicode="&#x16c;" horiz-adv-x="569" 
d="M436 748h59v-533q0 -108 -55.5 -166t-155.5 -58q-99 0 -155 58t-56 166v533h59v-530q0 -84 40 -128t112 -44t112 44t40 128v530zM355 912h47q0 -48 -31.5 -75.5t-85.5 -27.5t-86 27.5t-32 75.5h47q0 -29 19 -46t52 -17q32 0 51 17t19 46z" />
    <glyph glyph-name="ubreve" unicode="&#x16d;" 
d="M311 712h47q0 -48 -31.5 -75.5t-85.5 -27.5t-86 27.5t-32 75.5h47q0 -29 19 -45.5t52 -16.5q32 0 51 17t19 45zM399 506v-506h-53v53q-56 -62 -131 -62q-68 0 -106 45t-38 121v349h56v-342q0 -120 98 -120q63 0 118 67v395h56z" />
    <glyph glyph-name="Uring" unicode="&#x16e;" horiz-adv-x="569" 
d="M285 956q33 0 56 -21.5t23 -54.5t-23 -54.5t-56 -21.5q-34 0 -57.5 21.5t-23.5 54.5t23.5 54.5t57.5 21.5zM286 922q-28 3 -39.5 -19.5t0 -45t39.5 -19.5q18 0 30 11.5t12 30.5t-12 30.5t-30 11.5zM436 748h59v-533q0 -108 -55.5 -166t-155.5 -58q-99 0 -155 58t-56 166
v533h59v-530q0 -84 40 -128t112 -44t112 44t40 128v530z" />
    <glyph glyph-name="uring" unicode="&#x16f;" 
d="M240 601q-40 0 -66.5 24t-26.5 62t26.5 62t66.5 24q39 0 65.5 -24t26.5 -62t-26.5 -62t-65.5 -24zM241 737q-24 0 -39.5 -14t-15.5 -36t15.5 -36.5t39.5 -14.5q32 -2 45.5 24.5t0 53t-45.5 23.5zM399 506v-506h-53v53q-56 -62 -131 -62q-68 0 -106 45t-38 121v349h56
v-342q0 -120 98 -120q63 0 118 67v395h56z" />
    <glyph glyph-name="Uhungarumlaut" unicode="&#x170;" horiz-adv-x="569" 
d="M299 926l-65 -128h-46l60 128h51zM436 926l-68 -128h-46l60 128h54zM436 748h59v-533q0 -108 -55.5 -166t-155.5 -58q-99 0 -155 58t-56 166v533h59v-530q0 -84 40 -128t112 -44t112 44t40 128v530z" />
    <glyph glyph-name="uhungarumlaut" unicode="&#x171;" 
d="M260 753l-68 -137h-46l63 137h51zM397 753l-71 -137h-46l63 137h54zM399 506v-506h-53v53q-56 -62 -131 -62q-68 0 -106 45t-38 121v349h56v-342q0 -120 98 -120q63 0 118 67v395h56z" />
    <glyph glyph-name="Uogonek" unicode="&#x172;" horiz-adv-x="569" 
d="M436 748h59v-533q0 -178 -144 -216q-82 -43 -82 -93q0 -48 46 -48q27 0 52 12l7 -33q-34 -14 -66 -14q-36 0 -59 21t-23 56q0 54 58 91q-99 0 -155 58t-56 166v533h59v-530q0 -84 40 -128t112 -44t112 44t40 128v530z" />
    <glyph glyph-name="uogonek" unicode="&#x173;" 
d="M397 -131l7 -33q-34 -14 -66 -14q-36 0 -59 21t-23 56q0 65 90 109v45q-56 -62 -131 -62q-68 0 -106 45t-38 121v349h56v-342q0 -120 98 -120q63 0 118 67v395h56v-506h-14q-86 -45 -86 -95q0 -48 46 -48q27 0 52 12z" />
    <glyph glyph-name="Wcircumflex" unicode="&#x174;" horiz-adv-x="843" 
d="M448 930l110 -128h-50l-87 91l-86 -91h-50l111 128h52zM831 748l-185 -748h-66l-159 621l-161 -621h-62l-185 748h61l157 -635l163 635h53l165 -635l157 635h62z" />
    <glyph glyph-name="wcircumflex" unicode="&#x175;" horiz-adv-x="727" 
d="M390 753l112 -151h-49l-89 110l-88 -110h-49l111 151h52zM705 506l-153 -506h-57l-131 415l-133 -415h-57l-153 506h59l125 -418l132 418h53l132 -418l124 418h59z" />
    <glyph glyph-name="Ycircumflex" unicode="&#x176;" horiz-adv-x="489" 
d="M271 930l110 -128h-50l-87 91l-86 -91h-50l111 128h52zM485 748l-211 -447v-301h-59v301l-210 447h64l176 -377l176 377h64z" />
    <glyph glyph-name="ycircumflex" unicode="&#x177;" 
d="M262 753l112 -151h-49l-89 110l-88 -110h-49l111 151h52zM343 506h56v-577q0 -83 -51 -133q-50 -50 -125 -50q-85 0 -150 41l15 50q63 -42 131 -42q54 0 89 37.5t35 98.5v119q-56 -59 -128 -59q-68 0 -106 45t-38 121v349h56v-342q0 -120 98 -120q63 0 118 67v395z" />
    <glyph glyph-name="Ydieresis" unicode="&#x178;" horiz-adv-x="489" 
d="M223 861q0 -21 -18 -30t-36 0t-18 30q0 14 10.5 24.5t25.5 10.5t25.5 -10.5t10.5 -24.5zM340 861q2 -21 -16.5 -30t-37.5 0t-18 30q0 14 11 24.5t26 10.5t25 -10.5t10 -24.5zM485 748l-211 -447v-301h-59v301l-210 447h64l176 -377l176 377h64z" />
    <glyph glyph-name="Zacute" unicode="&#x179;" 
d="M427 748v-47l-322 -646h333v-55h-401v47l322 646h-316v55h384zM430 910l-164 -115h-55l139 115h80z" />
    <glyph glyph-name="zacute" unicode="&#x17a;" horiz-adv-x="355" 
d="M321 506v-41l-227 -415h234v-50h-297v40l225 415h-223v51h288zM314 750l-108 -157h-46l90 157h64z" />
    <glyph glyph-name="Zdotaccent" unicode="&#x17b;" 
d="M427 748v-47l-322 -646h333v-55h-401v47l322 646h-316v55h384zM283 856q0 -16 -12.5 -28t-29.5 -12t-29 11.5t-12 28.5t12 29.5t29 12.5t29.5 -12.5t12.5 -29.5z" />
    <glyph glyph-name="zdotaccent" unicode="&#x17c;" horiz-adv-x="355" 
d="M321 506v-41l-227 -415h234v-50h-297v40l225 415h-223v51h288zM156 709q16 20 39.5 11.5t29.5 -30t-11 -39.5q-12 -11 -29 -11t-29 11q-12 12 -12 29t12 29z" />
    <glyph glyph-name="Zcaron" unicode="&#x17d;" 
d="M427 748v-47l-322 -646h333v-55h-401v47l322 646h-316v55h384zM377 922l-110 -127h-52l-111 127h50l86 -90l87 90h50z" />
    <glyph glyph-name="zcaron" unicode="&#x17e;" horiz-adv-x="355" 
d="M322 750l-112 -151h-52l-111 151h49l88 -111l89 111h49zM321 506v-41l-227 -415h234v-50h-297v40l225 415h-223v51h288z" />
    <glyph glyph-name="florin" unicode="&#x192;" horiz-adv-x="425" 
d="M325 785q75 0 127 -45l-25 -46q-39 41 -96 41q-84 0 -100 -103l-22 -126h164v-48h-173l-106 -600h-57l106 600h-116v48h124l24 136q26 143 150 143z" />
    <glyph glyph-name="Aringacute" unicode="&#x1fa;" horiz-adv-x="546" 
d="M193 859q0 45 39 66l140 108h74l-150 -101q25 -7 41 -26.5t16 -46.5q0 -33 -23 -54.5t-57 -21.5t-57 21.5t-23 54.5zM274 901q-27 3 -38.5 -19.5t0 -45t38.5 -19.5q26 -3 37 19.5t0 45t-37 19.5zM307 748l217 -748h-61l-64 221h-253l-64 -221h-61l217 748h69zM161 276
h225l-113 385z" />
    <glyph glyph-name="aringacute" unicode="&#x1fb;" horiz-adv-x="448" 
d="M234 597q-34 0 -57.5 22t-23.5 55q0 37 28 58l152 117h74l-151 -103q25 -6 41.5 -26t16.5 -46q0 -33 -23.5 -55t-56.5 -22zM277 674q0 18 -12 29.5t-30 11.5q-20 0 -32 -11.5t-12 -29.5q0 -19 12 -30.5t32 -11.5q18 0 30 11.5t12 30.5zM358 506h54v-506h-53v53
q-57 -62 -137 -62q-76 0 -121 51t-45 135v151q0 85 45 136t121 51t136 -60v51zM356 105v295q-33 34 -60 49.5t-62 15.5q-57 0 -89.5 -37t-32.5 -100v-151q0 -63 32.5 -99.5t89.5 -36.5q35 0 61.5 15t60.5 49z" />
    <glyph glyph-name="AEacute" unicode="&#x1fc;" horiz-adv-x="791" 
d="M745 693h-293v-279h279v-55h-279v-304h293v-55h-352v221h-205l-104 -221h-64l342 748h383v-55zM208 276h185v408zM699 910l-164 -115h-55l139 115h80z" />
    <glyph glyph-name="aeacute" unicode="&#x1fd;" horiz-adv-x="713" 
d="M657 240h-284v-59q0 -63 36.5 -101.5t98.5 -38.5q76 0 134 43l12 -49q-70 -44 -152 -44q-111 0 -159 86q-54 -86 -153 -86q-64 0 -101.5 35t-37.5 97q0 130 164 153l102 14v49q0 57 -30 91.5t-83 34.5q-54 0 -122 -42l-11 51q71 41 142 41q95 0 135 -70q45 70 140 70
q82 0 125.5 -50t43.5 -140v-85zM488 465q-54 0 -84.5 -35.5t-30.5 -98.5v-43h231v43q0 134 -116 134zM317 156v87l-87 -12q-63 -9 -93 -32.5t-30 -69.5q0 -41 25.5 -65t66.5 -24q49 0 84 35q34 34 34 81zM484 750l-108 -157h-46l90 157h64z" />
    <glyph glyph-name="Oslashacute" unicode="&#x1fe;" horiz-adv-x="598" 
d="M529 783l38 -27l-66 -106q39 -66 39 -165v-222q0 -126 -64 -199t-177 -73q-103 0 -168 62l-56 -91l-37 27l63 102q-43 68 -43 172v222q0 127 63.5 199.5t177.5 72.5q108 0 172 -67zM118 483v-218q0 -65 20 -114l301 486q-48 65 -141 65q-86 0 -133 -57.5t-47 -161.5z
M480 265v218q0 58 -17 106l-299 -483q48 -60 134 -60t134 58t48 161zM489 910l-164 -115h-55l139 115h80z" />
    <glyph glyph-name="oslashacute" unicode="&#x1ff;" horiz-adv-x="468" 
d="M393 546l32 -24l-46 -74q34 -49 34 -120v-151q0 -84 -48.5 -135t-129.5 -51q-71 0 -115 37l-41 -66l-33 22l45 73q-35 50 -35 120v151q0 85 48 136t131 51q70 0 116 -37zM112 327v-148q0 -38 12 -68l198 320q-31 34 -87 34q-57 0 -90 -37.5t-33 -100.5zM358 179v148
q0 39 -12 67l-198 -320q31 -34 87 -34q57 0 90 37.5t33 101.5zM364 750l-108 -157h-46l90 157h64z" />
    <glyph glyph-name="Scommaaccent" unicode="&#x218;" horiz-adv-x="511" 
d="M263 414l16 -5q27 -9 62 -23q19 -7 49 -26q37 -24 52.5 -58.5t19.5 -99.5q0 -98 -59 -155q-59 -56 -153 -56q-118 0 -203 61l9 60q83 -64 190 -64q72 0 114 41t42 112q0 78 -45 109q-27 19 -46 26q-18 8 -65 24l-23.5 8l-22.5 8t-15 6q-22 10 -49 25q-38 24 -54.5 57
t-19.5 92q0 93 53 147t146 54q86 0 165 -46l-8 -58q-71 48 -154 48q-68 0 -105 -39t-37 -106q0 -68 42 -97q34 -23 99 -45zM254 -45q41 0 41 -51q0 -112 -92 -169v27q51 40 54 107h-2q-17 0 -29.5 12.5t-12.5 30.5t11.5 30.5t29.5 12.5z" />
    <glyph glyph-name="scommaaccent" unicode="&#x219;" horiz-adv-x="405" 
d="M185 292l35 -9q74 -21 106 -50t32 -95q0 -68 -43 -107.5t-113 -39.5q-90 0 -155 45l8 51q68 -47 143 -47q49 0 77.5 25.5t28.5 72.5q0 45 -23 65q-22 19 -83 36q-72 20 -106 46q-34 27 -34 89q0 64 40 102.5t111 38.5q66 0 125 -32l-8 -50q-58 33 -114 33
q-47 0 -73.5 -25t-26.5 -67q1 -47 32 -66q25 -10 27 -11q3 -1 6.5 -2t5.5 -2zM201 -45q41 0 41 -51q0 -112 -92 -169v27q51 40 54 107h-2q-17 0 -29.5 12.5t-12.5 30.5t11.5 30.5t29.5 12.5z" />
    <glyph glyph-name="uni021A" unicode="&#x21a;" horiz-adv-x="491" 
d="M13 748h464v-55h-202v-693h-59v693h-203v55zM245 -40q41 0 41 -51q0 -112 -92 -169v27q51 40 54 107h-2q-17 0 -29.5 12.5t-12.5 30.5t11.5 30.5t29.5 12.5z" />
    <glyph glyph-name="uni021B" unicode="&#x21b;" horiz-adv-x="291" 
d="M215 43q26 0 53 10v-50q-35 -11 -67 -11q-106 0 -106 120l1 346h-79v48h79l1 179h57l-1 -179h114v-48h-114l-2 -331q0 -45 15.5 -64.5t48.5 -19.5zM172 -48q41 0 41 -51q0 -112 -92 -169v27q51 40 54 107h-2q-17 0 -29.5 12.5t-12.5 30.5t11.5 30.5t29.5 12.5z" />
    <glyph glyph-name="dotlessj" unicode="&#x237;" horiz-adv-x="205" 
d="M75 506h56v-618q0 -71 -34.5 -108t-96.5 -37q-27 0 -57 8l8 50q22 -8 43 -8q81 0 81 92v621z" />
    <glyph glyph-name="circumflex" unicode="&#x2c6;" horiz-adv-x="334" 
d="M193 753l112 -151h-49l-89 110l-88 -110h-49l111 151h52z" />
    <glyph glyph-name="caron" unicode="&#x2c7;" horiz-adv-x="334" 
d="M305 750l-112 -151h-52l-111 151h49l88 -111l89 111h49z" />
    <glyph glyph-name="breve" unicode="&#x2d8;" horiz-adv-x="265" 
d="M203 712h47q0 -48 -31.5 -75.5t-85.5 -27.5t-86 27.5t-32 75.5h47q0 -29 19 -45.5t52 -16.5q32 0 51 17t19 45z" />
    <glyph glyph-name="dotaccent" unicode="&#x2d9;" horiz-adv-x="134" 
d="M38 709q16 20 39.5 11.5t29.5 -30t-11 -39.5q-12 -11 -29 -11t-29 11q-12 12 -12 29t12 29z" />
    <glyph glyph-name="ring" unicode="&#x2da;" horiz-adv-x="223" 
d="M112 601q-40 0 -66.5 24t-26.5 62t26.5 62t66.5 24q39 0 65.5 -24t26.5 -62t-26.5 -62t-65.5 -24zM113 737q-24 0 -39.5 -14t-15.5 -36t15.5 -36.5t39.5 -14.5q32 -2 45.5 24.5t0 53t-45.5 23.5z" />
    <glyph glyph-name="ogonek" unicode="&#x2db;" horiz-adv-x="230" 
d="M171 23l10 -20q-86 -45 -86 -95q0 -48 46 -48q27 0 52 12l7 -33q-34 -14 -66 -14q-36 0 -59 21t-23 56q0 74 119 121z" />
    <glyph glyph-name="tilde" unicode="&#x2dc;" horiz-adv-x="290" 
d="M196 666q38 0 39 43h34q2 -36 -17 -61t-50 -25t-58 24q-25 24 -47 24q-38 0 -39 -43h-33q-2 36 16.5 61t49.5 25t57 -24q27 -24 48 -24z" />
    <glyph glyph-name="hungarumlaut" unicode="&#x2dd;" horiz-adv-x="312" 
d="M146 753l-68 -137h-46l63 137h51zM283 753l-71 -137h-46l63 137h54z" />
    <glyph glyph-name="commaaccentcomb" unicode="&#x326;" horiz-adv-x="0" 
d="M94 -40q41 0 41 -51q0 -112 -92 -169v26q51 40 54 108h-2q-17 0 -29.5 12.5t-12.5 30.5t11.5 30.5t29.5 12.5z" />
    <glyph glyph-name="Omega" unicode="&#x3a9;" horiz-adv-x="776" 
d="M708 372q0 -103 -49 -188q-49 -87 -107 -139h200v-45h-264v40q64 46 118 138t54 192q0 133 -72 217t-200 84t-201 -84q-72 -84 -72 -217q0 -100 54 -192q56 -93 119 -138v-40h-265v45h201q-58 53 -108 138q-48 87 -48 189q0 151 85 246q85 97 235 97t235 -96
q85 -95 85 -247z" />
    <glyph glyph-name="mu" unicode="&#x3bc;" horiz-adv-x="477" 
d="M349 506h55v-506h-52v53q-59 -62 -131 -62q-53 0 -88 28v-264h-56v751h55v-14h1v-350q11 -98 98 -98q63 0 118 67v395z" />
    <glyph glyph-name="pi" unicode="&#x3c0;" horiz-adv-x="612" 
d="M537 521l44 -26q-44 -89 -130 -89h-28l-36 -302q-7 -63 45 -63q31 0 60 25l26 -35q-44 -38 -93 -38q-97 0 -84 109l37 304h-123l-29 -232q-13 -98 -50 -174h-54q42 82 57 185l27 221h-47q-52 0 -99 -41l-26 38q59 53 135 53h257q41 0 66.5 15.5t44.5 49.5z" />
    <glyph glyph-name="Wgrave" unicode="&#x1e80;" horiz-adv-x="843" 
d="M308 910l139 -115h-56l-163 115h80zM831 748l-185 -748h-66l-159 621l-161 -621h-62l-185 748h61l157 -635l163 635h53l165 -635l157 635h62z" />
    <glyph glyph-name="wgrave" unicode="&#x1e81;" horiz-adv-x="727" 
d="M296 750l90 -157h-46l-108 157h64zM705 506l-153 -506h-57l-131 415l-133 -415h-57l-153 506h59l125 -418l132 418h53l132 -418l124 418h59z" />
    <glyph glyph-name="Wacute" unicode="&#x1e82;" horiz-adv-x="843" 
d="M611 910l-164 -115h-55l139 115h80zM831 748l-185 -748h-66l-159 621l-161 -621h-62l-185 748h61l157 -635l163 635h53l165 -635l157 635h62z" />
    <glyph glyph-name="wacute" unicode="&#x1e83;" horiz-adv-x="727" 
d="M493 750l-108 -157h-46l90 157h64zM705 506l-153 -506h-57l-131 415l-133 -415h-57l-153 506h59l125 -418l132 418h53l132 -418l124 418h59z" />
    <glyph glyph-name="Wdieresis" unicode="&#x1e84;" horiz-adv-x="843" 
d="M399 861q0 -21 -18 -30t-36 0t-18 30q0 14 10.5 24.5t25.5 10.5t25.5 -10.5t10.5 -24.5zM516 861q2 -21 -16.5 -30t-37.5 0t-18 30q0 14 11 24.5t26 10.5t25 -10.5t10 -24.5zM831 748l-185 -748h-66l-159 621l-161 -621h-62l-185 748h61l157 -635l163 635h53l165 -635
l157 635h62z" />
    <glyph glyph-name="wdieresis" unicode="&#x1e85;" horiz-adv-x="727" 
d="M338 676q0 -21 -18 -29.5t-36 0t-18 29.5q0 22 18 31t36 0t18 -31zM455 676q2 -21 -16.5 -29.5t-37.5 0t-18 29.5q-1 28 27 34t41 -14q5 -8 4 -20zM705 506l-153 -506h-57l-131 415l-133 -415h-57l-153 506h59l125 -418l132 418h53l132 -418l124 418h59z" />
    <glyph glyph-name="Ygrave" unicode="&#x1ef2;" horiz-adv-x="489" 
d="M132 910l139 -115h-56l-163 115h80zM485 748l-211 -447v-301h-59v301l-210 447h64l176 -377l176 377h64z" />
    <glyph glyph-name="ygrave" unicode="&#x1ef3;" 
d="M168 750l90 -157h-46l-108 157h64zM343 506h56v-577q0 -83 -51 -133q-50 -50 -125 -50q-85 0 -150 41l15 50q63 -42 131 -42q54 0 89 37.5t35 98.5v119q-56 -59 -128 -59q-68 0 -106 45t-38 121v349h56v-342q0 -120 98 -120q63 0 118 67v395z" />
    <glyph glyph-name="endash" unicode="&#x2013;" horiz-adv-x="427" 
d="M393 288v-53h-360v53h360z" />
    <glyph glyph-name="emdash" unicode="&#x2014;" horiz-adv-x="606" 
d="M572 288v-53h-539v53h539z" />
    <glyph glyph-name="quoteleft" unicode="&#x2018;" horiz-adv-x="166" 
d="M133 736v-27q-52 -41 -53 -108h1q26 2 37 -20t0.5 -44t-36.5 -21q-41 0 -41 51q0 112 92 169z" />
    <glyph glyph-name="quoteright" unicode="&#x2019;" horiz-adv-x="166" 
d="M84 736q41 0 41 -51q0 -112 -92 -169v26q51 40 54 108h-2q-17 0 -29.5 12.5t-12.5 30.5t11.5 30.5t29.5 12.5z" />
    <glyph glyph-name="quotesinglbase" unicode="&#x201a;" horiz-adv-x="166" 
d="M84 78q41 0 41 -51q0 -112 -92 -169v27q51 40 54 107h-2q-17 0 -29.5 12.5t-12.5 30.5t11.5 30.5t29.5 12.5z" />
    <glyph glyph-name="quotedblleft" unicode="&#x201c;" horiz-adv-x="312" 
d="M34 567q0 112 92 169v-27q-51 -40 -54 -107h2q17 0 29.5 -12.5t12.5 -30.5t-11.5 -30.5t-29.5 -12.5q-41 0 -41 51zM272 736v-27q-51 -40 -54 -107h2q17 0 29.5 -12.5t12.5 -30.5t-11.5 -30.5t-29.5 -12.5q-41 0 -41 51q0 112 92 169z" />
    <glyph glyph-name="quotedblright" unicode="&#x201d;" horiz-adv-x="312" 
d="M77 736q41 0 41 -51q0 -112 -92 -169v27q51 40 54 107h-2q-17 0 -29.5 12.5t-12.5 30.5t11.5 30.5t29.5 12.5zM222 736q41 0 41 -51q0 -112 -92 -169v27q51 40 54 107h-2q-17 0 -29.5 12.5t-12.5 30.5t11.5 30.5t29.5 12.5z" />
    <glyph glyph-name="quotedblbase" unicode="&#x201e;" horiz-adv-x="312" 
d="M84 78q41 0 41 -51q0 -112 -92 -169v27q51 40 54 107h-2q-17 0 -29.5 12.5t-12.5 30.5t11.5 30.5t29.5 12.5zM229 78q41 0 41 -51q0 -112 -92 -169v27q51 40 54 107h-2q-17 0 -29.5 12.5t-12.5 30.5t11.5 30.5t29.5 12.5z" />
    <glyph glyph-name="dagger" unicode="&#x2020;" horiz-adv-x="405" 
d="M230 748v-214h146v-51h-146v-550h-55v550h-147v51h147v214h55z" />
    <glyph glyph-name="daggerdbl" unicode="&#x2021;" horiz-adv-x="405" 
d="M230 748v-214h146v-51h-146v-284h146v-52h-146v-214h-55v214h-147v52h147v284h-147v51h147v214h55z" />
    <glyph glyph-name="bullet" unicode="&#x2022;" horiz-adv-x="349" 
d="M175 372q48 0 82 -34t34 -83q0 -50 -34 -84t-82 -34q-50 0 -84 34t-34 84q0 49 34.5 83t83.5 34z" />
    <glyph glyph-name="ellipsis" unicode="&#x2026;" horiz-adv-x="545" 
d="M94 79q28 2 40 -21t0 -46t-40 -21q-18 0 -30.5 12.5t-12.5 31.5t12.5 31.5t30.5 12.5zM272 79q19 0 32 -12.5t13 -31.5t-13 -31.5t-32 -12.5q-18 0 -30.5 12.5t-12.5 31.5t12.5 31.5t30.5 12.5zM451 79q19 0 32 -12.5t13 -31.5t-13 -31.5t-32 -12.5q-18 0 -30.5 12.5
t-12.5 31.5t12.5 31.5t30.5 12.5z" />
    <glyph glyph-name="perthousand" unicode="&#x2030;" horiz-adv-x="1081" 
d="M309 624v-107q0 -61 -33.5 -97t-92.5 -36t-93 36t-34 97v107q0 61 34 97t93 36t92.5 -36t33.5 -97zM580 748l-355 -748h-52l355 748h52zM183 714q-39 0 -60.5 -25.5t-21.5 -68.5v-99q0 -43 22 -68.5t60 -25.5t59.5 25.5t21.5 68.5v99q0 43 -21.5 68.5t-59.5 25.5z
M696 232v-108q0 -61 -33.5 -97t-92.5 -36t-93 36.5t-34 96.5v108q0 60 34 96t93 36t92.5 -35.5t33.5 -96.5zM1024 232v-108q0 -61 -33.5 -97t-92.5 -36t-93 36.5t-34 96.5v108q0 60 34 96t93 36t92.5 -35.5t33.5 -96.5zM570 321q-39 0 -60.5 -25.5t-21.5 -68.5v-99
q0 -43 21.5 -68.5t60.5 -25.5q38 0 59.5 25.5t21.5 68.5v99q0 43 -21.5 68.5t-59.5 25.5zM816 227v-99q0 -43 21.5 -68.5t60.5 -25.5q38 0 59.5 25.5t21.5 68.5v99q0 43 -21.5 68.5t-59.5 25.5t-60 -25.5t-22 -68.5z" />
    <glyph glyph-name="guilsinglleft" unicode="&#x2039;" horiz-adv-x="224" 
d="M150 462l52 -21l-122 -189l122 -190l-52 -21l-135 211z" />
    <glyph glyph-name="guilsinglright" unicode="&#x203a;" horiz-adv-x="224" 
d="M74 462l135 -210l-135 -211l-52 21l122 190l-122 189z" />
    <glyph glyph-name="fraction" unicode="&#x2044;" horiz-adv-x="156" 
d="M285 748l-355 -748h-58l355 748h58z" />
    <glyph glyph-name="Euro" unicode="&#x20ac;" horiz-adv-x="581" 
d="M523 94l19 -52q-75 -51 -173 -51q-109 0 -180 74q-69 74 -83 203h-99l13 36h83v18v103v18h-96l13 37h86q13 129 83 203t181 74q89 0 160 -45l-18 -50q-57 42 -139 42q-87 0 -141.5 -59.5t-65.5 -164.5h278l-11 -37h-270v-18v-102v-19h217l-12 -36h-202q12 -104 67 -164
t140 -60q83 0 150 50z" />
    <glyph glyph-name="trademark" unicode="&#x2122;" horiz-adv-x="729" 
d="M266 748v-40h-94v-319h-42v319h-94v40h230zM658 748v-359h-42v265l-112 -265h-21l-111 265v-265h-43v359h46l119 -283l118 283h46z" />
    <glyph glyph-name="estimated" unicode="&#x212e;" horiz-adv-x="619" 
d="M324 536q105 0 176 -68q72 -68 72 -184h-425v-173q0 -36 22 -48q64 -56 155 -56q72 0 131 34.5t99 93.5l13 -9q-90 -136 -243 -136q-117 0 -196 76t-79 195q0 122 79 198q80 77 196 77zM323 520q-88 0 -154 -54q-23 -12 -23 -46v-121h333v125q0 24 -5 34.5t-20 20.5
q-56 41 -131 41z" />
    <glyph glyph-name="partialdiff" unicode="&#x2202;" horiz-adv-x="566" 
d="M269 757q75 0 122.5 -41t77.5 -117q18 -45 27 -104q17 -101 17 -231q0 -127 -67 -200q-66 -74 -169 -74q-100 0 -165 68q-64 67 -64 180q0 109 64 176q65 68 164 68q114 0 175 -94q-6 137 -43 221q-39 95 -138 95q-80 0 -163 -56l-32 49q51 32 95 46t99 14zM281 42
q73 0 123 54q50 55 50 141v5q-1 85 -51 139t-122 54q-75 0 -124 -55t-49 -142t49 -142q49 -54 124 -54z" />
    <glyph glyph-name="product" unicode="&#x220f;" horiz-adv-x="600" 
d="M571 748v-52h-106v-860h-51v860h-227v-860h-51v860h-107v52h542z" />
    <glyph glyph-name="summation" unicode="&#x2211;" horiz-adv-x="502" 
d="M459 748v-52h-340l242 -322l-242 -321h340v-53h-410v43l250 331l-250 331v43h410z" />
    <glyph glyph-name="minus" unicode="&#x2212;" horiz-adv-x="546" 
d="M511 396v-52h-478v52h478z" />
    <glyph glyph-name="radical" unicode="&#x221a;" horiz-adv-x="612" 
d="M530 695l46 -20l-257 -752l-139 352l-117 -77l-29 45l167 107l117 -306z" />
    <glyph glyph-name="infinity" unicode="&#x221e;" horiz-adv-x="792" 
d="M588 489q76 0 124 -53t48 -130q0 -78 -48 -130q-48 -53 -124 -53q-102 0 -187 111l-25 33l-26 -33q-83 -95 -164 -95q-68 0 -112 47q-42 48 -42 119t42 119q43 49 112 49q88 0 164 -97l25 -33l21 27q47 61 92 90t100 29zM588 441q-46 0 -81.5 -25t-79.5 -82l-23 -30
l26 -33q78 -100 158 -100q54 0 89 39t35 96t-35 96t-89 39zM187 426q-48 0 -78.5 -34.5t-30.5 -86.5q0 -51 30.5 -85t78.5 -34q71 0 136 84l27 34l-26 35q-66 87 -137 87z" />
    <glyph glyph-name="integral" unicode="&#x222b;" horiz-adv-x="341" 
d="M264 757q30 0 74 -11l-10 -44q-24 9 -54 9q-42 0 -58.5 -24t-16.5 -85v-615q0 -85 -27.5 -121.5t-92.5 -36.5q-36 0 -75 11l9 43q37 -8 54 -8q46 0 64 25.5t18 88.5v615q0 82 26.5 117.5t88.5 35.5z" />
    <glyph glyph-name="approxequal" unicode="&#x2248;" horiz-adv-x="532" 
d="M479 542l26 -37q-34 -42 -66.5 -60.5t-78.5 -18.5q-52 0 -105 32q-53 33 -85 33q-37 0 -62 -13.5t-55 -47.5l-27 37q34 41 65 58.5t74 17.5q39 0 92 -32t98 -32q40 0 67 14t57 49zM479 313l26 -37q-34 -42 -66.5 -60.5t-78.5 -18.5q-52 0 -105 32q-53 33 -85 33
q-37 0 -62 -13.5t-55 -47.5l-27 37q34 41 65 58.5t74 17.5q39 0 92 -33q53 -32 98 -32q40 0 67 14.5t57 49.5z" />
    <glyph glyph-name="notequal" unicode="&#x2260;" horiz-adv-x="546" 
d="M511 459h-183l-72 -184h255v-53h-275l-53 -137l-49 13l48 124h-149v53h169l72 184h-241v53h261l53 137l49 -13l-48 -124h163v-53z" />
    <glyph glyph-name="lessequal" unicode="&#x2264;" horiz-adv-x="508" 
d="M473 643l2 -56l-333 -147l333 -145l-2 -57l-446 202zM475 173v-53h-448v53h448z" />
    <glyph glyph-name="greaterequal" unicode="&#x2265;" horiz-adv-x="508" 
d="M35 643l446 -203l-446 -202l-2 57l334 145l-334 147zM481 173v-53h-448v53h448z" />
    <glyph glyph-name="lozenge" unicode="&#x25ca;" horiz-adv-x="525" 
d="M281 748l205 -402l-205 -401h-36l-206 401l206 402h36zM263 666l-165 -320l165 -319l164 319z" />
    <glyph glyph-name="fl" unicode="&#xfb02;" horiz-adv-x="471" 
d="M229 773q25 0 49 -7l-4 -50q-20 7 -39 7q-78 0 -78 -93v-124h105v-48h-105v-458h-56v458h-85v48h85v122q0 71 34 108t94 37zM396 765v-765h-56v765h56z" />
    <glyph glyph-name="NULL" horiz-adv-x="0" 
 />
    <glyph glyph-name="CR.001" horiz-adv-x="333" 
 />
    <glyph glyph-name="J.alt" horiz-adv-x="399" 
d="M60 748h265v-548q0 -99 -48 -154t-133 -55q-68 0 -117 33l14 54q41 -32 99 -32q59 0 92.5 40t33.5 113v495h-206v54z" />
    <glyph glyph-name="Jcircumflex.alt" horiz-adv-x="399" 
d="M221 930l110 -128h-50l-87 91l-86 -91h-50l111 128h52zM60 748h265v-548q0 -99 -48.5 -154t-133.5 -55q-67 0 -116 33l14 54q41 -32 99 -32q59 0 92.5 40t33.5 113v495h-206v54z" />
    <glyph glyph-name="a.alt" horiz-adv-x="444" 
d="M214 515q74 0 117 -46.5t43 -124.5v-344h-53v51q-59 -60 -135 -60q-61 0 -98 36t-37 96q0 130 164 153l103 14v49q0 56 -30.5 91t-83.5 35q-54 0 -122 -42l-11 51q71 41 143 41zM318 102v141l-88 -12q-63 -9 -93 -32.5t-30 -69.5q0 -42 25 -65.5t70 -23.5q56 0 116 62z
" />
    <glyph glyph-name="aacute.alt" horiz-adv-x="444" 
d="M355 750l-108 -157h-46l90 157h64zM213 515q75 0 117.5 -46.5t42.5 -124.5v-344h-52v51q-60 -60 -135 -60q-61 0 -98 36t-37 96q0 130 164 153l103 14v49q0 56 -30.5 91t-83.5 35q-54 0 -122 -42l-12 51q74 41 143 41zM318 102v141l-88 -12q-63 -9 -93 -32.5t-30 -69.5
q0 -42 25 -65.5t70 -23.5q54 0 116 62z" />
    <glyph glyph-name="abreve.alt" horiz-adv-x="444" 
d="M296 712h47q0 -48 -31.5 -75.5t-85.5 -27.5t-86 27.5t-32 75.5h47q0 -29 19 -45.5t52 -16.5q32 0 51 17t19 45zM213 515q75 0 117.5 -46.5t42.5 -124.5v-344h-52v51q-60 -60 -135 -60q-61 0 -98 36t-37 96q0 130 164 153l103 14v49q0 56 -30.5 91t-83.5 35
q-54 0 -122 -42l-12 51q74 41 143 41zM318 102v141l-88 -12q-63 -9 -93 -32.5t-30 -69.5q0 -42 25 -65.5t70 -23.5q54 0 116 62z" />
    <glyph glyph-name="acircumflex.alt" horiz-adv-x="444" 
d="M251 753l112 -151h-49l-89 110l-88 -110h-49l111 151h52zM213 515q75 0 117.5 -46.5t42.5 -124.5v-344h-52v51q-60 -60 -135 -60q-61 0 -98 36t-37 96q0 130 164 153l103 14v49q0 56 -30.5 91t-83.5 35q-54 0 -122 -42l-12 51q74 41 143 41zM318 102v141l-88 -12
q-63 -9 -93 -32.5t-30 -69.5q0 -42 25 -65.5t70 -23.5q54 0 116 62z" />
    <glyph glyph-name="adieresis.alt" horiz-adv-x="444" 
d="M199 676q0 -21 -18 -29.5t-36 0t-18 29.5q0 22 18 31t36 0t18 -31zM316 676q2 -21 -16.5 -29.5t-37.5 0t-18 29.5q-1 28 27 34t41 -14q5 -8 4 -20zM213 515q75 0 117.5 -46.5t42.5 -124.5v-344h-52v51q-60 -60 -135 -60q-61 0 -98 36t-37 96q0 130 164 153l103 14v49
q0 56 -30.5 91t-83.5 35q-54 0 -122 -42l-12 51q74 41 143 41zM318 102v141l-88 -12q-63 -9 -93 -32.5t-30 -69.5q0 -42 25 -65.5t70 -23.5q54 0 116 62z" />
    <glyph glyph-name="agrave.alt" horiz-adv-x="444" 
d="M157 750l90 -157h-46l-108 157h64zM213 515q75 0 117.5 -46.5t42.5 -124.5v-344h-52v51q-60 -60 -135 -60q-61 0 -98 36t-37 96q0 130 164 153l103 14v49q0 56 -30.5 91t-83.5 35q-54 0 -122 -42l-12 51q74 41 143 41zM318 102v141l-88 -12q-63 -9 -93 -32.5t-30 -69.5
q0 -42 25 -65.5t70 -23.5q54 0 116 62z" />
    <glyph glyph-name="amacron.alt" horiz-adv-x="444" 
d="M330 687v-44h-210v44h210zM213 515q75 0 117.5 -46.5t42.5 -124.5v-344h-52v51q-60 -60 -135 -60q-61 0 -98 36t-37 96q0 130 164 153l103 14v49q0 56 -30.5 91t-83.5 35q-54 0 -122 -42l-12 51q74 41 143 41zM318 102v141l-88 -12q-63 -9 -93 -32.5t-30 -69.5
q0 -42 25 -65.5t70 -23.5q54 0 116 62z" />
    <glyph glyph-name="aogonek.alt" horiz-adv-x="444" 
d="M372 -131l7 -33q-34 -14 -66 -14q-36 0 -59 21t-23 56q0 65 90 109v43q-60 -60 -135 -60q-61 0 -98 36t-37 96q0 130 164 153l103 14v49q0 56 -30.5 91t-83.5 35q-54 0 -122 -42l-12 51q74 41 143 41q75 0 117.5 -46.5t42.5 -124.5v-344h-13q-86 -45 -86 -95
q0 -48 46 -48q26 0 52 12zM318 102v141l-88 -12q-63 -9 -93 -32.5t-30 -69.5q0 -42 25 -65.5t70 -23.5q54 0 116 62z" />
    <glyph glyph-name="aring.alt" horiz-adv-x="444" 
d="M225 601q-40 0 -66.5 24t-26.5 62t26.5 62t66.5 24q39 0 65.5 -24t26.5 -62t-26.5 -62t-65.5 -24zM226 737q-24 0 -39.5 -14t-15.5 -36t15.5 -36.5t39.5 -14.5q32 -2 45.5 24.5t0 53t-45.5 23.5zM213 515q75 0 117.5 -46.5t42.5 -124.5v-344h-52v51q-60 -60 -135 -60
q-61 0 -98 36t-37 96q0 130 164 153l103 14v49q0 56 -30.5 91t-83.5 35q-54 0 -122 -42l-12 51q74 41 143 41zM318 102v141l-88 -12q-63 -9 -93 -32.5t-30 -69.5q0 -42 25 -65.5t70 -23.5q54 0 116 62z" />
    <glyph glyph-name="aringacute.alt" horiz-adv-x="487" 
d="M233 597q-34 0 -57 22t-23 55q0 36 27 58l152 117h74l-151 -103q25 -6 41.5 -26t16.5 -46q0 -33 -23.5 -55t-56.5 -22zM276 674q0 18 -11.5 29.5t-30.5 11.5q-20 0 -32 -11.5t-12 -29.5q0 -19 12 -30.5t32 -11.5q19 0 30.5 11.5t11.5 30.5zM213 515q75 0 117.5 -46.5
t42.5 -124.5v-344h-52v51q-60 -60 -135 -60q-61 0 -98 36t-37 96q0 130 164 153l103 14v49q0 56 -30.5 91t-83.5 35q-54 0 -122 -42l-12 51q74 41 143 41zM318 102v141l-88 -12q-63 -9 -93 -32.5t-30 -69.5q0 -42 25 -65.5t70 -23.5q54 0 116 62z" />
    <glyph glyph-name="atilde.alt" horiz-adv-x="444" 
d="M274 666q38 0 39 43h34q2 -36 -17 -61t-50 -25t-58 24q-26 24 -47 24q-38 0 -39 -43h-33q-2 36 16.5 61t49.5 25t57 -24q27 -24 48 -24zM213 515q75 0 117.5 -46.5t42.5 -124.5v-344h-52v51q-60 -60 -135 -60q-61 0 -98 36t-37 96q0 130 164 153l103 14v49q0 56 -30.5 91
t-83.5 35q-54 0 -122 -42l-12 51q74 41 143 41zM318 102v141l-88 -12q-63 -9 -93 -32.5t-30 -69.5q0 -42 25 -65.5t70 -23.5q54 0 116 62z" />
    <glyph glyph-name="germandbls.cap" horiz-adv-x="476" 
d="M225 757q111 0 176 -98l-99 -225q64 -42 96 -90q32 -47 32 -128v-20q0 -96 -55.5 -146.5t-150.5 -50.5v53q66 0 106.5 39t40.5 112v15q0 81 -39 126q-23 26 -40 38q-26 19 -54 37l98 223q-40 60 -109 60q-43 0 -69.5 -26.5t-26.5 -71.5v-604h-59v610q0 66 42 106.5
t111 40.5z" />
    <glyph glyph-name="a.sups" horiz-adv-x="393" 
d="M185 755q66 0 108 -47v40h46v-405h-46v41q-45 -47 -108 -47q-61 0 -97.5 40.5t-36.5 108.5v120q0 68 36.5 108.5t97.5 40.5zM99 606v-120q0 -49 25.5 -77.5t70.5 -28.5q50 0 96 49v235q-49 48 -96 48q-45 0 -70.5 -28.5t-25.5 -77.5z" />
    <glyph glyph-name="a.alt.sups" horiz-adv-x="366" 
d="M183 755q59 0 93 -37t34 -100v-275h-45v42q-49 -48 -109 -48q-49 0 -78 28t-29 78q0 101 131 121l82 11v39q0 45 -23 71t-65 26q-45 0 -98 -32l-7 43q55 33 114 33zM261 427v108l-67 -10q-50 -6 -73.5 -24t-23.5 -54q0 -32 18.5 -49.5t51.5 -17.5q52 0 94 47z" />
    <glyph glyph-name="b.sups" horiz-adv-x="404" 
d="M66 955h47v-244q49 44 106 44q61 0 97.5 -40.5t36.5 -108.5v-120q0 -68 -36.5 -108.5t-97.5 -40.5q-63 0 -108 47v-41h-45v612zM209 712q-46 0 -96 -49v-235q49 -48 96 -48q45 0 71 28.5t26 77.5v120q0 49 -26 77.5t-71 28.5z" />
    <glyph glyph-name="c.sups" horiz-adv-x="321" 
d="M191 755q55 0 99 -32l-7 -39q-41 30 -87 30q-42 0 -69.5 -31t-27.5 -79v-115q0 -49 28 -80t71 -31q51 0 90 30l8 -40q-43 -31 -104 -31q-62 0 -101.5 41t-39.5 108v120q0 66 39 107.5t101 41.5z" />
    <glyph glyph-name="d.sups" horiz-adv-x="404" 
d="M338 955v-612h-45v41q-45 -47 -108 -47q-61 0 -97.5 40.5t-36.5 108.5v120q0 68 36.5 108.5t97.5 40.5q57 0 106 -44v244h47zM195 712q-45 0 -70.5 -28.5t-25.5 -77.5v-120q0 -50 25 -78t71 -28q47 0 96 48v235q-27 26 -47.5 37.5t-48.5 11.5z" />
    <glyph glyph-name="e.sups" horiz-adv-x="373" 
d="M325 534h-226v-45q0 -49 29 -79.5t77 -30.5q58 0 108 35l10 -42q-56 -35 -123 -35t-108 41t-41 108v119q0 69 37 109.5t102 40.5t100 -40t35 -112v-69zM189 713q-42 0 -66 -28.5t-24 -77.5v-33h180v33q0 106 -90 106z" />
    <glyph glyph-name="f.sups" horiz-adv-x="231" 
d="M194 961q25 0 46 -6l-6 -43q-22 5 -36 5q-62 0 -62 -72v-97h85v-41h-85v-364h-48v364h-68v41h68v95q0 58 28 88t78 30z" />
    <glyph glyph-name="g.sups" horiz-adv-x="405" 
d="M185 755q65 0 108 -49v42h46v-461q0 -67 -41 -106.5t-108 -39.5q-73 0 -129 35l12 44q53 -38 112 -38q48 0 76.5 28.5t28.5 78.5v93q-45 -45 -105 -45q-61 0 -97.5 40.5t-36.5 108.5v120q0 68 36.5 108.5t97.5 40.5zM99 606v-120q0 -49 25.5 -77.5t70.5 -28.5q50 0 96 49
v235q-49 48 -96 48q-45 0 -70.5 -28.5t-25.5 -77.5z" />
    <glyph glyph-name="h.sups" horiz-adv-x="394" 
d="M66 955h47v-247q42 47 102 47q54 0 85 -37t31 -101v-274h-47v266q0 48 -20.5 74.5t-58.5 26.5q-46 0 -92 -52v-315h-47v612z" />
    <glyph glyph-name="i.sups" horiz-adv-x="178" 
d="M88 929q14 0 23.5 -9.5t9.5 -23.5q0 -13 -9.5 -22.5t-23.5 -9.5q-19 0 -27 16t0 32.5t27 16.5zM114 748v-405h-49v405h49z" />
    <glyph glyph-name="j.sups" horiz-adv-x="178" 
d="M88 929q14 0 23.5 -9.5t9.5 -23.5q0 -13 -9.5 -22.5t-23.5 -9.5q-19 0 -27 16t0 32.5t27 16.5zM65 748h48v-490q0 -58 -28 -87.5t-79 -29.5q-21 0 -46 5l7 43q17 -6 35 -6q63 0 63 72v493z" />
    <glyph glyph-name="k.sups" horiz-adv-x="348" 
d="M113 955v-387h34l123 180h52l-131 -198l142 -207h-54l-130 183h-36v-183h-47v612h47z" />
    <glyph glyph-name="l.sups" horiz-adv-x="180" 
d="M113 955v-612h-47v612h47z" />
    <glyph glyph-name="m.sups" horiz-adv-x="610" 
d="M430 755q56 0 86.5 -37t30.5 -101v-274h-47v265q0 48 -21 75t-60 27q-49 0 -92 -54q3 -18 3 -39v-274h-47v265q0 48 -21 75t-60 27q-49 0 -89 -52v-315h-47v405h45v-42q40 49 103 49q72 0 100 -60q50 60 116 60z" />
    <glyph glyph-name="n.sups" horiz-adv-x="394" 
d="M214 755q54 0 85.5 -37.5t31.5 -100.5v-274h-47v267q0 46 -21 73t-58 27q-46 0 -92 -52v-315h-47v405h45v-41q39 48 103 48z" />
    <glyph glyph-name="o.sups" horiz-adv-x="390" 
d="M339 606v-120q0 -68 -38.5 -108.5t-105.5 -40.5t-105.5 40.5t-38.5 108.5v120q0 68 39 108.5t105 40.5t105 -40.5t39 -108.5zM99 604v-117q0 -50 25.5 -79.5t70.5 -29.5t71 30t26 79v117q0 50 -26 80t-71 30t-70.5 -29.5t-25.5 -80.5z" />
    <glyph glyph-name="p.sups" horiz-adv-x="404" 
d="M219 755q61 0 97.5 -40.5t36.5 -108.5v-120q0 -68 -36.5 -108.5t-97.5 -40.5q-57 0 -106 44v-234h-47v601h45v-40q45 47 108 47zM209 712q-43 0 -96 -48v-235q50 -49 96 -49q45 0 71 28.5t26 77.5v120q0 49 -26 77.5t-71 28.5z" />
    <glyph glyph-name="q.sups" horiz-adv-x="404" 
d="M185 755q63 0 108 -47v40h45v-601h-47v234q-49 -44 -106 -44q-61 0 -97.5 40.5t-36.5 108.5v120q0 68 36.5 108.5t97.5 40.5zM195 712q-45 0 -70.5 -28.5t-25.5 -77.5v-120q0 -49 25.5 -77.5t70.5 -28.5q28 0 48.5 11.5t47.5 37.5v235q-14 14 -28 24q-30 24 -68 24z" />
    <glyph glyph-name="r.sups" horiz-adv-x="242" 
d="M216 750v-45q-54 -2 -103 -51v-311h-47v405h45v-47q43 47 105 49z" />
    <glyph glyph-name="s.sups" horiz-adv-x="339" 
d="M175 755q55 0 99 -24l-4 -45q-46 28 -93 28q-37 0 -58 -19.5t-21 -52.5q0 -5 0.5 -10t1 -8.5t3 -7.5t3 -5.5t4 -5.5t4 -4.5l4.5 -4.5l5 -5q13 -8 29 -11l35 -10q59 -16 83.5 -40.5t24.5 -73.5q0 -56 -34 -87.5t-92 -31.5q-73 0 -126 33l7 45q52 -37 115 -37
q39 0 61.5 20.5t22.5 56.5q0 35 -18 49q-17 14 -67 28q-62 17 -87 39.5t-25 70.5q0 51 33 82t90 31z" />
    <glyph glyph-name="t.sups" horiz-adv-x="246" 
d="M180 381q25 0 43 7v-42q-23 -9 -54 -9q-87 0 -87 97l1 273h-63v41h63l1 143h49l-1 -143h90v-41h-90l-2 -259q0 -67 50 -67z" />
    <glyph glyph-name="u.sups" horiz-adv-x="394" 
d="M327 748v-405h-45v41q-43 -48 -103 -48q-54 0 -85.5 37.5t-31.5 100.5v274h47v-267q0 -46 21 -73t58 -27q46 0 92 52v315h47z" />
    <glyph glyph-name="v.sups" horiz-adv-x="353" 
d="M330 748l-126 -405h-54l-127 405h50l104 -333l103 333h50z" />
    <glyph glyph-name="w.sups" horiz-adv-x="596" 
d="M573 748l-123 -405h-49l-103 320l-103 -320h-50l-122 405h50l100 -332l102 332h45l103 -332l99 332h51z" />
    <glyph glyph-name="x.sups" horiz-adv-x="369" 
d="M328 748l-108 -198l112 -207h-53l-95 171l-96 -171h-53l114 207l-109 198h53l91 -164l91 164h53z" />
    <glyph glyph-name="y.sups" horiz-adv-x="394" 
d="M280 748h47v-461q0 -66 -40 -106t-101 -40q-67 0 -123 32l13 42q52 -33 105 -33q43 0 71 29.5t28 77.5v92q-41 -45 -101 -45q-54 0 -85.5 37.5t-31.5 100.5v274h47v-267q0 -46 21 -73t58 -27q46 0 92 52v315z" />
    <glyph glyph-name="z.sups" horiz-adv-x="299" 
d="M265 748v-34l-179 -328h185v-43h-240v35l178 327h-176v43h232z" />
    <glyph glyph-name="zero.onum" horiz-adv-x="544" 
d="M271 601q102 0 158 -66t56 -183v-112q0 -117 -56.5 -183t-157.5 -66q-99 0 -156 67t-57 182v112q0 117 56 183t157 66zM118 352v-112q0 -92 40 -143t113 -51q74 0 114 50.5t40 143.5v112q0 93 -40 144t-114 51t-113.5 -51t-39.5 -144z" />
    <glyph glyph-name="one.onum" horiz-adv-x="333" 
d="M256 590v-590h-59v516l-169 -137v67l177 144h51z" />
    <glyph glyph-name="two.onum" horiz-adv-x="519" 
d="M250 599q92 0 145.5 -51.5t53.5 -136.5q0 -64 -29 -110q-30 -47 -94 -104l-160 -143h294v-54h-385v49l195 174l53 48q12 12 34 39q33 40 33 99q0 61 -38.5 98t-106.5 37q-76 0 -153 -47l-7 55q79 47 165 47z" />
    <glyph glyph-name="three.onum" horiz-adv-x="489" 
d="M233 599q81 0 134 -50t53 -135v-22q0 -53 -27 -96t-70 -62q51 -14 81.5 -60t30.5 -112v-29q0 -92 -56 -146t-148 -54q-100 0 -173 59l9 58q68 -62 161 -62q67 0 107 39.5t40 108.5v28q0 66 -34.5 104t-92.5 38h-89v52h89q46 0 79 38q34 37 34 93v21q0 62 -36.5 97.5
t-95.5 35.5q-91 0 -153 -60l-10 58q67 58 167 58z" />
    <glyph glyph-name="four.onum" horiz-adv-x="503" 
d="M358 590v-497h113v-54h-113v-197h-58v197h-267v49l267 502h58zM300 471l-205 -378h205v378z" />
    <glyph glyph-name="five.onum" 
d="M404 590v-54h-271v-269h89q93 0 147.5 -55t54.5 -148v-36q0 -92 -53.5 -143.5t-144.5 -51.5q-101 0 -174 59l13 58q65 -62 157 -62q66 0 104.5 36.5t38.5 105.5v28q0 74 -42.5 114.5t-118.5 40.5h-130v377h330z" />
    <glyph glyph-name="six.onum" horiz-adv-x="509" 
d="M266 454q80 0 133 -56t53 -147v-51q0 -94 -52 -152q-52 -57 -141 -57q-93 0 -142 60q-58 67 -58 195v275q0 103 56 170q57 66 147 66q92 0 165 -56l-10 -58q-62 58 -153 58q-64 0 -105 -48.5t-41 -126.5v-132q60 60 148 60zM392 199v50q0 67 -38 108.5t-96 41.5
q-47 0 -77.5 -17.5t-62.5 -56.5v-96q0 -87 37 -137q34 -46 104 -46q60 0 96.5 42t36.5 111z" />
    <glyph glyph-name="seven.onum" horiz-adv-x="421" 
d="M395 590v-48l-260 -700h-62l260 696h-306v52h368z" />
    <glyph glyph-name="eight.onum" horiz-adv-x="531" 
d="M453 573v-20q0 -55 -25.5 -97t-66.5 -60q46 -19 75.5 -67.5t29.5 -109.5v-24q0 -92 -53 -148t-147 -56t-147 56t-53 148v24q0 62 29 110t75 67q-42 17 -67 59t-25 98v20q0 82 51 133t137 51t136.5 -50.5t50.5 -133.5zM265 702q-58 0 -93 -36.5t-35 -95.5v-17
q0 -59 33.5 -96t94.5 -37t95 37t34 96v17q0 60 -35 96t-94 36zM125 217v-20q0 -69 37 -110t104 -41q66 0 103 41.5t37 109.5v20q0 68 -38 108.5t-102 40.5t-102.5 -40.5t-38.5 -108.5z" />
    <glyph glyph-name="nine.onum" horiz-adv-x="509" 
d="M386 539q58 -70 58 -195v-275q0 -104 -57 -170q-56 -66 -146 -66q-94 0 -165 56l10 58q62 -58 152 -58q65 0 106 48.5t41 126.5v132q-60 -60 -148 -60q-81 0 -133 55q-53 56 -53 148v51q0 95 52 151q52 58 141 58q92 0 142 -60zM245 191q47 0 77.5 18t62.5 57v95
q0 87 -37 137q-37 46 -104 46q-60 0 -96.5 -42t-36.5 -111v-50q0 -67 38 -108.5t96 -41.5z" />
    <glyph glyph-name="zero.slash" horiz-adv-x="544" 
d="M485 503v-258q0 -119 -56.5 -186.5t-157.5 -67.5q-100 0 -156.5 67.5t-56.5 186.5v258q0 120 55.5 187t157.5 67t158 -67t56 -187zM118 503v-258q0 -53 14 -98l260 494q-40 61 -121 61q-74 0 -113.5 -51.5t-39.5 -147.5zM425 245v258q0 52 -12 91l-258 -492
q41 -56 116 -56q74 0 114 52.5t40 146.5z" />
    <glyph glyph-name="zero.subs" horiz-adv-x="316" 
d="M279 196v-140q0 -66 -32 -103.5t-89 -37.5t-89 37.5t-32 103.5v140q0 66 31.5 103t89.5 37t89.5 -37t31.5 -103zM80 195v-139q0 -48 20.5 -74.5t57.5 -26.5t57 26.5t20 74.5v139q0 48 -20 75t-57 27t-57.5 -27t-20.5 -75z" />
    <glyph glyph-name="one.subs" horiz-adv-x="201" 
d="M154 331v-411h-43v357l-90 -69v48l95 75h38z" />
    <glyph glyph-name="two.subs" horiz-adv-x="298" 
d="M143 336q52 0 83 -30t31 -81q0 -41 -15 -71t-51 -75l-93 -119h164v-40h-218v34l115 147q55 69 55 121q0 34 -19.5 54t-54.5 20q-43 0 -84 -26l-5 43q41 23 92 23z" />
    <glyph glyph-name="three.subs" horiz-adv-x="285" 
d="M134 336q49 0 78.5 -28.5t29.5 -76.5v-11q0 -29 -14 -52t-35 -33q26 -9 42 -33.5t16 -58.5v-15q0 -52 -32 -82.5t-85 -30.5q-54 0 -97 30l6 43q40 -33 88 -33q35 0 56 20t21 55v14q0 33 -17.5 51.5t-47.5 18.5h-49v39h49q22 0 39 19t17 46v11q0 30 -18.5 48.5t-48.5 18.5
q-49 0 -84 -32l-6 43q44 29 92 29z" />
    <glyph glyph-name="four.subs" horiz-adv-x="295" 
d="M212 331v-270h59v-40h-59v-101h-43v101h-146v36l146 274h43zM169 253l-103 -192h103v192z" />
    <glyph glyph-name="five.subs" horiz-adv-x="275" 
d="M234 331v-40h-145v-134h42q51 0 82 -30.5t31 -81.5v-21q0 -51 -30.5 -80t-82.5 -29q-56 0 -97 31l8 42q36 -33 86 -33q34 0 53.5 18.5t19.5 52.5v15q0 38 -22 58t-61 20h-71v212h187z" />
    <glyph glyph-name="six.subs" horiz-adv-x="297" 
d="M156 172q46 0 75.5 -31.5t29.5 -82.5v-25q0 -54 -29.5 -86t-80.5 -32t-80 33q-34 40 -34 110v145q0 59 32.5 96t85.5 37q51 0 91 -28l-6 -42q-34 30 -82 30q-34 0 -55.5 -24.5t-21.5 -65.5v-63q34 29 75 29zM218 31v29q0 33 -19 53.5t-49 20.5q-38 0 -69 -36v-53
q0 -42 18 -66t52 -24q31 0 49 21t18 55z" />
    <glyph glyph-name="seven.subs" horiz-adv-x="251" 
d="M229 331v-34l-139 -377h-44l137 373h-162v38h208z" />
    <glyph glyph-name="eight.subs" horiz-adv-x="309" 
d="M154 336q49 0 78 -28.5t29 -74.5v-11q0 -65 -47 -85q25 -11 39.5 -36.5t14.5 -58.5v-12q0 -52 -30 -83.5t-84 -31.5q-53 0 -83 31.5t-30 83.5v12q0 32 15.5 57.5t39.5 37.5q-48 21 -48 85v11q0 46 29 74.5t77 28.5zM89 231v-13q0 -30 17.5 -48t47.5 -18q32 0 49 18t17 48
v13q0 30 -18 48t-48 18t-47.5 -18t-17.5 -48zM154 116q-31 0 -50.5 -20.5t-19.5 -53.5v-12q0 -34 18.5 -54.5t51.5 -20.5t52 20.5t19 54.5v12q0 34 -19.5 54t-51.5 20z" />
    <glyph glyph-name="nine.subs" horiz-adv-x="297" 
d="M228 304q33 -40 33 -111v-145q0 -59 -32.5 -96t-85.5 -37q-50 0 -90 28l6 42q35 -30 81 -30q34 0 56 25t22 65v64q-32 -30 -75 -30q-46 0 -76 32t-30 83v24q0 53 30 85.5t81 32.5q53 0 80 -32zM149 117q39 0 69 38v51q0 42 -18 66.5t-52 24.5q-30 0 -48.5 -21.5
t-18.5 -55.5v-29q0 -33 19 -53.5t49 -20.5z" />
    <glyph glyph-name="zero.sups" horiz-adv-x="316" 
d="M279 678v-140q0 -66 -32 -103.5t-89 -37.5t-89 37.5t-32 103.5v140q0 66 31.5 103t89.5 37t89.5 -37t31.5 -103zM80 677v-139q0 -48 20.5 -74.5t57.5 -26.5t57 26.5t20 74.5v139q0 48 -20 75t-57 27t-57.5 -27t-20.5 -75z" />
    <glyph glyph-name="one.sups" horiz-adv-x="201" 
d="M154 813v-411h-43v357l-90 -69v48l95 75h38z" />
    <glyph glyph-name="two.sups" horiz-adv-x="298" 
d="M143 818q52 0 83 -30t31 -81q0 -41 -15 -71t-51 -75l-93 -119h164v-40h-218v34l115 147q55 69 55 121q0 34 -19.5 54t-54.5 20q-43 0 -84 -26l-5 43q41 23 92 23z" />
    <glyph glyph-name="three.sups" horiz-adv-x="285" 
d="M134 818q49 0 78.5 -28.5t29.5 -76.5v-11q0 -29 -14 -52t-35 -33q26 -9 42 -33.5t16 -58.5v-15q0 -52 -32 -82.5t-85 -30.5q-54 0 -97 30l6 43q41 -33 88 -33q35 0 56 20t21 55v14q0 33 -17.5 51.5t-47.5 18.5h-49v39h49q22 0 39 19t17 46v11q0 30 -18.5 48.5t-48.5 18.5
q-49 0 -84 -32l-6 43q44 29 92 29z" />
    <glyph glyph-name="four.sups" horiz-adv-x="295" 
d="M212 813v-270h59v-40h-59v-101h-43v101h-146v36l146 274h43zM169 735l-103 -192h103v192z" />
    <glyph glyph-name="five.sups" horiz-adv-x="275" 
d="M234 813v-40h-145v-134h42q51 0 82 -30.5t31 -81.5v-21q0 -51 -30.5 -80t-82.5 -29q-56 0 -97 31l8 42q36 -33 86 -33q34 0 53.5 18.5t19.5 52.5v15q0 38 -22 58t-61 20h-71v212h187z" />
    <glyph glyph-name="six.sups" horiz-adv-x="297" 
d="M156 654q46 0 75.5 -31.5t29.5 -82.5v-25q0 -54 -29.5 -86t-80.5 -32t-80 33q-34 40 -34 110v145q0 59 32.5 96t85.5 37q51 0 91 -28l-6 -42q-34 30 -82 30q-34 0 -55.5 -24.5t-21.5 -65.5v-63q34 29 75 29zM218 513v29q0 33 -19 53.5t-49 20.5q-38 0 -69 -36v-53
q0 -42 18 -66t52 -24q31 0 49 21t18 55z" />
    <glyph glyph-name="seven.sups" horiz-adv-x="251" 
d="M229 813v-34l-139 -377h-44l137 373h-162v38h208z" />
    <glyph glyph-name="eight.sups" horiz-adv-x="309" 
d="M154 818q49 0 78 -28.5t29 -74.5v-11q0 -65 -47 -85q25 -11 39.5 -36.5t14.5 -58.5v-12q0 -52 -30 -83.5t-84 -31.5q-53 0 -83 31.5t-30 83.5v12q0 32 15.5 57.5t39.5 37.5q-48 21 -48 85v11q0 46 29 74.5t77 28.5zM89 713v-13q0 -30 17.5 -48t47.5 -18q32 0 49 18t17 48
v13q0 30 -18 48t-48 18t-47.5 -18t-17.5 -48zM154 598q-31 0 -50.5 -20.5t-19.5 -53.5v-12q0 -34 18.5 -54.5t51.5 -20.5t52 20.5t19 54.5v12q0 34 -19.5 54t-51.5 20z" />
    <glyph glyph-name="nine.sups" horiz-adv-x="297" 
d="M228 786q33 -40 33 -111v-145q0 -59 -32.5 -96t-85.5 -37q-50 0 -90 28l6 42q35 -30 81 -30q34 0 56 25t22 65v64q-32 -30 -75 -30q-46 0 -76 32t-30 83v24q0 53 30 85.5t81 32.5q53 0 80 -32zM149 599q39 0 69 38v51q0 42 -18 66.5t-52 24.5q-30 0 -48.5 -21.5
t-18.5 -55.5v-29q0 -33 19 -53.5t49 -20.5z" />
    <glyph glyph-name="zero.tnum" horiz-adv-x="600" 
d="M514 503v-258q0 -119 -56.5 -186.5t-157.5 -67.5t-157 67t-56 187v258q0 120 55.5 187t157.5 67t158 -67t56 -187zM147 503v-258q0 -94 39.5 -146.5t113.5 -52.5t113.5 52.5t39.5 146.5v258q0 96 -39 147.5t-114 51.5t-114 -51.5t-39 -147.5z" />
    <glyph glyph-name="one.tnum" horiz-adv-x="600" 
d="M350 748v-695h172v-53h-416v53h185v624l-170 -137v64l178 144h51z" />
    <glyph glyph-name="two.tnum" horiz-adv-x="600" 
d="M292 757q93 0 146.5 -54t53.5 -145q0 -75 -28 -131q-28 -55 -93 -138l-182 -235h313v-54h-385v47l211 275q58 75 81 122q24 50 24 111q0 69 -38 107.5t-107 38.5q-80 0 -153 -48l-8 57q79 47 165 47z" />
    <glyph glyph-name="three.tnum" horiz-adv-x="600" 
d="M292 757q81 0 134 -50t53 -135v-22q0 -53 -27 -96t-70 -62q51 -14 81.5 -60t30.5 -112v-29q0 -92 -56 -146t-148 -54q-100 0 -173 59l9 58q68 -62 161 -62q67 0 107 39.5t40 108.5v28q0 66 -34.5 104t-92.5 38h-89v52h89q46 0 79 38q34 37 34 93v21q0 62 -36.5 97.5
t-95.5 35.5q-92 0 -153 -60l-10 58q67 58 167 58z" />
    <glyph glyph-name="four.tnum" horiz-adv-x="600" 
d="M401 748v-497h113v-54h-113v-197h-58v197h-267v49l267 502h58zM343 629l-205 -378h205v378z" />
    <glyph glyph-name="five.tnum" horiz-adv-x="600" 
d="M467 748v-54h-271v-269h88q93 0 147.5 -55t54.5 -148v-36q0 -93 -53.5 -144t-144.5 -51q-100 0 -173 59l12 58q65 -62 158 -62q66 0 104 36.5t38 105.5v28q0 75 -42 115t-118 40h-130v377h330z" />
    <glyph glyph-name="six.tnum" horiz-adv-x="600" 
d="M314 454q80 0 133 -56t53 -147v-51q0 -93 -52 -151t-140 -58q-94 0 -143 60q-57 69 -57 195v275q0 103 56 170q56 66 146 66q94 0 165 -56l-9 -58q-64 58 -153 58q-65 0 -105.5 -48.5t-40.5 -126.5v-132q60 60 147 60zM441 199v50q0 67 -38.5 108.5t-96.5 41.5
q-46 0 -77 -17.5t-62 -56.5v-96q0 -87 37 -137q34 -46 104 -46q60 0 96.5 42t36.5 111z" />
    <glyph glyph-name="seven.tnum" horiz-adv-x="600" 
d="M487 747v-48l-260 -700h-62l259 696h-305v52h368z" />
    <glyph glyph-name="eight.tnum" horiz-adv-x="600" 
d="M486 573v-20q0 -56 -25 -98t-67 -59q46 -19 75.5 -67t29.5 -110v-24q0 -92 -53 -148t-147 -56t-146.5 56t-52.5 148v24q0 62 29 110t75 67q-42 18 -67.5 60t-25.5 97v20q0 82 51 133t137 51t136.5 -50.5t50.5 -133.5zM298 702q-58 0 -92.5 -36.5t-34.5 -95.5v-17
q0 -60 33 -96.5t94 -36.5t95 37t34 96v17q0 60 -34.5 96t-94.5 36zM159 217v-20q0 -68 36.5 -109.5t103.5 -41.5t104 41.5t37 109.5v20q0 68 -38.5 108.5t-102.5 40.5t-102 -40.5t-38 -108.5z" />
    <glyph glyph-name="nine.tnum" horiz-adv-x="600" 
d="M435 697q57 -69 57 -195v-275q0 -103 -56 -170q-55 -66 -146 -66q-94 0 -165 56l9 58q64 -58 153 -58q65 0 105.5 48.5t40.5 126.5v132q-60 -60 -147 -60q-81 0 -133 55q-53 56 -53 148v51q0 93 52 151t140 58q94 0 143 -60zM294 349q46 0 77 17.5t62 56.5v96
q0 87 -37 137q-34 46 -104 46q-60 0 -96.5 -42t-36.5 -111v-50q0 -67 38.5 -108.5t96.5 -41.5z" />
    <glyph glyph-name="zero.dnom" horiz-adv-x="316" 
d="M279 276v-140q0 -66 -32 -103.5t-89 -37.5t-89 37.5t-32 103.5v140q0 66 31.5 103t89.5 37t89.5 -37t31.5 -103zM80 275v-139q0 -48 20.5 -74.5t57.5 -26.5t57 26.5t20 74.5v139q0 48 -20 75t-57 27t-57.5 -27t-20.5 -75z" />
    <glyph glyph-name="one.dnom" horiz-adv-x="201" 
d="M154 411v-411h-43v357l-90 -69v48l95 75h38z" />
    <glyph glyph-name="two.dnom" horiz-adv-x="298" 
d="M143 416q52 0 83 -30t31 -81q0 -41 -15 -71t-51 -75l-93 -119h164v-40h-218v34l115 147q55 69 55 121q0 34 -19.5 54t-54.5 20q-43 0 -84 -26l-5 43q41 23 92 23z" />
    <glyph glyph-name="three.dnom" horiz-adv-x="285" 
d="M134 416q49 0 78.5 -28.5t29.5 -76.5v-11q0 -29 -14 -52t-35 -33q26 -9 42 -33.5t16 -58.5v-15q0 -52 -32 -82.5t-85 -30.5q-54 0 -97 30l6 43q40 -33 88 -33q35 0 56 20t21 55v14q0 33 -17.5 51.5t-47.5 18.5h-49v39h49q22 0 39 19t17 46v11q0 30 -18.5 48.5t-48.5 18.5
q-49 0 -84 -32l-6 43q44 29 92 29z" />
    <glyph glyph-name="four.dnom" horiz-adv-x="295" 
d="M212 411v-270h59v-40h-59v-101h-43v101h-146v36l146 274h43zM169 333l-103 -192h103v192z" />
    <glyph glyph-name="five.dnom" horiz-adv-x="275" 
d="M234 411v-40h-145v-134h42q51 0 82 -30.5t31 -81.5v-21q0 -51 -30.5 -80t-82.5 -29q-56 0 -97 31l8 42q36 -33 86 -33q34 0 53.5 18.5t19.5 52.5v15q0 38 -22 58t-61 20h-71v212h187z" />
    <glyph glyph-name="six.dnom" horiz-adv-x="297" 
d="M156 252q46 0 75.5 -31.5t29.5 -82.5v-25q0 -54 -29.5 -86t-80.5 -32t-80 33q-34 40 -34 110v145q0 59 32.5 96t85.5 37q51 0 91 -28l-6 -42q-34 30 -82 30q-34 0 -55.5 -24.5t-21.5 -65.5v-63q34 29 75 29zM218 111v29q0 33 -19 53.5t-49 20.5q-38 0 -69 -36v-53
q0 -42 18 -66t52 -24q31 0 49 21t18 55z" />
    <glyph glyph-name="seven.dnom" horiz-adv-x="251" 
d="M229 411v-34l-139 -377h-44l137 373h-162v38h208z" />
    <glyph glyph-name="eight.dnom" horiz-adv-x="309" 
d="M154 416q49 0 78 -28.5t29 -74.5v-11q0 -65 -47 -85q25 -11 39.5 -36.5t14.5 -58.5v-12q0 -52 -30 -83.5t-84 -31.5q-53 0 -83 31.5t-30 83.5v12q0 32 15.5 57.5t39.5 37.5q-48 21 -48 85v11q0 46 29 74.5t77 28.5zM89 311v-13q0 -30 17.5 -48t47.5 -18q32 0 49 18t17 48
v13q0 30 -18 48t-48 18t-47.5 -18t-17.5 -48zM154 196q-31 0 -50.5 -20.5t-19.5 -53.5v-12q0 -34 18.5 -54.5t51.5 -20.5t52 20.5t19 54.5v12q0 34 -19.5 54t-51.5 20z" />
    <glyph glyph-name="nine.dnom" horiz-adv-x="297" 
d="M228 384q33 -40 33 -111v-145q0 -59 -32.5 -96t-85.5 -37q-50 0 -90 28l6 42q35 -30 81 -30q34 0 56 25t22 65v64q-32 -30 -75 -30q-46 0 -76 32t-30 83v24q0 53 30 85.5t81 32.5q53 0 80 -32zM149 197q39 0 69 38v51q0 42 -18 66.5t-52 24.5q-30 0 -48.5 -21.5
t-18.5 -55.5v-29q0 -33 19 -53.5t49 -20.5z" />
    <glyph glyph-name="zero.numr" horiz-adv-x="316" 
d="M279 597v-140q0 -66 -32 -103.5t-89 -37.5t-89 37.5t-32 103.5v140q0 66 31.5 103t89.5 37t89.5 -37t31.5 -103zM80 596v-139q0 -48 20.5 -74.5t57.5 -26.5t57 26.5t20 74.5v139q0 48 -20 75t-57 27t-57.5 -27t-20.5 -75z" />
    <glyph glyph-name="one.numr" horiz-adv-x="201" 
d="M154 733v-411h-43v357l-90 -69v48l95 75h38z" />
    <glyph glyph-name="two.numr" horiz-adv-x="298" 
d="M143 738q52 0 83 -30t31 -81q0 -41 -15 -71t-51 -75l-93 -119h164v-40h-218v34l115 147q55 69 55 121q0 34 -19.5 54t-54.5 20q-43 0 -84 -26l-5 43q41 23 92 23z" />
    <glyph glyph-name="three.numr" horiz-adv-x="285" 
d="M134 738q49 0 78.5 -28.5t29.5 -76.5v-11q0 -29 -14 -52t-35 -33q26 -9 42 -33.5t16 -58.5v-15q0 -52 -32 -82.5t-85 -30.5q-54 0 -97 30l6 43q41 -33 88 -33q35 0 56 20t21 55v14q0 33 -17.5 51.5t-47.5 18.5h-49v39h49q22 0 39 19t17 46v11q0 30 -18.5 48.5t-48.5 18.5
q-49 0 -84 -32l-6 43q44 29 92 29z" />
    <glyph glyph-name="four.numr" horiz-adv-x="295" 
d="M212 733v-270h59v-40h-59v-101h-43v101h-146v36l146 274h43zM169 655l-103 -192h103v192z" />
    <glyph glyph-name="five.numr" horiz-adv-x="275" 
d="M234 733v-40h-145v-134h42q51 0 82 -30.5t31 -81.5v-21q0 -51 -30.5 -80t-82.5 -29q-56 0 -97 31l8 42q36 -33 86 -33q34 0 53.5 18.5t19.5 52.5v15q0 38 -22 58t-61 20h-71v212h187z" />
    <glyph glyph-name="six.numr" horiz-adv-x="297" 
d="M156 574q46 0 75.5 -31.5t29.5 -82.5v-25q0 -54 -29.5 -86t-80.5 -32t-80 33q-34 40 -34 110v145q0 59 32.5 96t85.5 37q51 0 91 -28l-6 -42q-34 30 -82 30q-34 0 -55.5 -24.5t-21.5 -65.5v-63q34 29 75 29zM218 433v29q0 33 -19 53.5t-49 20.5q-38 0 -69 -36v-53
q0 -42 18 -66t52 -24q31 0 49 21t18 55z" />
    <glyph glyph-name="seven.numr" horiz-adv-x="251" 
d="M229 733v-34l-139 -377h-44l137 373h-162v38h208z" />
    <glyph glyph-name="eight.numr" horiz-adv-x="309" 
d="M154 738q49 0 78 -28.5t29 -74.5v-11q0 -65 -47 -85q25 -11 39.5 -36.5t14.5 -58.5v-12q0 -52 -30 -83.5t-84 -31.5q-53 0 -83 31.5t-30 83.5v12q0 32 15.5 57.5t39.5 37.5q-48 21 -48 85v11q0 46 29 74.5t77 28.5zM89 633v-13q0 -30 17.5 -48t47.5 -18q32 0 49 18t17 48
v13q0 30 -18 48t-48 18t-47.5 -18t-17.5 -48zM154 518q-31 0 -50.5 -20.5t-19.5 -53.5v-12q0 -34 18.5 -54.5t51.5 -20.5t52 20.5t19 54.5v12q0 34 -19.5 54t-51.5 20z" />
    <glyph glyph-name="nine.numr" horiz-adv-x="297" 
d="M228 706q33 -40 33 -111v-145q0 -59 -32.5 -96t-85.5 -37q-50 0 -90 28l6 42q35 -30 81 -30q34 0 56 25t22 65v64q-32 -30 -75 -30q-46 0 -76 32t-30 83v24q0 53 30 85.5t81 32.5q53 0 80 -32zM149 519q39 0 69 38v51q0 42 -18 66.5t-52 24.5q-30 0 -48.5 -21.5
t-18.5 -55.5v-29q0 -33 19 -53.5t49 -20.5z" />
    <glyph glyph-name="exclamdown.cap" horiz-adv-x="231" 
d="M145 686q-12 -12 -29 -12t-29 12q-12 13 -12 30t12 29t29 12t29 -12t12 -29t-12 -30zM85 0v559h62v-559h-62z" />
    <glyph glyph-name="periodcentered.cap" horiz-adv-x="190" 
d="M94 442q19 0 32 -12.5t13 -31.5t-13 -31.5t-32 -12.5q-18 0 -30.5 13t-12.5 31t12.5 31t30.5 13z" />
    <glyph glyph-name="questiondown.cap" horiz-adv-x="376" 
d="M222 686q-12 -12 -29 -12t-30 12q-12 13 -12 30t12 29q17 18 40 10t29 -28.5t-10 -40.5zM204 -10q-80 0 -128 48t-48 131q0 51 13.5 88t43.5 79q3 3 15 20q17 21 30 42q12 18 23 49q9 26 9 64v48h60v-50q3 -39 -19 -95q-1 -9 -14 -26q-13 -20 -13 -21l-17 -22l-15 -19
q-55 -73 -55 -155q0 -61 32.5 -94.5t89.5 -33.5q63 0 131 41l7 -55q-71 -39 -145 -39z" />
    <glyph glyph-name="braceleft.cap" horiz-adv-x="225" 
d="M201 769v-47h-6q-105 0 -69 -178q14 -75 11 -110q-1 -51 -47 -62q46 -11 47 -62q3 -34 -11 -110q-36 -178 69 -178h6v-47h-6q-81 0 -114.5 58.5t-9.5 163.5q16 72 13 107q-1 45 -54 45h-8v47h8q53 0 54 43q3 36 -13 109q-24 105 9.5 163t114.5 58h6z" />
    <glyph glyph-name="braceright.cap" horiz-adv-x="225" 
d="M23 722v47h6q82 0 115 -58t9 -163q-14 -64 -15 -92q0 -60 56 -60h8v-47h-8q-51 0 -55 -44q-1 -42 14 -108q24 -106 -9 -164t-115 -58h-6v47h6q104 0 70 178q-17 60 -12 111q6 50 47 61q-41 11 -47 61q-5 51 12 111q34 178 -70 178h-6z" />
    <glyph glyph-name="bracketleft.cap" horiz-adv-x="243" 
d="M220 770v-47h-103v-701h103v-47h-159v795h159z" />
    <glyph glyph-name="bracketright.cap" horiz-adv-x="247" 
d="M183 770v-795h-160v47h104v701h-104v47h160z" />
    <glyph glyph-name="parenleft.cap" horiz-adv-x="234" 
d="M163 766l49 -18q-114 -171 -114 -386q0 -214 114 -385l-49 -19q-121 181 -121 404q0 226 121 404z" />
    <glyph glyph-name="parenright.cap" horiz-adv-x="232" 
d="M22 748l48 18q122 -178 122 -404q0 -225 -122 -404l-48 19q114 171 114 385q0 215 -114 386z" />
    <glyph glyph-name="emdash.cap" horiz-adv-x="606" 
d="M572 403v-53h-539v53h539z" />
    <glyph glyph-name="endash.cap" horiz-adv-x="427" 
d="M393 403v-53h-360v53h360z" />
    <glyph glyph-name="hyphen.cap" horiz-adv-x="300" 
d="M266 403v-53h-233v53h233z" />
    <glyph glyph-name="guillemotleft.cap" horiz-adv-x="404" 
d="M150 591l52 -21l-122 -189l122 -190l-52 -21l-135 211zM329 591l52 -21l-123 -189l123 -190l-52 -21l-135 211z" />
    <glyph glyph-name="guillemotright.cap" horiz-adv-x="404" 
d="M74 591l135 -210l-135 -211l-52 21l122 190l-122 189zM253 591l135 -210l-135 -211l-52 21l122 190l-122 189z" />
    <glyph glyph-name="guilsinglleft.cap" horiz-adv-x="224" 
d="M150 591l52 -21l-122 -189l122 -190l-52 -21l-135 211z" />
    <glyph glyph-name="guilsinglright.cap" horiz-adv-x="224" 
d="M74 591l135 -210l-135 -211l-52 21l122 190l-122 189z" />
    <glyph glyph-name="emdash_guilsinglright" horiz-adv-x="582" 
d="M406 477l141 -216l-141 -216l-46 24l111 168h-436v47h435l-110 168z" />
    <glyph glyph-name="endash_guilsinglright" horiz-adv-x="421" 
d="M245 477l141 -216l-141 -216l-47 24l111 168h-274v47h273l-110 168z" />
    <glyph glyph-name="guilsinglleft_emdash" horiz-adv-x="582" 
d="M176 477l46 -25l-110 -168h435v-47h-435l110 -168l-46 -24l-141 216z" />
    <glyph glyph-name="guilsinglleft_endash" horiz-adv-x="421" 
d="M176 477l46 -25l-110 -168h274v-47h-274l110 -168l-46 -24l-141 216z" />
    <glyph glyph-name="at.cap" horiz-adv-x="760" 
d="M373 724q144 0 237 -98q94 -97 94 -254q0 -93 -38.5 -144t-101.5 -51q-33 0 -56.5 12.5t-29.5 33.5q-52 -52 -116 -52q-61 0 -97.5 40t-36.5 106v120q0 66 36.5 106t97.5 40q65 0 107 -47v40h44v-311q0 -21 15.5 -34t41.5 -13q43 0 67 39t24 115q0 140 -81 226
q-80 86 -207 86q-121 0 -198 -86q-76 -85 -76 -226q0 -142 76 -225q77 -84 198 -84q104 0 186 52l12 -40q-87 -54 -198 -54q-138 0 -228 97q-89 98 -89 254q0 157 88 254q89 98 229 98zM371 541q-45 0 -70.5 -28.5t-25.5 -77.5v-116q0 -49 25.5 -77.5t70.5 -28.5q52 0 95 49
v230q-47 49 -95 49z" />
    <glyph glyph-name="acute.case" horiz-adv-x="285" 
d="M240 912l-164 -115h-55l139 115h80z" />
    <glyph glyph-name="breve.case" horiz-adv-x="265" 
d="M203 914h47q0 -48 -31.5 -75.5t-85.5 -27.5t-86 27.5t-32 75.5h47q0 -29 19 -46t52 -17q32 0 51 17t19 46z" />
    <glyph glyph-name="caron.case" horiz-adv-x="338" 
d="M305 924l-110 -127h-52l-111 127h50l86 -90l87 90h50z" />
    <glyph glyph-name="circumflex.case" horiz-adv-x="338" 
d="M195 932l110 -128h-50l-87 91l-86 -91h-50l111 128h52z" />
    <glyph glyph-name="dieresis.case" horiz-adv-x="225" 
d="M90 863q0 -21 -18 -30t-36 0t-18 30q0 14 10.5 24.5t25.5 10.5t25.5 -10.5t10.5 -24.5zM207 863q2 -21 -16.5 -30t-37.5 0t-18 30q0 14 11 24.5t26 10.5t25 -10.5t10 -24.5z" />
    <glyph glyph-name="dotaccent.case" horiz-adv-x="134" 
d="M109 858q0 -16 -12.5 -28t-29.5 -12t-29 11.5t-12 28.5t12 29.5t29 12.5t29.5 -12.5t12.5 -29.5z" />
    <glyph glyph-name="grave.case" horiz-adv-x="285" 
d="M124 912l139 -115h-56l-163 115h80z" />
    <glyph glyph-name="hungarumlaut.case" horiz-adv-x="309" 
d="M141 928l-65 -128h-46l60 128h51zM278 928l-68 -128h-46l60 128h54z" />
    <glyph glyph-name="macron.case" horiz-adv-x="240" 
d="M225 890v-44h-210v44h210z" />
    <glyph glyph-name="ring.case" horiz-adv-x="199" 
d="M100 958q33 0 56 -21.5t23 -54.5t-23 -54.5t-56 -21.5q-34 0 -57.5 21.5t-23.5 54.5t23.5 54.5t57.5 21.5zM101 924q-28 3 -39.5 -19.5t0 -45t39.5 -19.5q18 0 30 11.5t12 30.5t-12 30.5t-30 11.5z" />
    <glyph glyph-name="tilde.case" horiz-adv-x="290" 
d="M196 863q38 0 39 43h34q2 -36 -17 -61.5t-50 -25.5t-58 24q-25 24 -47 24q-38 0 -39 -43h-33q-2 36 16.5 61t49.5 25t57 -24q28 -23 48 -23z" />
    <glyph glyph-name="anneau" horiz-adv-x="576" 
d="M544 507q0 -105 -74 -179q-74 -72 -182 -72q-110 0 -183 72q-73 73 -73 179q0 107 73 179t183 72q108 0 182 -72t74 -179zM452 669q-66 66 -164 66t-165 -66q-66 -65 -66 -162t66 -163q68 -65 165 -65t164 65q67 66 67 163q0 98 -67 162z" />
    <glyph glyph-name="_511" horiz-adv-x="600" 
 />
    <glyph glyph-name="null.001" horiz-adv-x="600" 
 />
    <glyph glyph-name="null.002" horiz-adv-x="600" 
 />
    <glyph glyph-name="null.003" horiz-adv-x="600" 
 />
    </font>
</defs>
</svg>
